<svg width="215" height="165" viewBox="0 0 215 165" fill="none" xmlns="http://www.w3.org/2000/svg">
<path d="M1.50101 157L0.501013 157L0.50102 158L1.50101 158L1.50101 157ZM213.708 157.707C214.099 157.317 214.099 156.683 213.708 156.293L207.344 149.929C206.954 149.538 206.321 149.538 205.93 149.929C205.54 150.319 205.54 150.953 205.93 151.343L211.587 157L205.93 162.657C205.54 163.047 205.54 163.681 205.93 164.071C206.321 164.462 206.954 164.462 207.344 164.071L213.708 157.707ZM0.500014 -0.000244228L0.501013 157L2.50101 157L2.50001 -0.000244053L0.500014 -0.000244228ZM1.50101 158L213.001 158L213.001 156L1.50101 156L1.50101 158Z" fill="#4AA29A"/>
</svg>
