<svg width="24" height="16" viewBox="0 0 24 16" fill="none" xmlns="http://www.w3.org/2000/svg">
<path d="M23.2875 1.70292H21.8192V1.58671C21.8192 1.49991 21.7952 1.41481 21.7498 1.34083C21.7044 1.26685 21.6394 1.20689 21.562 1.16761C18.2331 -0.52691 15.0184 -0.374266 12.0016 1.6091C8.98506 -0.374694 5.7699 -0.526919 2.44149 1.16761C2.36409 1.20689 2.29909 1.26685 2.25369 1.34083C2.20829 1.41481 2.18427 1.49991 2.18429 1.58671V1.70291H0.712739C0.650973 1.70289 0.589809 1.71505 0.532741 1.73868C0.475674 1.7623 0.423821 1.79695 0.380146 1.84062C0.336471 1.8843 0.301828 1.93615 0.278199 1.99322C0.254569 2.05029 0.242416 2.11145 0.242432 2.17322V15.5299C0.242396 15.5917 0.254537 15.6529 0.27816 15.7099C0.301783 15.767 0.336424 15.8189 0.380103 15.8626C0.423782 15.9062 0.475642 15.9409 0.532719 15.9645C0.589795 15.9881 0.650968 16.0003 0.712739 16.0002H23.2875C23.3493 16.0003 23.4104 15.9881 23.4675 15.9645C23.5246 15.9409 23.5765 15.9062 23.6201 15.8626C23.6638 15.8189 23.6985 15.767 23.7221 15.7099C23.7457 15.6529 23.7578 15.5917 23.7578 15.5299V2.17323C23.7578 2.11146 23.7457 2.0503 23.722 1.99323C23.6984 1.93616 23.6638 1.88431 23.6201 1.84063C23.5764 1.79696 23.5246 1.76232 23.4675 1.73869C23.4104 1.71506 23.3493 1.70291 23.2875 1.70292ZM20.8786 1.87882V12.9855C19.5498 12.3554 18.0844 12.0679 16.6161 12.1491C15.1477 12.2302 13.723 12.6776 12.4718 13.4503V2.41962C15.1568 0.632328 17.9111 0.454815 20.8786 1.87883V1.87882ZM11.5312 2.41962V13.4503C10.1546 12.6058 8.57395 12.1522 6.95901 12.1381C5.63613 12.1524 4.3306 12.441 3.1249 12.9855V2.1755L3.12537 2.17323L3.1249 2.17096V1.87883C6.09142 0.455276 8.84667 0.632559 11.5312 2.41962ZM22.8172 15.0596H1.18305V2.64354H2.18429V13.7272C2.18431 13.8077 2.20495 13.8867 2.24424 13.9569C2.28352 14.0271 2.34015 14.086 2.40869 14.1281C2.47724 14.1701 2.55543 14.1939 2.63579 14.1971C2.71615 14.2004 2.79599 14.183 2.8677 14.1466C6.00645 12.5492 8.90638 12.7292 11.7328 14.6972C11.74 14.7022 11.7485 14.704 11.7559 14.7085C11.7657 14.7146 11.7735 14.723 11.7838 14.7285C11.8015 14.7364 11.8196 14.7433 11.8382 14.7489C11.8502 14.7534 11.8616 14.7589 11.8739 14.7623C11.957 14.7882 12.0461 14.7882 12.1292 14.7623C12.1412 14.7589 12.1524 14.7536 12.1642 14.7491C12.183 14.7435 12.2013 14.7365 12.2192 14.7285C12.2295 14.7231 12.2374 14.7146 12.2472 14.7085C12.2546 14.704 12.263 14.7022 12.2702 14.6972C15.0962 12.7297 17.9956 12.5483 21.1357 14.1466C21.2075 14.183 21.2873 14.2004 21.3677 14.1972C21.448 14.1939 21.5262 14.1701 21.5948 14.1281C21.6633 14.086 21.7199 14.0271 21.7592 13.9569C21.7985 13.8867 21.8191 13.8077 21.8192 13.7272V2.64354H22.8172L22.8172 15.0596Z" fill="#E2581D"/>
<path d="M5.34191 3.74632C6.68327 3.25462 8.16411 3.30955 9.46537 3.89926C9.54792 3.94288 9.6444 3.95199 9.73366 3.92459C9.82292 3.8972 9.89768 3.83555 9.94156 3.75313C9.98544 3.67072 9.99486 3.57427 9.96776 3.48493C9.94066 3.39558 9.87924 3.32062 9.79697 3.27647C9.06259 2.93574 8.26799 2.74383 7.45904 2.71182C6.65008 2.67982 5.84281 2.80835 5.0838 3.09001C5.0407 3.10695 5.00137 3.13222 4.96804 3.16437C4.93471 3.19652 4.90804 3.23492 4.88955 3.27738C4.87107 3.31983 4.86112 3.36552 4.86029 3.41182C4.85945 3.45811 4.86775 3.50413 4.8847 3.54722C4.90164 3.59031 4.92691 3.62965 4.95906 3.66298C4.99121 3.6963 5.02961 3.72297 5.07207 3.74146C5.11452 3.75995 5.16021 3.76989 5.20651 3.77073C5.25281 3.77156 5.29882 3.76327 5.34191 3.74632Z" fill="#E2581D"/>
<path d="M5.34191 6.05207C6.68326 5.56026 8.16414 5.61519 9.46537 6.20502C9.54792 6.24863 9.6444 6.25774 9.73366 6.23035C9.82292 6.20296 9.89768 6.1413 9.94156 6.05889C9.98544 5.97647 9.99486 5.88003 9.96776 5.79068C9.94066 5.70133 9.87924 5.62637 9.79697 5.58222C9.0626 5.24143 8.268 5.04949 7.45904 5.01749C6.65008 4.98548 5.84279 5.11405 5.0838 5.39576C5.0407 5.41271 5.00137 5.43798 4.96804 5.47012C4.93471 5.50227 4.90804 5.54067 4.88955 5.58313C4.87107 5.62559 4.86112 5.67127 4.86029 5.71757C4.85945 5.76387 4.86775 5.80988 4.8847 5.85297C4.90164 5.89607 4.92691 5.9354 4.95906 5.96873C4.99121 6.00206 5.02961 6.02873 5.07207 6.04721C5.11452 6.0657 5.16021 6.07565 5.20651 6.07648C5.25281 6.07731 5.29882 6.06902 5.34191 6.05207Z" fill="#E2581D"/>
<path d="M5.3419 8.3592C6.68313 7.86666 8.1643 7.9216 9.46536 8.51215C9.54791 8.55576 9.64439 8.56487 9.73365 8.53748C9.82291 8.51009 9.89767 8.44843 9.94155 8.36602C9.98543 8.2836 9.99485 8.18716 9.96775 8.09781C9.94065 8.00846 9.87923 7.9335 9.79696 7.88936C9.06267 7.54829 8.26806 7.35619 7.45906 7.32414C6.65007 7.29209 5.84275 7.42074 5.08378 7.70264C4.99672 7.73687 4.92682 7.80428 4.88946 7.89005C4.8521 7.97582 4.85034 8.07291 4.88456 8.15997C4.91879 8.24704 4.98621 8.31694 5.07197 8.3543C5.15774 8.39166 5.25483 8.39342 5.3419 8.35919V8.3592Z" fill="#E2581D"/>
<path d="M5.34227 10.6654C6.68332 10.173 8.16425 10.2277 9.46527 10.8179C9.54782 10.8615 9.6443 10.8706 9.73356 10.8432C9.82281 10.8158 9.89758 10.7542 9.94146 10.6717C9.98534 10.5893 9.99476 10.4929 9.96766 10.4035C9.94056 10.3142 9.87914 10.2392 9.79687 10.1951C9.06252 9.85393 8.26781 9.66179 7.45873 9.62979C6.64964 9.59778 5.84223 9.72654 5.08323 10.0086C4.99614 10.043 4.92626 10.1105 4.88896 10.1964C4.85166 10.2822 4.85001 10.3794 4.88436 10.4665C4.91871 10.5536 4.98625 10.6235 5.07213 10.6608C5.158 10.6981 5.25517 10.6997 5.34227 10.6654Z" fill="#E2581D"/>
<path d="M14.4665 3.94818C14.5241 3.94812 14.5809 3.93392 14.6318 3.90684C15.933 3.31703 17.4139 3.2621 18.7553 3.7539C18.7984 3.771 18.8445 3.77942 18.8908 3.77868C18.9372 3.77794 18.983 3.76806 19.0256 3.7496C19.0681 3.73114 19.1066 3.70446 19.1389 3.67109C19.1711 3.63773 19.1964 3.59833 19.2134 3.55516C19.2304 3.51199 19.2387 3.46589 19.2378 3.41951C19.2369 3.37312 19.2269 3.32737 19.2084 3.28486C19.1898 3.24235 19.163 3.20393 19.1295 3.17179C19.0961 3.13966 19.0566 3.11444 19.0134 3.09758C17.4788 2.53829 15.7858 2.60528 14.3002 3.28405C14.2307 3.32104 14.1755 3.38022 14.1436 3.45218C14.1116 3.52413 14.1046 3.60472 14.1237 3.68111C14.1428 3.75749 14.187 3.82528 14.2491 3.87368C14.3112 3.92208 14.3877 3.94831 14.4665 3.94818Z" fill="#E2581D"/>
<path d="M14.4665 6.25447C14.5241 6.25441 14.5809 6.24022 14.6318 6.21314C15.933 5.62333 17.4139 5.5684 18.7553 6.0602C18.7984 6.0773 18.8445 6.08572 18.8908 6.08498C18.9372 6.08424 18.983 6.07436 19.0256 6.0559C19.0681 6.03744 19.1066 6.01076 19.1389 5.97739C19.1711 5.94403 19.1964 5.90463 19.2134 5.86146C19.2304 5.81829 19.2387 5.77219 19.2378 5.72581C19.2369 5.67942 19.2269 5.63367 19.2084 5.59116C19.1898 5.54865 19.163 5.51023 19.1295 5.47809C19.0961 5.44596 19.0566 5.42074 19.0134 5.40388C17.4787 4.84506 15.7859 4.91203 14.3002 5.59035C14.2307 5.62733 14.1755 5.68652 14.1436 5.75847C14.1116 5.83043 14.1046 5.91102 14.1237 5.9874C14.1428 6.06379 14.187 6.13158 14.2491 6.17998C14.3112 6.22838 14.3877 6.2546 14.4665 6.25447Z" fill="#E2581D"/>
<path d="M14.4665 8.56057C14.5241 8.56051 14.5809 8.54632 14.6318 8.51924C15.9329 7.92896 17.414 7.87403 18.7553 8.36629C18.7984 8.38324 18.8444 8.39153 18.8907 8.39069C18.937 8.38985 18.9827 8.3799 19.0252 8.3614C19.0677 8.3429 19.1061 8.31622 19.1382 8.28288C19.1704 8.24954 19.1957 8.21019 19.2126 8.16708C19.2295 8.12397 19.2378 8.07794 19.237 8.03163C19.2362 7.98532 19.2262 7.93962 19.2077 7.89715C19.1892 7.85469 19.1625 7.81628 19.1292 7.78412C19.0958 7.75197 19.0565 7.72669 19.0134 7.70974C17.4788 7.15058 15.7858 7.21765 14.3002 7.89646C14.2307 7.93344 14.1755 7.99263 14.1436 8.06458C14.1116 8.13654 14.1046 8.21713 14.1237 8.29351C14.1428 8.3699 14.187 8.43769 14.2491 8.48609C14.3112 8.53449 14.3877 8.56071 14.4665 8.56058V8.56057Z" fill="#E2581D"/>
<path d="M14.4665 10.8669C14.5241 10.8669 14.5809 10.8527 14.6318 10.8256C15.9328 10.2355 17.4137 10.1807 18.7548 10.6731C18.8418 10.7071 18.9388 10.7052 19.0244 10.6678C19.11 10.6305 19.1773 10.5607 19.2116 10.4738C19.2459 10.3869 19.2443 10.29 19.2072 10.2042C19.1702 10.1185 19.1006 10.0509 19.0138 10.0163C17.4791 9.45731 15.786 9.52428 14.3002 10.2028C14.2307 10.2398 14.1755 10.299 14.1436 10.3709C14.1116 10.4429 14.1046 10.5235 14.1237 10.5999C14.1428 10.6762 14.187 10.744 14.2491 10.7924C14.3112 10.8408 14.3877 10.8671 14.4665 10.8669Z" fill="#E2581D"/>
</svg>
