<svg width="24" height="16" viewBox="0 0 24 16" fill="none" xmlns="http://www.w3.org/2000/svg">
<path d="M23.2873 1.70292H21.8189V1.58671C21.8189 1.49991 21.7949 1.41481 21.7495 1.34083C21.7041 1.26685 21.6391 1.20689 21.5617 1.16761C18.2329 -0.52691 15.0182 -0.374266 12.0013 1.6091C8.98482 -0.374694 5.76966 -0.526919 2.44125 1.16761C2.36385 1.20689 2.29885 1.26685 2.25345 1.34083C2.20805 1.41481 2.18403 1.49991 2.18405 1.58671V1.70291H0.712495C0.650729 1.70289 0.589565 1.71505 0.532497 1.73868C0.47543 1.7623 0.423577 1.79695 0.379902 1.84062C0.336226 1.8843 0.301584 1.93615 0.277955 1.99322C0.254325 2.05029 0.242172 2.11145 0.242188 2.17322V15.5299C0.242152 15.5917 0.254293 15.6529 0.277916 15.7099C0.301538 15.767 0.33618 15.8189 0.379859 15.8626C0.423538 15.9062 0.475398 15.9409 0.532475 15.9645C0.589551 15.9881 0.650724 16.0003 0.712495 16.0002H23.2873C23.349 16.0003 23.4102 15.9881 23.4673 15.9645C23.5244 15.9409 23.5762 15.9062 23.6199 15.8626C23.6636 15.8189 23.6982 15.767 23.7218 15.7099C23.7455 15.6529 23.7576 15.5917 23.7576 15.5299V2.17323C23.7576 2.11146 23.7454 2.0503 23.7218 1.99323C23.6982 1.93616 23.6635 1.88431 23.6199 1.84063C23.5762 1.79696 23.5243 1.76232 23.4673 1.73869C23.4102 1.71506 23.349 1.70291 23.2873 1.70292ZM20.8783 1.87882V12.9855C19.5495 12.3554 18.0842 12.0679 16.6158 12.1491C15.1475 12.2302 13.7228 12.6776 12.4716 13.4503V2.41962C15.1565 0.632328 17.9109 0.454815 20.8783 1.87883V1.87882ZM11.5309 2.41962V13.4503C10.1543 12.6058 8.5737 12.1522 6.95877 12.1381C5.63589 12.1524 4.33036 12.441 3.12466 12.9855V2.1755L3.12513 2.17323L3.12466 2.17096V1.87883C6.09118 0.455276 8.84643 0.632559 11.5309 2.41962ZM22.8169 15.0596H1.1828V2.64354H2.18404V13.7272C2.18407 13.8077 2.20471 13.8867 2.24399 13.9569C2.28328 14.0271 2.3399 14.086 2.40845 14.1281C2.477 14.1701 2.55519 14.1939 2.63554 14.1971C2.7159 14.2004 2.79575 14.183 2.86746 14.1466C6.00621 12.5492 8.90614 12.7292 11.7326 14.6972C11.7397 14.7022 11.7482 14.704 11.7556 14.7085C11.7654 14.7146 11.7732 14.723 11.7835 14.7285C11.8012 14.7364 11.8194 14.7433 11.8379 14.7489C11.8499 14.7534 11.8614 14.7589 11.8737 14.7623C11.9568 14.7882 12.0458 14.7882 12.1289 14.7623C12.141 14.7589 12.1522 14.7536 12.164 14.7491C12.1827 14.7435 12.2011 14.7365 12.219 14.7285C12.2293 14.7231 12.2372 14.7146 12.247 14.7085C12.2543 14.704 12.2628 14.7022 12.2699 14.6972C15.0959 12.7297 17.9954 12.5483 21.1355 14.1466C21.2072 14.183 21.2871 14.2004 21.3674 14.1972C21.4478 14.1939 21.526 14.1701 21.5945 14.1281C21.6631 14.086 21.7197 14.0271 21.759 13.9569C21.7983 13.8867 21.8189 13.8077 21.8189 13.7272V2.64354H22.8169L22.8169 15.0596Z" fill="white"/>
<path d="M5.34105 3.74632C6.68242 3.25462 8.16326 3.30955 9.46451 3.89926C9.54707 3.94288 9.64355 3.95199 9.7328 3.92459C9.82206 3.8972 9.89682 3.83555 9.9407 3.75313C9.98458 3.67072 9.99401 3.57427 9.96691 3.48493C9.9398 3.39558 9.87839 3.32062 9.79612 3.27647C9.06173 2.93574 8.26713 2.74383 7.45818 2.71182C6.64923 2.67982 5.84195 2.80835 5.08294 3.09001C5.03985 3.10695 5.00051 3.13222 4.96718 3.16437C4.93386 3.19652 4.90719 3.23492 4.8887 3.27738C4.87021 3.31983 4.86027 3.36552 4.85943 3.41182C4.8586 3.45811 4.86689 3.50413 4.88384 3.54722C4.90079 3.59031 4.92606 3.62965 4.95821 3.66298C4.99036 3.6963 5.02876 3.72297 5.07121 3.74146C5.11367 3.75995 5.15935 3.76989 5.20565 3.77073C5.25195 3.77156 5.29796 3.76327 5.34105 3.74632Z" fill="white"/>
<path d="M5.34105 6.0511C6.6824 5.55928 8.16329 5.61421 9.46451 6.20404C9.54707 6.24765 9.64355 6.25676 9.7328 6.22937C9.82206 6.20198 9.89682 6.14032 9.9407 6.05791C9.98458 5.9755 9.99401 5.87905 9.96691 5.7897C9.9398 5.70036 9.87839 5.6254 9.79612 5.58125C9.06175 5.24046 8.26714 5.04852 7.45818 5.01651C6.64923 4.98451 5.84194 5.11307 5.08294 5.39478C5.03985 5.41173 5.00051 5.437 4.96718 5.46915C4.93386 5.5013 4.90719 5.5397 4.8887 5.58215C4.87021 5.62461 4.86027 5.67029 4.85943 5.71659C4.8586 5.76289 4.86689 5.8089 4.88384 5.85199C4.90079 5.89509 4.92606 5.93442 4.95821 5.96775C4.99036 6.00108 5.02876 6.02775 5.07121 6.04624C5.11367 6.06472 5.15935 6.07467 5.20565 6.0755C5.25195 6.07634 5.29796 6.06804 5.34105 6.0511Z" fill="white"/>
<path d="M5.34116 8.36018C6.6824 7.86764 8.16357 7.92258 9.46462 8.51312C9.54718 8.55674 9.64366 8.56585 9.73291 8.53845C9.82217 8.51106 9.89693 8.44941 9.94081 8.36699C9.98469 8.28458 9.99412 8.18813 9.96701 8.09879C9.93991 8.00944 9.8785 7.93448 9.79623 7.89033C9.06194 7.54927 8.26733 7.35716 7.45833 7.32511C6.64934 7.29307 5.84202 7.42171 5.08305 7.70362C4.99599 7.73785 4.92609 7.80526 4.88872 7.89103C4.85136 7.97679 4.8496 8.07389 4.88383 8.16095C4.91806 8.24802 4.98547 8.31792 5.07124 8.35528C5.15701 8.39264 5.2541 8.3944 5.34116 8.36017V8.36018Z" fill="white"/>
<path d="M5.3419 10.6654C6.68296 10.173 8.16388 10.2277 9.4649 10.8179C9.54745 10.8615 9.64393 10.8706 9.73319 10.8432C9.82245 10.8158 9.89721 10.7542 9.94109 10.6717C9.98497 10.5893 9.99439 10.4929 9.96729 10.4035C9.94019 10.3142 9.87877 10.2392 9.7965 10.1951C9.06216 9.85393 8.26745 9.66179 7.45836 9.62979C6.64927 9.59778 5.84187 9.72654 5.08287 10.0086C4.99577 10.043 4.92589 10.1105 4.88859 10.1964C4.8513 10.2822 4.84964 10.3794 4.88399 10.4665C4.91834 10.5536 4.98588 10.6235 5.07176 10.6608C5.15763 10.6981 5.25481 10.6997 5.3419 10.6654Z" fill="white"/>
<path d="M14.4666 3.94915C14.5242 3.94909 14.581 3.9349 14.6319 3.90781C15.9332 3.31801 17.414 3.26308 18.7554 3.75487C18.7985 3.77197 18.8446 3.7804 18.891 3.77966C18.9374 3.77892 18.9831 3.76904 19.0257 3.75058C19.0683 3.73211 19.1068 3.70544 19.139 3.67207C19.1712 3.63871 19.1965 3.59931 19.2135 3.55614C19.2305 3.51296 19.2388 3.46687 19.2379 3.42048C19.2371 3.3741 19.2271 3.32835 19.2085 3.28584C19.1899 3.24333 19.1631 3.20491 19.1296 3.17277C19.0962 3.14063 19.0567 3.11541 19.0135 3.09855C17.4789 2.53927 15.7859 2.60625 14.3003 3.28503C14.2308 3.32201 14.1757 3.3812 14.1437 3.45315C14.1117 3.52511 14.1047 3.6057 14.1238 3.68208C14.143 3.75847 14.1871 3.82626 14.2492 3.87466C14.3113 3.92306 14.3878 3.94928 14.4666 3.94915Z" fill="white"/>
<path d="M14.4666 6.25349C14.5242 6.25344 14.581 6.23924 14.6319 6.21216C15.9332 5.62235 17.414 5.56743 18.7554 6.05922C18.7985 6.07632 18.8446 6.08474 18.891 6.08401C18.9374 6.08327 18.9831 6.07339 19.0257 6.05492C19.0683 6.03646 19.1068 6.00978 19.139 5.97642C19.1712 5.94305 19.1965 5.90365 19.2135 5.86048C19.2305 5.81731 19.2388 5.77121 19.2379 5.72483C19.2371 5.67845 19.2271 5.63269 19.2085 5.59018C19.1899 5.54768 19.1631 5.50925 19.1296 5.47712C19.0962 5.44498 19.0567 5.41976 19.0135 5.4029C17.4789 4.84408 15.786 4.91105 14.3003 5.58937C14.2308 5.62636 14.1757 5.68554 14.1437 5.7575C14.1117 5.82945 14.1047 5.91004 14.1238 5.98642C14.143 6.06281 14.1871 6.1306 14.2492 6.179C14.3113 6.2274 14.3878 6.25362 14.4666 6.25349Z" fill="white"/>
<path d="M14.4666 8.56253C14.5242 8.56247 14.581 8.54828 14.6319 8.52119C15.9331 7.93092 17.4141 7.87598 18.7554 8.36825C18.7985 8.3852 18.8445 8.39349 18.8908 8.39265C18.9371 8.39181 18.9828 8.38186 19.0253 8.36336C19.0678 8.34486 19.1062 8.31818 19.1383 8.28483C19.1705 8.25149 19.1958 8.21214 19.2127 8.16903C19.2297 8.12592 19.238 8.0799 19.2371 8.03358C19.2363 7.98727 19.2263 7.94157 19.2078 7.89911C19.1893 7.85664 19.1626 7.81823 19.1293 7.78608C19.096 7.75392 19.0566 7.72865 19.0135 7.7117C17.4789 7.15253 15.7859 7.2196 14.3003 7.89841C14.2308 7.9354 14.1757 7.99458 14.1437 8.06654C14.1117 8.13849 14.1047 8.21908 14.1238 8.29546C14.143 8.37185 14.1871 8.43964 14.2492 8.48804C14.3113 8.53644 14.3878 8.56266 14.4666 8.56254V8.56253Z" fill="white"/>
<path d="M14.4666 10.8669C14.5242 10.8669 14.581 10.8527 14.6319 10.8256C15.933 10.2355 17.4139 10.1807 18.7549 10.6731C18.8419 10.7071 18.9389 10.7052 19.0245 10.6678C19.1101 10.6305 19.1774 10.5607 19.2117 10.4738C19.246 10.3869 19.2444 10.29 19.2074 10.2042C19.1703 10.1185 19.1007 10.0509 19.014 10.0163C17.4792 9.45731 15.7861 9.52428 14.3003 10.2028C14.2308 10.2398 14.1757 10.299 14.1437 10.3709C14.1117 10.4429 14.1047 10.5235 14.1238 10.5999C14.143 10.6762 14.1871 10.744 14.2492 10.7924C14.3113 10.8408 14.3878 10.8671 14.4666 10.8669Z" fill="white"/>
</svg>
