<svg width="156" height="1114" viewBox="0 0 156 1114" fill="none" xmlns="http://www.w3.org/2000/svg">
<path d="M8.29294 1113.21C8.68347 1113.6 9.31663 1113.6 9.70716 1113.21L16.0711 1106.84C16.4616 1106.45 16.4616 1105.82 16.0711 1105.43C15.6806 1105.04 15.0474 1105.04 14.6569 1105.43L9.00005 1111.09L3.34319 1105.43C2.95267 1105.04 2.3195 1105.04 1.92898 1105.43C1.53846 1105.82 1.53846 1106.45 1.92898 1106.84L8.29294 1113.21ZM8.00005 1073.96L8.00005 1112.5L10 1112.5L10 1073.96L8.00005 1073.96ZM8 5L8 1044.58L10 1044.58L10 5L8 5Z" fill="#E2581D"/>
<rect width="156" height="39" rx="10" fill="#E2581D"/>
<path d="M14.8164 13.648V16H12.8964V7.6H15.7524C16.4884 7.6 17.1084 7.664 17.6124 7.792C18.1244 7.92 18.5364 8.112 18.8484 8.368C19.1684 8.616 19.3964 8.924 19.5324 9.292C19.6764 9.66 19.7484 10.08 19.7484 10.552C19.7484 11.6 19.4124 12.38 18.7404 12.892C18.0684 13.396 17.0724 13.648 15.7524 13.648H14.8164ZM14.8164 9.4V11.848H15.9924C16.6004 11.848 17.0484 11.744 17.3364 11.536C17.6244 11.328 17.7684 11.004 17.7684 10.564C17.7684 10.164 17.6364 9.872 17.3724 9.688C17.1164 9.496 16.6884 9.4 16.0884 9.4H14.8164ZM23.7872 9.856C24.2512 9.856 24.6752 9.924 25.0592 10.06C25.4512 10.188 25.7872 10.384 26.0672 10.648C26.3552 10.912 26.5792 11.24 26.7392 11.632C26.8992 12.024 26.9792 12.484 26.9792 13.012C26.9792 13.532 26.9032 13.988 26.7512 14.38C26.5992 14.764 26.3792 15.088 26.0912 15.352C25.8112 15.616 25.4672 15.816 25.0592 15.952C24.6512 16.08 24.1912 16.144 23.6792 16.144C23.2152 16.144 22.7872 16.08 22.3952 15.952C22.0112 15.816 21.6752 15.616 21.3872 15.352C21.1072 15.088 20.8872 14.76 20.7272 14.368C20.5672 13.976 20.4872 13.516 20.4872 12.988C20.4872 11.956 20.7792 11.18 21.3632 10.66C21.9552 10.132 22.7632 9.864 23.7872 9.856ZM22.3472 13.012C22.3472 13.564 22.4752 13.96 22.7312 14.2C22.9872 14.44 23.3232 14.56 23.7392 14.56C24.1792 14.56 24.5192 14.44 24.7592 14.2C24.9992 13.96 25.1192 13.568 25.1192 13.024V12.988C25.1192 12.444 24.9872 12.052 24.7232 11.812C24.4672 11.564 24.1352 11.44 23.7272 11.44C23.2872 11.44 22.9472 11.56 22.7072 11.8C22.4672 12.04 22.3472 12.432 22.3472 12.976V13.012ZM33.1654 15.424C33.1014 15.496 33.0014 15.576 32.8654 15.664C32.7374 15.744 32.5814 15.82 32.3974 15.892C32.2214 15.964 32.0254 16.024 31.8094 16.072C31.5934 16.12 31.3694 16.144 31.1374 16.144C30.6494 16.144 30.1974 16.08 29.7814 15.952C29.3654 15.816 29.0054 15.616 28.7014 15.352C28.4054 15.088 28.1694 14.76 27.9934 14.368C27.8254 13.976 27.7414 13.516 27.7414 12.988C27.7414 12.476 27.8214 12.024 27.9814 11.632C28.1494 11.24 28.3814 10.912 28.6774 10.648C28.9814 10.384 29.3454 10.184 29.7694 10.048C30.1934 9.912 30.6654 9.848 31.1854 9.856C31.5934 9.864 31.9654 9.92 32.3014 10.024C32.6374 10.12 32.9054 10.244 33.1054 10.396V12.484C32.8974 12.18 32.6414 11.932 32.3374 11.74C32.0414 11.54 31.6574 11.44 31.1854 11.44C30.1294 11.44 29.6014 11.908 29.6014 12.844V13.192C29.6014 13.648 29.7454 13.992 30.0334 14.224C30.3214 14.448 30.7134 14.56 31.2094 14.56C31.7134 14.56 32.1254 14.476 32.4454 14.308C32.7734 14.14 33.0134 13.932 33.1654 13.684V15.424ZM35.7041 11.584H33.8801V10H39.4121V11.584H37.5041V16H35.7041V11.584ZM48.6822 12.472L47.2542 14.572H46.8102L45.3822 12.472V16H43.5822V10H45.4062L47.0742 12.436L48.6702 10H50.4822V16H48.6822V12.472ZM52.1762 10.396C52.3762 10.244 52.6562 10.12 53.0162 10.024C53.3842 9.928 53.8522 9.88 54.4202 9.88C55.4122 9.88 56.1202 10.056 56.5442 10.408C56.9762 10.752 57.1922 11.296 57.1922 12.04V16H55.4882V14.92C55.3442 15.272 55.1082 15.556 54.7802 15.772C54.4522 15.988 54.0522 16.096 53.5802 16.096C52.9562 16.096 52.4842 15.928 52.1642 15.592C51.8442 15.248 51.6842 14.796 51.6842 14.236C51.6842 13.876 51.7442 13.58 51.8642 13.348C51.9922 13.116 52.1642 12.932 52.3802 12.796C52.5962 12.66 52.8522 12.564 53.1482 12.508C53.4442 12.452 53.7602 12.424 54.0962 12.424H55.3922V12.376C55.3922 12.04 55.3242 11.804 55.1882 11.668C55.0522 11.524 54.7962 11.452 54.4202 11.452C54.1002 11.452 53.8202 11.48 53.5802 11.536C53.3482 11.584 53.1442 11.656 52.9682 11.752C52.8002 11.84 52.6522 11.948 52.5242 12.076C52.3962 12.196 52.2802 12.332 52.1762 12.484V10.396ZM54.2042 14.512C54.5482 14.512 54.8242 14.448 55.0322 14.32C55.2402 14.192 55.3602 14.024 55.3922 13.816V13.468H54.3962C54.1082 13.468 53.8842 13.508 53.7242 13.588C53.5722 13.668 53.4962 13.804 53.4962 13.996C53.4962 14.34 53.7322 14.512 54.2042 14.512ZM58.629 10H60.321V11.212C60.369 11.052 60.441 10.896 60.537 10.744C60.641 10.584 60.773 10.44 60.933 10.312C61.093 10.184 61.285 10.084 61.509 10.012C61.741 9.932 62.009 9.892 62.313 9.892C62.673 9.892 63.009 9.948 63.321 10.06C63.641 10.172 63.917 10.348 64.149 10.588C64.381 10.828 64.561 11.136 64.689 11.512C64.825 11.888 64.893 12.34 64.893 12.868C64.893 13.46 64.825 13.964 64.689 14.38C64.561 14.788 64.377 15.124 64.137 15.388C63.897 15.644 63.609 15.832 63.273 15.952C62.945 16.072 62.585 16.132 62.193 16.132C61.737 16.132 61.365 16.04 61.077 15.856C60.789 15.664 60.573 15.428 60.429 15.148V18.472H58.629V10ZM60.429 13.144C60.429 13.616 60.541 13.968 60.765 14.2C60.989 14.432 61.309 14.548 61.725 14.548C62.205 14.548 62.549 14.428 62.757 14.188C62.973 13.94 63.081 13.52 63.081 12.928C63.081 12.4 62.961 12.028 62.721 11.812C62.489 11.588 62.177 11.476 61.785 11.476C61.305 11.476 60.961 11.588 60.753 11.812C60.553 12.036 60.445 12.352 60.429 12.76V13.144ZM68.9086 13.684H68.2966L67.1806 16H65.1886L66.7966 12.892L65.3566 10H67.3366L68.3086 12.184H68.9086V10H70.7206V12.184H71.2966L72.3166 10H74.2246L72.8206 12.844L74.4166 16H72.4006L71.3206 13.684H70.7206V16H68.9086V13.684ZM75.2928 10H77.1048V13.612L79.4808 10H81.2808V16H79.4688V12.352L77.0928 16H75.2928V10ZM86.8374 13.744H84.5814V16H82.7814V10H84.5814V12.16H86.8374V10H88.6374V16H86.8374V13.744ZM90.3325 10.396C90.5325 10.244 90.8125 10.12 91.1725 10.024C91.5405 9.928 92.0085 9.88 92.5765 9.88C93.5685 9.88 94.2765 10.056 94.7005 10.408C95.1325 10.752 95.3485 11.296 95.3485 12.04V16H93.6445V14.92C93.5005 15.272 93.2645 15.556 92.9365 15.772C92.6085 15.988 92.2085 16.096 91.7365 16.096C91.1125 16.096 90.6405 15.928 90.3205 15.592C90.0005 15.248 89.8405 14.796 89.8405 14.236C89.8405 13.876 89.9005 13.58 90.0205 13.348C90.1485 13.116 90.3205 12.932 90.5365 12.796C90.7525 12.66 91.0085 12.564 91.3045 12.508C91.6005 12.452 91.9165 12.424 92.2525 12.424H93.5485V12.376C93.5485 12.04 93.4805 11.804 93.3445 11.668C93.2085 11.524 92.9525 11.452 92.5765 11.452C92.2565 11.452 91.9765 11.48 91.7365 11.536C91.5045 11.584 91.3005 11.656 91.1245 11.752C90.9565 11.84 90.8085 11.948 90.6805 12.076C90.5525 12.196 90.4365 12.332 90.3325 12.484V10.396ZM92.3605 14.512C92.7045 14.512 92.9805 14.448 93.1885 14.32C93.3965 14.192 93.5165 14.024 93.5485 13.816V13.468H92.5525C92.2645 13.468 92.0405 13.508 91.8805 13.588C91.7285 13.668 91.6525 13.804 91.6525 13.996C91.6525 14.34 91.8885 14.512 92.3605 14.512ZM100.625 11.584H99.0773L99.0173 12.64C98.9773 13.392 98.8933 13.996 98.7653 14.452C98.6373 14.9 98.4773 15.244 98.2853 15.484C98.1013 15.724 97.8933 15.884 97.6613 15.964C97.4293 16.036 97.1893 16.072 96.9413 16.072C96.8053 16.072 96.6733 16.064 96.5453 16.048C96.4173 16.032 96.3213 16.016 96.2573 16V14.188C96.3133 14.212 96.3653 14.228 96.4133 14.236C96.4693 14.244 96.5213 14.248 96.5693 14.248C96.6733 14.248 96.7733 14.228 96.8693 14.188C96.9653 14.14 97.0493 14.036 97.1213 13.876C97.2013 13.708 97.2653 13.46 97.3133 13.132C97.3693 12.804 97.4053 12.356 97.4213 11.788L97.4693 10H102.437V16H100.625V11.584ZM103.934 10H105.734V11.62H106.694C107.102 11.62 107.462 11.66 107.774 11.74C108.094 11.812 108.366 11.932 108.59 12.1C108.814 12.268 108.986 12.488 109.106 12.76C109.226 13.024 109.286 13.352 109.286 13.744C109.286 14.488 109.058 15.052 108.602 15.436C108.154 15.812 107.466 16 106.538 16H103.934V10ZM106.478 14.416C106.846 14.416 107.102 14.36 107.246 14.248C107.398 14.136 107.474 13.972 107.474 13.756C107.474 13.564 107.406 13.424 107.27 13.336C107.134 13.24 106.906 13.192 106.586 13.192H105.734V14.416H106.478ZM114.47 13.744H112.214V16H110.414V10H112.214V12.16H114.47V10H116.27V16H114.47V13.744ZM120.701 9.856C121.165 9.856 121.589 9.924 121.973 10.06C122.365 10.188 122.701 10.384 122.981 10.648C123.269 10.912 123.493 11.24 123.653 11.632C123.813 12.024 123.893 12.484 123.893 13.012C123.893 13.532 123.817 13.988 123.665 14.38C123.513 14.764 123.293 15.088 123.005 15.352C122.725 15.616 122.381 15.816 121.973 15.952C121.565 16.08 121.105 16.144 120.593 16.144C120.129 16.144 119.701 16.08 119.309 15.952C118.925 15.816 118.589 15.616 118.301 15.352C118.021 15.088 117.801 14.76 117.641 14.368C117.481 13.976 117.401 13.516 117.401 12.988C117.401 11.956 117.693 11.18 118.277 10.66C118.869 10.132 119.677 9.864 120.701 9.856ZM119.261 13.012C119.261 13.564 119.389 13.96 119.645 14.2C119.901 14.44 120.237 14.56 120.653 14.56C121.093 14.56 121.433 14.44 121.673 14.2C121.913 13.96 122.033 13.568 122.033 13.024V12.988C122.033 12.444 121.901 12.052 121.637 11.812C121.381 11.564 121.049 11.44 120.641 11.44C120.201 11.44 119.861 11.56 119.621 11.8C119.381 12.04 119.261 12.432 119.261 12.976V13.012ZM130.079 15.424C130.015 15.496 129.915 15.576 129.779 15.664C129.651 15.744 129.495 15.82 129.311 15.892C129.135 15.964 128.939 16.024 128.723 16.072C128.507 16.12 128.283 16.144 128.051 16.144C127.563 16.144 127.111 16.08 126.695 15.952C126.279 15.816 125.919 15.616 125.615 15.352C125.319 15.088 125.083 14.76 124.907 14.368C124.739 13.976 124.655 13.516 124.655 12.988C124.655 12.476 124.735 12.024 124.895 11.632C125.063 11.24 125.295 10.912 125.591 10.648C125.895 10.384 126.259 10.184 126.683 10.048C127.107 9.912 127.579 9.848 128.099 9.856C128.507 9.864 128.879 9.92 129.215 10.024C129.551 10.12 129.819 10.244 130.019 10.396V12.484C129.811 12.18 129.555 11.932 129.251 11.74C128.955 11.54 128.571 11.44 128.099 11.44C127.043 11.44 126.515 11.908 126.515 12.844V13.192C126.515 13.648 126.659 13.992 126.947 14.224C127.235 14.448 127.627 14.56 128.123 14.56C128.627 14.56 129.039 14.476 129.359 14.308C129.687 14.14 129.927 13.932 130.079 13.684V15.424ZM132.618 11.584H130.794V10H136.326V11.584H134.418V16H132.618V11.584ZM137.367 10H139.179V13.612L141.555 10H143.355V16H141.543V12.352L139.167 16H137.367V10ZM41.5425 26.584H39.3705V31H37.5705V25H43.3425V31H41.5425V26.584ZM44.8595 25H46.5515V26.212C46.5995 26.052 46.6715 25.896 46.7675 25.744C46.8715 25.584 47.0035 25.44 47.1635 25.312C47.3235 25.184 47.5155 25.084 47.7395 25.012C47.9715 24.932 48.2395 24.892 48.5435 24.892C48.9035 24.892 49.2395 24.948 49.5515 25.06C49.8715 25.172 50.1475 25.348 50.3795 25.588C50.6115 25.828 50.7915 26.136 50.9195 26.512C51.0555 26.888 51.1235 27.34 51.1235 27.868C51.1235 28.46 51.0555 28.964 50.9195 29.38C50.7915 29.788 50.6075 30.124 50.3675 30.388C50.1275 30.644 49.8395 30.832 49.5035 30.952C49.1755 31.072 48.8155 31.132 48.4235 31.132C47.9675 31.132 47.5955 31.04 47.3075 30.856C47.0195 30.664 46.8035 30.428 46.6595 30.148V33.472H44.8595V25ZM46.6595 28.144C46.6595 28.616 46.7715 28.968 46.9955 29.2C47.2195 29.432 47.5395 29.548 47.9555 29.548C48.4355 29.548 48.7795 29.428 48.9875 29.188C49.2035 28.94 49.3115 28.52 49.3115 27.928C49.3115 27.4 49.1915 27.028 48.9515 26.812C48.7195 26.588 48.4075 26.476 48.0155 26.476C47.5355 26.476 47.1915 26.588 46.9835 26.812C46.7835 27.036 46.6755 27.352 46.6595 27.76V28.144ZM55.17 24.856C55.634 24.856 56.058 24.924 56.442 25.06C56.834 25.188 57.17 25.384 57.45 25.648C57.738 25.912 57.962 26.24 58.122 26.632C58.282 27.024 58.362 27.484 58.362 28.012C58.362 28.532 58.286 28.988 58.134 29.38C57.982 29.764 57.762 30.088 57.474 30.352C57.194 30.616 56.85 30.816 56.442 30.952C56.034 31.08 55.574 31.144 55.062 31.144C54.598 31.144 54.17 31.08 53.778 30.952C53.394 30.816 53.058 30.616 52.77 30.352C52.49 30.088 52.27 29.76 52.11 29.368C51.95 28.976 51.87 28.516 51.87 27.988C51.87 26.956 52.162 26.18 52.746 25.66C53.338 25.132 54.146 24.864 55.17 24.856ZM53.73 28.012C53.73 28.564 53.858 28.96 54.114 29.2C54.37 29.44 54.706 29.56 55.122 29.56C55.562 29.56 55.902 29.44 56.142 29.2C56.382 28.96 56.502 28.568 56.502 28.024V27.988C56.502 27.444 56.37 27.052 56.106 26.812C55.85 26.564 55.518 26.44 55.11 26.44C54.67 26.44 54.33 26.56 54.09 26.8C53.85 27.04 53.73 27.432 53.73 27.976V28.012ZM59.4842 25H61.2962V28.612L63.6722 25H65.4722V31H63.6602V27.352L61.2842 31H59.4842V25ZM66.7088 28.672C66.8928 28.92 67.1808 29.128 67.5728 29.296C67.9728 29.456 68.4688 29.536 69.0608 29.536C69.4448 29.536 69.7368 29.504 69.9368 29.44C70.1368 29.368 70.2368 29.248 70.2368 29.08C70.2368 28.928 70.1688 28.812 70.0328 28.732C69.9048 28.652 69.6688 28.612 69.3248 28.612H68.1608V27.364H69.1448C69.4248 27.364 69.6368 27.332 69.7808 27.268C69.9328 27.196 70.0088 27.076 70.0088 26.908C70.0088 26.78 69.9368 26.672 69.7928 26.584C69.6568 26.496 69.4168 26.452 69.0728 26.452C68.5288 26.452 68.0848 26.548 67.7408 26.74C67.3968 26.932 67.1088 27.18 66.8768 27.484V25.396C67.1088 25.244 67.4168 25.12 67.8008 25.024C68.1848 24.928 68.6088 24.88 69.0728 24.88H69.1448C70.0648 24.88 70.7448 25.02 71.1848 25.3C71.6328 25.58 71.8568 25.96 71.8568 26.44C71.8568 26.824 71.7528 27.128 71.5448 27.352C71.3448 27.576 71.0928 27.744 70.7888 27.856C71.1968 27.936 71.5128 28.08 71.7368 28.288C71.9608 28.496 72.0728 28.804 72.0728 29.212C72.0728 29.812 71.8128 30.28 71.2928 30.616C70.7728 30.952 70.0288 31.12 69.0608 31.12C68.8128 31.12 68.5648 31.096 68.3168 31.048C68.0688 31 67.8368 30.94 67.6208 30.868C67.4128 30.796 67.2248 30.72 67.0568 30.64C66.8968 30.552 66.7808 30.472 66.7088 30.4V28.672ZM73.1486 25H76.5086C77.1886 25 77.6806 25.12 77.9846 25.36C78.2966 25.6 78.4526 25.956 78.4526 26.428C78.4526 26.772 78.3606 27.06 78.1766 27.292C78.0006 27.524 77.7486 27.68 77.4206 27.76C77.8046 27.808 78.1206 27.944 78.3686 28.168C78.6246 28.384 78.7526 28.736 78.7526 29.224C78.7526 29.784 78.5646 30.22 78.1886 30.532C77.8126 30.844 77.2406 31 76.4726 31H73.1486V25ZM76.2446 29.524C76.5006 29.524 76.6806 29.484 76.7846 29.404C76.8966 29.324 76.9526 29.196 76.9526 29.02C76.9526 28.86 76.8966 28.74 76.7846 28.66C76.6806 28.572 76.4926 28.528 76.2206 28.528H74.9486V29.524H76.2446ZM76.0406 27.376C76.2246 27.376 76.3686 27.34 76.4726 27.268C76.5846 27.196 76.6406 27.072 76.6406 26.896C76.6406 26.616 76.4206 26.476 75.9806 26.476L74.9486 26.488V27.376H76.0406ZM82.756 24.856C83.22 24.856 83.644 24.924 84.028 25.06C84.42 25.188 84.756 25.384 85.036 25.648C85.324 25.912 85.548 26.24 85.708 26.632C85.868 27.024 85.948 27.484 85.948 28.012C85.948 28.532 85.872 28.988 85.72 29.38C85.568 29.764 85.348 30.088 85.06 30.352C84.78 30.616 84.436 30.816 84.028 30.952C83.62 31.08 83.16 31.144 82.648 31.144C82.184 31.144 81.756 31.08 81.364 30.952C80.98 30.816 80.644 30.616 80.356 30.352C80.076 30.088 79.856 29.76 79.696 29.368C79.536 28.976 79.456 28.516 79.456 27.988C79.456 26.956 79.748 26.18 80.332 25.66C80.924 25.132 81.732 24.864 82.756 24.856ZM81.316 28.012C81.316 28.564 81.444 28.96 81.7 29.2C81.956 29.44 82.292 29.56 82.708 29.56C83.148 29.56 83.488 29.44 83.728 29.2C83.968 28.96 84.088 28.568 84.088 28.024V27.988C84.088 27.444 83.956 27.052 83.692 26.812C83.436 26.564 83.104 26.44 82.696 26.44C82.256 26.44 81.916 26.56 81.676 26.8C81.436 27.04 81.316 27.432 81.316 27.976V28.012ZM87.025 29.416C87.161 28.992 87.265 28.488 87.337 27.904C87.417 27.312 87.457 26.572 87.457 25.684V25H92.449V29.416H93.313V32.56H91.729V31H87.985V32.56H86.389V29.416H87.025ZM89.137 26.584C89.121 27.152 89.081 27.664 89.017 28.12C88.961 28.576 88.869 29.008 88.741 29.416H90.649V26.584H89.137ZM99.3178 30.424C99.2538 30.496 99.1538 30.576 99.0178 30.664C98.8898 30.744 98.7338 30.82 98.5498 30.892C98.3738 30.964 98.1778 31.024 97.9618 31.072C97.7458 31.12 97.5218 31.144 97.2898 31.144C96.8018 31.144 96.3498 31.08 95.9338 30.952C95.5178 30.816 95.1578 30.616 94.8538 30.352C94.5578 30.088 94.3218 29.76 94.1458 29.368C93.9778 28.976 93.8938 28.516 93.8938 27.988C93.8938 27.476 93.9738 27.024 94.1338 26.632C94.3018 26.24 94.5338 25.912 94.8298 25.648C95.1338 25.384 95.4978 25.184 95.9218 25.048C96.3458 24.912 96.8178 24.848 97.3378 24.856C97.7458 24.864 98.1178 24.92 98.4538 25.024C98.7898 25.12 99.0578 25.244 99.2578 25.396V27.484C99.0498 27.18 98.7938 26.932 98.4898 26.74C98.1938 26.54 97.8098 26.44 97.3378 26.44C96.2818 26.44 95.7538 26.908 95.7538 27.844V28.192C95.7538 28.648 95.8978 28.992 96.1858 29.224C96.4738 29.448 96.8658 29.56 97.3618 29.56C97.8658 29.56 98.2778 29.476 98.5978 29.308C98.9258 29.14 99.1658 28.932 99.3178 28.684V30.424ZM101.856 26.584H100.032V25H105.564V26.584H103.656V31H101.856V26.584ZM106.617 25H109.977C110.657 25 111.149 25.12 111.453 25.36C111.765 25.6 111.921 25.956 111.921 26.428C111.921 26.772 111.829 27.06 111.645 27.292C111.469 27.524 111.217 27.68 110.889 27.76C111.273 27.808 111.589 27.944 111.837 28.168C112.093 28.384 112.221 28.736 112.221 29.224C112.221 29.784 112.033 30.22 111.657 30.532C111.281 30.844 110.709 31 109.941 31H106.617V25ZM109.713 29.524C109.969 29.524 110.149 29.484 110.253 29.404C110.365 29.324 110.421 29.196 110.421 29.02C110.421 28.86 110.365 28.74 110.253 28.66C110.149 28.572 109.961 28.528 109.689 28.528H108.417V29.524H109.713ZM109.509 27.376C109.693 27.376 109.837 27.34 109.941 27.268C110.053 27.196 110.109 27.072 110.109 26.896C110.109 26.616 109.889 26.476 109.449 26.476L108.417 26.488V27.376H109.509ZM113.489 25.396C113.689 25.244 113.969 25.12 114.329 25.024C114.697 24.928 115.165 24.88 115.733 24.88C116.725 24.88 117.433 25.056 117.857 25.408C118.289 25.752 118.505 26.296 118.505 27.04V31H116.801V29.92C116.657 30.272 116.421 30.556 116.093 30.772C115.765 30.988 115.365 31.096 114.893 31.096C114.269 31.096 113.797 30.928 113.477 30.592C113.157 30.248 112.997 29.796 112.997 29.236C112.997 28.876 113.057 28.58 113.177 28.348C113.305 28.116 113.477 27.932 113.693 27.796C113.909 27.66 114.165 27.564 114.461 27.508C114.757 27.452 115.073 27.424 115.409 27.424H116.705V27.376C116.705 27.04 116.637 26.804 116.501 26.668C116.365 26.524 116.109 26.452 115.733 26.452C115.413 26.452 115.133 26.48 114.893 26.536C114.661 26.584 114.457 26.656 114.281 26.752C114.113 26.84 113.965 26.948 113.837 27.076C113.709 27.196 113.593 27.332 113.489 27.484V25.396ZM115.517 29.512C115.861 29.512 116.137 29.448 116.345 29.32C116.553 29.192 116.673 29.024 116.705 28.816V28.468H115.709C115.421 28.468 115.197 28.508 115.037 28.588C114.885 28.668 114.809 28.804 114.809 28.996C114.809 29.34 115.045 29.512 115.517 29.512Z" fill="white"/>
</svg>
