<svg width="47" height="52" viewBox="0 0 47 52" fill="none" xmlns="http://www.w3.org/2000/svg">
<path d="M47 44.7459H46.9282L47 44.8177C46.426 45.6796 45.5171 46.5414 44.2733 47.4033C43.0295 48.2173 41.5466 48.9595 39.8244 49.6298C38.1501 50.3002 36.3323 50.8508 34.371 51.2818C32.4097 51.7127 30.4483 51.9521 28.487 52C24.2774 52 20.4265 51.4254 16.9344 50.2762C13.4422 49.1271 10.4285 47.4512 7.89313 45.2486C5.4056 42.9982 3.46819 40.2689 2.08092 37.0608C0.693639 33.8048 0 30.0939 0 25.9282C0 22.0497 0.66972 18.5304 2.00916 15.3702C3.39644 12.2099 5.33384 9.5046 7.82137 7.25414C10.3089 4.9558 13.2748 3.18416 16.7191 1.93922C20.2112 0.646408 24.0621 0 28.2718 0C32.0987 0 35.3995 0.406995 38.174 1.22099C40.9486 2.03499 43.1969 2.94475 44.9191 3.95028V18.8177C44.1059 17.7643 43.1491 16.7587 42.0489 15.8011C40.9486 14.8435 39.6809 14.0055 38.2458 13.2873C36.8585 12.5212 35.3277 11.9226 33.6534 11.4917C31.9791 11.0129 30.1852 10.7735 28.2718 10.7735C25.8321 10.7735 23.6316 11.1565 21.6702 11.9227C19.7567 12.6409 18.1064 13.6703 16.7191 15.011C15.3796 16.3517 14.3511 17.9558 13.6336 19.8232C12.916 21.6906 12.5573 23.7495 12.5573 26C12.5573 28.1068 12.8921 30.07 13.5618 31.8895C14.2316 33.709 15.2361 35.3131 16.5756 36.7017C17.915 38.0902 19.5654 39.1915 21.5267 40.0055C23.5359 40.8195 25.856 41.2265 28.487 41.2265C30.0178 41.2265 31.4051 41.1068 32.6489 40.8674C33.8926 40.628 35.0646 40.2449 36.1649 39.7182V33.4696H26.9802V22.6961H47V44.7459Z" fill="#E2581D"/>
</svg>
