<svg width="320" height="298" viewBox="0 0 320 298" fill="none" xmlns="http://www.w3.org/2000/svg">
<path opacity="0.73" d="M320 0H0V298H320V0Z" fill="#C6DAF7"/>
<path d="M293.622 233.261C332.701 193.727 263.775 107.544 198.171 111.249C133.642 114.905 148.052 163.163 97.054 180.371C46.0558 197.578 29.0564 161.75 17.4304 191.631C8.78419 213.811 25.2951 227.655 34.3321 233.261C54.9463 231.018 105.309 229.459 164.172 229.459C222.693 229.459 272.812 231.018 293.622 233.261Z" fill="#C6DAF7"/>
<path d="M170.376 264.798C170.913 265.919 170.474 267.236 169.35 267.772C168.227 268.308 166.908 267.869 166.37 266.748C165.833 265.627 166.273 264.311 167.396 263.775C168.52 263.238 169.839 263.677 170.376 264.798Z" fill="white"/>
<mask id="mask0" mask-type="alpha" maskUnits="userSpaceOnUse" x="15" y="111" width="290" height="123">
<path d="M293.622 233.261C332.701 193.727 263.775 107.544 198.171 111.249C133.642 114.905 148.052 163.163 97.054 180.371C46.0558 197.578 29.0564 161.75 17.4304 191.631C8.78419 213.811 25.2951 227.655 34.3321 233.261C54.9463 231.018 105.309 229.459 164.172 229.459C222.693 229.459 272.812 231.018 293.622 233.261Z" fill="#C6DAF7"/>
</mask>
<g mask="url(#mask0)">
<path opacity="0.25" d="M253.126 125.726L250.146 121.924C247.655 123.825 244.577 125.287 241.353 126.408L207.257 116.415C205.45 113.686 203.984 110.761 203.202 107.836L198.513 109.103C200.858 117.926 208.527 126.457 213.119 130.99C204.082 132.697 191.625 137.084 186.545 148.49C180.537 162.091 191.967 175.203 199.246 181.784C184.347 183.052 173.6 189.974 169.692 200.893C166.224 210.545 169.106 221.561 177.068 228.971C178.192 229.994 179.218 231.067 180.292 232.09C168.471 235.015 160.753 238.769 160.313 239.012L162.463 243.351C162.511 243.302 164.514 242.327 167.982 241.011L193.482 248.128C197.243 253.636 199.148 257.439 199.197 257.536L203.544 255.391C203.398 255.099 201.884 252.076 198.953 247.543L199.05 247.202L198.611 247.104C196.364 243.692 193.384 239.549 189.623 235.113C192.114 234.674 194.703 234.284 197.389 234.04C200.858 233.699 204.131 232.724 207.062 231.262C213.363 228.142 218.199 222.78 220.3 216.15C223.524 206.109 220.202 195.287 211.263 185.879C221.13 184.465 234.563 180.176 237.641 167.55C238.911 162.237 238.227 157.119 236.566 152.488L236.762 151.805L236.224 151.659C233.391 144.444 228.262 138.497 224.452 134.744C228.115 134.403 243.894 132.794 253.126 125.726ZM197.243 142.69L231.339 152.683C232.756 156.046 233.586 159.605 233.342 163.309L190.893 150.684C190.941 150.587 190.941 150.538 190.99 150.44C192.407 147.272 194.605 144.737 197.243 142.69ZM191.186 245.008L171.842 239.597C175.212 238.476 179.315 237.209 184.054 236.185C186.838 239.256 189.183 242.278 191.186 245.008ZM196.852 229.214C192.944 229.604 189.232 230.189 185.812 230.872C184.151 229.068 182.344 227.265 180.39 225.461C176.971 222.244 174.724 218.246 173.698 214.054L208.869 224.389C205.547 227.021 201.395 228.727 196.852 229.214ZM215.659 214.688C214.731 217.662 213.119 220.294 210.969 222.487L173.209 211.422C172.916 208.448 173.209 205.426 174.235 202.55C175.359 199.43 177.166 196.749 179.609 194.458L216.343 205.231C216.831 208.4 216.636 211.617 215.659 214.688ZM215.757 202.501L181.856 192.557C186.545 189.096 192.944 187 200.565 186.513C201.053 186.513 202.665 186.561 204.912 186.464C210.53 191.485 214.193 196.993 215.757 202.501ZM206.427 181.492C203.691 179.396 195.289 172.474 191.528 164.138L227.334 174.813C221.423 179.493 212.337 181.004 206.427 181.492ZM229.434 172.864L190.502 161.262C189.72 158.581 189.476 155.802 190.16 152.975L233 165.747C232.951 165.942 232.951 166.185 232.903 166.38C232.268 168.964 231.046 171.109 229.434 172.864ZM199.783 140.935C205.694 137.327 212.826 135.816 217.759 135.183C220.251 137.279 226.113 142.738 229.923 149.758L199.783 140.935ZM219.225 130.162C217.955 129.041 213.461 124.897 209.455 119.633L237.104 127.676C229.972 129.528 223.475 129.918 223.475 129.967C223.23 129.918 221.618 129.918 219.225 130.162Z" fill="white"/>
<path opacity="0.25" d="M174.817 201.156L174.129 203.494L215.187 215.523L215.875 213.185L174.817 201.156Z" fill="white"/>
<path opacity="0.25" d="M68.1843 150.928H64.5695C64.5695 153.268 64.0321 155.754 63.2505 158.142L42.0013 173.839C39.5589 173.644 37.1653 173.205 35.0648 172.376L33.697 175.691C39.9985 178.274 48.4982 177.592 53.2365 176.91C50.1591 183.003 47.1793 192.362 51.6734 200.454C56.9979 210.155 69.9917 209.277 77.1236 207.961C71.164 217.32 70.4313 226.777 75.1208 234.04C79.273 240.426 87.1376 243.692 95.1 242.327C96.2235 242.132 97.2982 241.986 98.4217 241.84C94.8557 250.127 93.5856 256.415 93.4879 256.756L97.0051 257.439C97.0051 257.39 97.347 255.781 98.1286 253.149L113.858 241.304C118.792 241.547 121.918 242.132 122.016 242.132L122.7 238.622C122.455 238.574 119.964 238.086 115.958 237.794L115.812 237.55L115.568 237.745C112.539 237.55 108.729 237.453 104.381 237.648C105.261 235.99 106.189 234.284 107.263 232.578C108.631 230.384 109.51 227.996 109.999 225.607C110.976 220.489 109.999 215.224 107.019 210.983C102.525 204.549 94.6115 201.624 84.9883 202.696C88.6031 196.213 92.1202 186.366 86.0141 178.859C83.4251 175.691 80.1034 173.79 76.5863 172.717L76.2443 172.279L75.9024 172.522C70.3825 170.962 64.5206 171.304 60.5639 171.889C62.0782 169.598 68.2331 159.556 68.1843 150.928ZM53.0411 191.582L74.3392 175.935C76.9771 176.617 79.4683 177.738 81.5688 179.542L54.9462 198.943C54.8974 198.894 54.8974 198.845 54.8486 198.797C53.5785 196.506 53.09 194.02 53.0411 191.582ZM111.025 241.206L99.1056 250.175C99.936 247.689 101.06 244.667 102.574 241.401C105.651 241.206 108.485 241.157 111.025 241.206ZM104.186 230.774C102.672 233.26 101.353 235.698 100.18 238.038C98.3728 238.233 96.4677 238.476 94.5138 238.817C91.0944 239.402 87.6749 238.915 84.744 237.599L106.726 221.464C106.824 224.632 105.993 227.898 104.186 230.774ZM104.039 213.128C105.358 215.029 106.189 217.174 106.579 219.416L82.9855 236.721C81.0804 235.551 79.4195 233.992 78.1983 232.09C76.8794 230.043 76.0978 227.752 75.8047 225.315L98.7148 208.448C100.864 209.618 102.672 211.178 104.039 213.128ZM96.8585 207.62L75.707 223.121C75.8047 218.783 77.4167 214.054 80.543 209.326C80.7873 209.033 81.52 208.107 82.4481 206.742C87.968 205.719 92.9018 206.011 96.8585 207.62ZM80.2011 203.623C77.7098 204.305 69.8451 206.157 63.2017 204.597L85.6721 188.267C85.7698 193.873 82.5947 199.918 80.2011 203.623ZM85.4279 186.171L61.0035 203.915C59.0495 203.184 57.291 202.063 55.9232 200.405L82.7901 180.858C82.8878 180.956 83.0343 181.053 83.132 181.199C84.4021 182.71 85.1348 184.417 85.4279 186.171ZM53.1388 189.291C53.6762 184.173 55.9721 179.298 57.8283 176.081C60.1731 175.545 66.0838 174.521 71.9456 175.447L53.1388 189.291ZM55.5324 172.912C54.2624 173.156 49.8171 173.936 44.8834 173.936L62.127 161.213C60.0265 166.283 57.3398 170.28 57.3398 170.28C57.1933 170.475 56.4606 171.401 55.5324 172.912Z" fill="white"/>
<path opacity="0.25" d="M103.283 212.338L77.6349 231.182L78.7065 232.634L104.355 213.79L103.283 212.338Z" fill="white"/>
</g>
<path opacity="0.25" d="M158.457 133.428C158.848 134.257 158.506 135.232 157.724 135.671C156.894 136.061 155.917 135.719 155.477 134.94C155.086 134.111 155.428 133.136 156.21 132.697C157.04 132.307 158.017 132.648 158.457 133.428Z" fill="white"/>
<path opacity="0.25" d="M147.808 223.853C148.736 225.754 147.954 228.094 146.049 229.069C144.144 229.995 141.799 229.215 140.823 227.314C139.846 225.413 140.676 223.073 142.581 222.099C144.486 221.124 146.88 221.952 147.808 223.853Z" fill="white"/>
<path opacity="0.25" d="M251.074 197.773C252.051 199.675 251.221 202.014 249.316 202.989C247.411 203.916 245.066 203.136 244.089 201.234C243.161 199.333 243.942 196.994 245.848 196.019C247.801 195.092 250.146 195.872 251.074 197.773Z" fill="white"/>
<path opacity="0.25" d="M151.13 166.137C151.96 167.795 151.276 169.793 149.615 170.573C147.955 171.402 145.952 170.72 145.17 169.062C144.34 167.405 145.024 165.406 146.684 164.626C148.296 163.798 150.299 164.48 151.13 166.137Z" fill="white"/>
<path opacity="0.25" d="M222.351 244.765C222.889 245.886 222.449 247.202 221.325 247.739C220.202 248.275 218.883 247.836 218.346 246.715C217.808 245.594 218.248 244.278 219.371 243.741C220.446 243.205 221.765 243.644 222.351 244.765Z" fill="white"/>
<path opacity="0.25" d="M269.49 127.434C270.565 129.627 269.686 132.308 267.487 133.381C265.289 134.453 262.602 133.576 261.528 131.382C260.453 129.189 261.332 126.507 263.531 125.435C265.729 124.363 268.415 125.24 269.49 127.434Z" fill="white"/>
<path opacity="0.25" d="M167.006 170.671C167.543 171.792 167.103 173.109 165.98 173.645C164.856 174.181 163.537 173.742 163 172.621C162.463 171.5 162.902 170.184 164.026 169.648C165.1 169.111 166.419 169.55 167.006 170.671Z" fill="white"/>
<path opacity="0.25" d="M161.925 219.173C162.316 220.002 161.974 220.977 161.192 221.416C160.362 221.806 159.385 221.464 158.945 220.685C158.555 219.856 158.896 218.881 159.678 218.442C160.508 218.052 161.534 218.345 161.925 219.173Z" fill="white"/>
<path opacity="0.25" d="M248.485 167.552C249.023 168.673 248.583 169.989 247.459 170.526C246.336 171.062 245.017 170.623 244.48 169.502C243.942 168.381 244.382 167.065 245.505 166.528C246.58 165.992 247.948 166.431 248.485 167.552Z" fill="white"/>
<path opacity="0.25" d="M233.831 220.538C234.661 222.195 233.977 224.194 232.316 224.974C230.655 225.802 228.653 225.12 227.871 223.463C227.041 221.805 227.725 219.807 229.385 219.027C231.046 218.198 233.049 218.88 233.831 220.538Z" fill="white"/>
<path opacity="0.25" d="M272.079 225.122C272.617 226.243 272.177 227.56 271.054 228.096C269.93 228.632 268.611 228.193 268.074 227.072C267.537 225.951 267.976 224.635 269.1 224.099C270.223 223.611 271.542 224.05 272.079 225.122Z" fill="white"/>
<path opacity="0.25" d="M30.0822 210.303C30.766 210.449 31.2057 211.083 31.0591 211.765C30.9126 212.447 30.2776 212.886 29.5937 212.74C28.9098 212.594 28.4701 211.96 28.6167 211.278C28.7632 210.644 29.4471 210.205 30.0822 210.303Z" fill="white"/>
<path d="M78.931 257.341C80.4942 257.633 81.52 259.145 81.2269 260.704C80.9338 262.264 79.4195 263.288 77.8564 262.996C76.2932 262.703 75.2674 261.192 75.5605 259.632C75.8536 258.023 77.3679 257 78.931 257.341Z" fill="white"/>
<path opacity="0.25" d="M109.999 184.564C111.562 184.856 112.588 186.367 112.295 187.927C112.002 189.487 110.487 190.511 108.924 190.218C107.361 189.926 106.335 188.415 106.628 186.855C106.921 185.295 108.436 184.271 109.999 184.564Z" fill="white"/>
<path opacity="0.25" d="M46.2024 229.361C47.5701 229.605 48.4494 230.921 48.1563 232.237C47.9121 233.602 46.5931 234.479 45.2742 234.187C43.9065 233.943 43.0272 232.627 43.3203 231.311C43.5157 229.995 44.8346 229.117 46.2024 229.361Z" fill="white"/>
<path opacity="0.25" d="M124.898 222.731C125.777 222.926 126.363 223.755 126.217 224.681C126.021 225.558 125.191 226.143 124.263 225.997C123.383 225.802 122.797 224.973 122.944 224.047C123.139 223.121 124.019 222.536 124.898 222.731Z" fill="white"/>
<path opacity="0.25" d="M76.5864 142.006C78.3938 142.348 79.5661 144.102 79.2242 145.857C78.8823 147.661 77.1237 148.831 75.3652 148.49C73.5578 148.148 72.3854 146.394 72.7273 144.639C73.0693 142.835 74.779 141.665 76.5864 142.006Z" fill="white"/>
<path opacity="0.25" d="M56.021 222.049C56.9002 222.244 57.4864 223.073 57.3399 223.999C57.1445 224.876 56.314 225.461 55.3859 225.315C54.5066 225.12 53.9205 224.292 54.067 223.365C54.2624 222.439 55.1417 221.854 56.021 222.049Z" fill="white"/>
<path d="M113.369 262.411C114.249 262.606 114.835 263.435 114.688 264.361C114.493 265.238 113.663 265.823 112.734 265.677C111.855 265.482 111.269 264.653 111.416 263.727C111.611 262.85 112.49 262.265 113.369 262.411Z" fill="white"/>
<path opacity="0.25" d="M82.4971 246.909C83.1809 247.055 83.6206 247.689 83.474 248.371C83.3275 249.054 82.6925 249.493 82.0086 249.346C81.3247 249.2 80.8851 248.566 81.0316 247.884C81.1781 247.201 81.862 246.763 82.4971 246.909Z" fill="white"/>
<path opacity="0.25" d="M90.8502 172.474C91.7294 172.669 92.3156 173.497 92.1691 174.423C91.9737 175.301 91.1433 175.886 90.2151 175.74C89.3359 175.545 88.7497 174.716 88.8962 173.79C89.0916 172.912 89.9709 172.327 90.8502 172.474Z" fill="white"/>
<path opacity="0.25" d="M115.714 204.988C117.082 205.232 117.961 206.548 117.668 207.864C117.424 209.229 116.105 210.106 114.786 209.814C113.418 209.57 112.539 208.254 112.832 206.938C113.076 205.622 114.346 204.744 115.714 204.988Z" fill="white"/>
<path opacity="0.25" d="M135.693 184.514C136.573 184.709 137.159 185.538 137.012 186.464C136.817 187.341 135.987 187.926 135.058 187.78C134.179 187.585 133.593 186.756 133.739 185.83C133.935 184.904 134.765 184.319 135.693 184.514Z" fill="white"/>
<path opacity="0.73" d="M293.622 233.259C272.812 231.066 222.693 229.506 164.123 229.506C105.261 229.506 54.8975 231.066 34.2833 233.308C27.8841 233.991 24.3181 234.77 24.3181 235.55C24.3181 238.865 86.8934 241.595 164.075 241.595C241.256 241.595 303.831 238.865 303.831 235.55C303.929 234.722 300.265 233.942 293.622 233.259Z" fill="#A6C1E2"/>
<path d="M65.7744 201.099L49.7766 234.799L50.7919 235.279L66.7897 201.579L65.7744 201.099Z" fill="#254E70"/>
<path d="M43.1063 201.095L27.1085 234.795L28.1238 235.275L44.1217 201.575L43.1063 201.095Z" fill="#254E70"/>
<path d="M61.2967 211.521H38.6309V212.643H61.2967V211.521Z" fill="#254E70"/>
<path d="M55.8744 221.953H33.2086V223.074H55.8744V221.953Z" fill="#254E70"/>
<path d="M65.5465 114.368C65.5465 114.368 68.917 112.808 69.3567 111.638C69.7475 110.468 70.1871 107.592 63.7879 107.641C63.7879 107.641 62.5667 105.058 59.0007 106.374C56.4118 107.349 52.455 111.979 52.5527 118.122C52.6504 124.264 44.5903 121.436 45.0788 130.259C45.3231 134.549 60.4174 150.343 64.3253 132.989C66.5234 123.24 62.469 118.609 65.5465 114.368Z" fill="#453E6B"/>
<path d="M131.394 221.024L145.413 196.943L153.62 182.855C155.183 180.126 156.014 177.055 156.062 173.935L156.111 157.995H154.255C152.741 157.995 151.422 156.825 151.373 155.314C151.324 153.754 152.594 152.486 154.157 152.486L172.671 152.535C174.185 152.535 175.504 153.705 175.553 155.216C175.602 156.776 174.332 158.043 172.769 158.043H170.375L170.326 173.983C170.326 177.103 171.157 180.223 172.72 182.953L180.829 197.041L194.751 221.219C196.412 224.095 194.311 227.653 191.038 227.653L163.097 227.605L135.155 227.556C131.785 227.458 129.733 223.9 131.394 221.024Z" fill="#E9F3FF"/>
<path d="M190.941 227.752L135.107 227.655C133.495 227.655 132.03 226.826 131.248 225.412C130.418 223.999 130.467 222.341 131.248 220.928L131.395 221.025L131.248 220.928L153.426 182.759C154.989 180.078 155.819 177.007 155.819 173.936L155.868 158.142H154.207C152.546 158.142 151.179 156.875 151.13 155.266C151.13 154.438 151.423 153.707 151.96 153.122C152.497 152.537 153.279 152.244 154.061 152.244L172.574 152.293C174.235 152.293 175.603 153.56 175.652 155.169C175.652 155.998 175.359 156.729 174.821 157.314C174.284 157.899 173.502 158.191 172.721 158.191H170.523L170.474 173.985C170.474 177.105 171.304 180.127 172.819 182.857L194.849 221.123C195.68 222.536 195.631 224.194 194.849 225.607C194.019 226.924 192.553 227.752 190.941 227.752ZM154.061 152.585C153.377 152.585 152.693 152.878 152.204 153.365C151.716 153.853 151.472 154.535 151.472 155.266C151.52 156.631 152.742 157.752 154.158 157.801H156.21L156.161 173.936C156.161 177.105 155.331 180.225 153.719 182.954L131.541 221.123C130.809 222.39 130.809 223.95 131.541 225.217C132.274 226.485 133.593 227.265 135.107 227.265L190.941 227.362C192.407 227.362 193.775 226.582 194.507 225.315C195.24 224.048 195.24 222.488 194.507 221.22L172.477 182.954C170.913 180.225 170.083 177.105 170.083 173.936L170.132 157.801H172.672C173.356 157.801 174.04 157.509 174.528 157.021C175.017 156.534 175.261 155.851 175.261 155.12C175.212 153.755 173.991 152.634 172.574 152.585H154.061Z" fill="#F0F8FF"/>
<path opacity="0.7" d="M165.296 205.183C156.259 207.084 148.345 206.547 142.532 205.426L133.349 220.635C131.786 223.219 133.739 226.436 136.817 226.436L162.951 226.485L189.085 226.533C192.163 226.533 194.117 223.316 192.602 220.733L182.784 204.305C178.094 203.769 172.232 203.72 165.296 205.183Z" fill="#E2581D"/>
<path d="M142.923 210.982C143.328 210.982 143.656 210.655 143.656 210.251C143.656 209.847 143.328 209.52 142.923 209.52C142.518 209.52 142.19 209.847 142.19 210.251C142.19 210.655 142.518 210.982 142.923 210.982Z" fill="#E2581D"/>
<path d="M164.172 212.641C164.82 212.641 165.345 212.117 165.345 211.471C165.345 210.825 164.82 210.301 164.172 210.301C163.525 210.301 163 210.825 163 211.471C163 212.117 163.525 212.641 164.172 212.641Z" fill="#E2581D"/>
<path d="M149.664 222.292C150.474 222.292 151.13 221.637 151.13 220.83C151.13 220.022 150.474 219.367 149.664 219.367C148.855 219.367 148.199 220.022 148.199 220.83C148.199 221.637 148.855 222.292 149.664 222.292Z" fill="#E2581D"/>
<path d="M154.793 209.471C154.793 210.007 154.354 210.495 153.768 210.495C153.23 210.495 152.742 210.056 152.742 209.471C152.742 208.935 153.181 208.447 153.768 208.447C154.354 208.447 154.793 208.886 154.793 209.471Z" fill="#E2581D"/>
<path d="M179.56 218.781C180.558 218.781 181.367 217.974 181.367 216.977C181.367 215.981 180.558 215.174 179.56 215.174C178.561 215.174 177.752 215.981 177.752 216.977C177.752 217.974 178.561 218.781 179.56 218.781Z" fill="#E2581D"/>
<path d="M161.535 223.364C162.344 223.364 163 222.709 163 221.902C163 221.094 162.344 220.439 161.535 220.439C160.725 220.439 160.069 221.094 160.069 221.902C160.069 222.709 160.725 223.364 161.535 223.364Z" fill="#E2581D"/>
<path d="M175.554 207.521C175.554 208.204 174.968 208.789 174.284 208.789C173.6 208.789 173.014 208.204 173.014 207.521C173.014 206.839 173.6 206.254 174.284 206.254C174.968 206.254 175.554 206.839 175.554 207.521Z" fill="#E2581D"/>
<path d="M174.284 226.483C175.093 226.483 175.75 225.829 175.75 225.021C175.75 224.213 175.093 223.559 174.284 223.559C173.475 223.559 172.819 224.213 172.819 225.021C172.819 225.829 173.475 226.483 174.284 226.483Z" fill="#E2581D"/>
<path d="M171.402 214.834C171.402 215.419 170.914 215.906 170.327 215.906C169.741 215.906 169.253 215.419 169.253 214.834C169.253 214.249 169.741 213.761 170.327 213.761C170.914 213.712 171.402 214.2 171.402 214.834Z" fill="#E2581D"/>
<path d="M141.116 223.655C141.116 224.289 140.578 224.825 139.943 224.825C139.308 224.825 138.771 224.289 138.771 223.655C138.771 223.022 139.308 222.486 139.943 222.486C140.578 222.437 141.116 222.973 141.116 223.655Z" fill="#E2581D"/>
<path d="M154.695 216.442C155.559 216.442 156.259 215.744 156.259 214.882C156.259 214.021 155.559 213.322 154.695 213.322C153.832 213.322 153.132 214.021 153.132 214.882C153.132 215.744 153.832 216.442 154.695 216.442Z" fill="#E2581D"/>
<path d="M184.298 221.17C184.298 220.683 184.689 220.244 185.226 220.244C185.715 220.244 186.154 220.634 186.154 221.17C186.154 221.707 185.764 222.097 185.226 222.097C184.738 222.097 184.298 221.707 184.298 221.17Z" fill="#E2581D"/>
<g opacity="0.33">
<path opacity="0.33" d="M142.728 216.736C146.245 209.716 149.713 202.697 153.23 195.678C154.598 192.899 156.015 190.12 157.382 187.342C159.092 183.93 159.971 180.225 159.971 176.423C159.971 175.107 159.971 173.839 159.971 172.523C159.971 168.087 159.971 163.602 159.971 159.166C159.971 157.997 158.164 157.997 158.164 159.166C158.164 162.969 158.164 166.771 158.164 170.573C158.164 172.426 158.164 174.278 158.164 176.081C158.164 179.64 157.431 183.15 155.868 186.367C152.449 193.289 148.98 200.211 145.512 207.133C144.047 210.058 142.63 212.934 141.165 215.859C140.627 216.833 142.19 217.76 142.728 216.736Z" fill="#F0F8FF"/>
</g>
<path d="M274.912 208.107C275.352 208.741 276.671 232.676 276.671 232.676H279.944L280.579 215.078L274.912 208.107Z" fill="#4C5E9E"/>
<path d="M280.237 235.308H271.982C271.689 235.308 271.64 234.918 271.884 234.821L276.671 232.676H279.944L280.53 234.967C280.53 235.162 280.384 235.308 280.237 235.308Z" fill="#453E6B"/>
<path d="M268.367 208.107C268.806 208.741 266.608 232.676 266.608 232.676H269.881L274.033 208.985L268.367 208.107Z" fill="#4C5E9E"/>
<path d="M270.223 235.308H261.967C261.674 235.308 261.626 234.918 261.87 234.821L266.657 232.676H269.93L270.516 234.967C270.516 235.162 270.37 235.308 270.223 235.308Z" fill="#453E6B"/>
<path d="M272.421 155.852C272.421 155.852 266.413 157.07 264.459 169.013L268.367 169.891L271.933 163.895L272.421 155.852Z" fill="#F0F3FF"/>
<path d="M275.548 151.366C275.548 151.366 274.668 154.827 272.91 155.948C271.151 157.02 272.275 171.157 272.275 171.157L279.26 164.869L279.895 156.63L278.723 154.876C278.723 154.876 277.257 152.487 278.576 149.416C279.895 146.394 275.548 151.366 275.548 151.366Z" fill="#FBE0D0"/>
<path opacity="0.7" d="M272.959 154.194C272.959 154.194 274.033 157.46 280.139 154.194C286.245 150.928 284.487 160.726 284.487 160.726L276.622 168.769L272.03 170.134L270.516 167.453L272.959 154.194Z" fill="#E2581D"/>
<path opacity="0.31" d="M274.668 151.805C274.668 151.805 276.72 153.024 279.7 149.563C282.728 146.15 274.229 147.905 274.668 151.805Z" fill="#FBE0D0"/>
<path d="M278.381 154.875L272.958 167.939L274.033 154.875C274.033 154.875 266.95 155.947 266.95 177.152C266.95 198.357 262.7 215.954 262.7 215.954C262.7 215.954 268.709 213.224 275.206 214.882C281.751 216.49 286.099 214.882 286.099 214.882L280.97 179.882L283.266 165.745C283.266 165.745 286.539 157.605 278.381 154.875Z" fill="#F0F3FF"/>
<path opacity="0.3" d="M278.967 155.947C278.967 155.947 283.363 155.606 287.271 163.99C291.228 172.326 291.717 175.202 290.642 175.69C289.518 176.177 284.047 180.564 273.984 177.737L275.254 173.983C275.254 173.983 276.476 175.543 282.582 174.178C282.582 174.178 283.754 165.55 280.628 162.674C277.453 159.798 278.967 155.947 278.967 155.947Z" fill="#E1E9FF"/>
<path opacity="0.3" d="M269.881 181.393C269.881 181.393 268.122 214.443 267.048 220.097C266.022 225.459 268.367 220.097 268.367 220.097L269.881 181.393Z" fill="#E1E9FF"/>
<path d="M280.432 146.882C279.602 149.953 277.159 151.951 275.01 151.366C272.861 150.781 271.786 147.808 272.665 144.737C273.496 141.666 275.938 139.667 278.087 140.252C280.188 140.886 281.263 143.811 280.432 146.882Z" fill="#FBE0D0"/>
<path d="M274.033 154.633L271.346 156.631L272.958 167.697L274.033 154.633Z" fill="#E1E9FF"/>
<path d="M276.866 145.127C276.622 145.955 276.036 146.491 275.499 146.345C274.961 146.199 274.717 145.419 274.913 144.59C275.157 143.762 275.743 143.225 276.28 143.372C276.818 143.518 277.111 144.298 276.866 145.127Z" stroke="#453E6B" stroke-width="0.4029" stroke-miterlimit="10"/>
<path d="M274.375 144.443C274.131 145.272 273.545 145.808 273.007 145.662C272.47 145.515 272.226 144.735 272.421 143.907C272.665 143.078 273.252 142.542 273.789 142.688C274.326 142.834 274.619 143.614 274.375 144.443Z" stroke="#453E6B" stroke-width="0.4029" stroke-miterlimit="10"/>
<path d="M276.964 145.176L280.041 146.492" stroke="#453E6B" stroke-width="0.4029" stroke-miterlimit="10"/>
<path d="M274.424 144.201C274.424 144.201 274.864 144.104 274.961 144.396" stroke="#453E6B" stroke-width="0.4029" stroke-miterlimit="10"/>
<path d="M279.358 146.93C279.358 146.93 278.918 146.297 279.358 145.175C279.797 144.103 278.381 141.812 275.303 141.568C272.274 141.373 272.665 138.936 273.105 138.107C273.544 137.23 275.401 136.06 276.915 137.132C278.429 138.205 279.309 140.593 281.8 141.373C284.633 142.251 283.998 149.416 279.016 149.563C279.113 149.611 280.237 147.564 279.358 146.93Z" fill="#453E6B"/>
<path d="M280.628 147.418C280.432 147.856 279.993 148.1 279.7 147.954C279.358 147.808 279.26 147.32 279.455 146.881C279.651 146.443 280.09 146.199 280.383 146.345C280.677 146.491 280.823 146.979 280.628 147.418Z" fill="#FBE0D0"/>
<path d="M262.065 167.453L272.665 166.283L274.229 181.59L265.973 182.711L262.065 167.453Z" fill="#F3B36A"/>
<path d="M269.295 174.13C269.002 174.179 268.66 174.032 268.269 173.74C267.781 173.35 267.292 172.765 266.901 172.083C266.51 171.4 266.217 170.669 266.12 170.084C266.022 169.45 266.12 169.012 266.413 168.865C266.706 168.719 267.146 168.817 267.634 169.207C268.123 169.597 268.611 170.181 269.002 170.864C269.393 171.546 269.686 172.278 269.783 172.863C269.881 173.496 269.783 173.935 269.49 174.081C269.441 174.13 269.393 174.13 269.295 174.13ZM266.657 168.865C266.608 168.865 266.559 168.914 266.51 168.914C266.266 169.06 266.168 169.45 266.266 170.035C266.364 170.62 266.657 171.351 267.048 172.034C267.439 172.716 267.927 173.301 268.416 173.691C268.855 174.081 269.295 174.179 269.539 174.032C269.783 173.886 269.881 173.496 269.783 172.911C269.686 172.326 269.393 171.595 269.002 170.913C268.611 170.23 268.123 169.645 267.634 169.255C267.194 168.963 266.901 168.817 266.657 168.865Z" fill="#F0F3FF"/>
<path d="M269.392 172.668C268.904 172.717 268.416 172.717 267.878 172.668C267.097 172.571 266.315 172.424 265.778 172.132C265.24 171.839 264.947 171.498 264.947 171.206C264.996 170.864 265.338 170.621 265.924 170.426C266.51 170.279 267.292 170.182 268.074 170.279C268.855 170.377 269.637 170.523 270.174 170.816C270.711 171.108 271.004 171.449 271.004 171.742C270.956 172.083 270.614 172.327 270.028 172.522C269.832 172.571 269.637 172.619 269.392 172.668ZM266.559 170.377C266.364 170.426 266.12 170.426 265.924 170.523C265.338 170.669 265.045 170.913 264.996 171.206C264.947 171.498 265.24 171.791 265.778 172.083C266.315 172.376 267.048 172.522 267.829 172.619C268.611 172.717 269.392 172.619 269.979 172.473C270.565 172.327 270.858 172.083 270.907 171.791C270.956 171.498 270.663 171.206 270.125 170.913C269.588 170.621 268.855 170.474 268.074 170.377C267.536 170.279 266.999 170.279 266.559 170.377Z" fill="#F0F3FF"/>
<path d="M266.999 174.276C266.901 174.276 266.755 174.276 266.657 174.227C266.364 174.081 266.217 173.642 266.266 173.057C266.315 172.424 266.51 171.692 266.852 170.961H266.901H266.852C267.194 170.23 267.634 169.596 268.073 169.158C268.513 168.719 268.953 168.573 269.246 168.719C269.539 168.865 269.685 169.304 269.637 169.889C269.588 170.523 269.392 171.254 269.05 171.985C268.709 172.716 268.269 173.35 267.829 173.789C267.536 174.032 267.243 174.227 266.999 174.276ZM268.953 168.768C268.709 168.816 268.464 168.963 268.171 169.255C267.732 169.645 267.292 170.279 266.95 171.01C266.608 171.741 266.413 172.472 266.364 173.057C266.315 173.642 266.461 174.032 266.706 174.179C266.95 174.325 267.341 174.13 267.78 173.74C268.22 173.35 268.66 172.716 269.002 171.985C269.344 171.254 269.539 170.523 269.588 169.938C269.637 169.353 269.49 168.963 269.246 168.816C269.148 168.768 269.05 168.719 268.953 168.768Z" fill="#F0F3FF"/>
<path d="M268.318 171.35C268.416 171.545 268.367 171.74 268.171 171.837C267.976 171.935 267.781 171.886 267.683 171.691C267.585 171.496 267.634 171.301 267.829 171.203C268.025 171.106 268.22 171.203 268.318 171.35Z" fill="#F0F3FF"/>
<path d="M275.987 173.984L274.473 173.107C274.473 173.107 272.714 173.107 271.835 172.668C271.151 172.327 271.2 177.64 273.886 176.227L276.622 175.495L275.987 173.984Z" fill="#FBE0D0"/>
<path d="M278.381 154.876C278.381 154.876 282.728 154.34 287.076 162.481C291.423 170.621 292.107 173.449 290.984 173.985C289.909 174.521 284.682 179.201 274.424 176.861L275.499 173.059C275.499 173.059 279.944 173.205 285.952 171.596C285.952 171.596 283.754 166.283 280.481 163.553C277.306 160.872 278.381 154.876 278.381 154.876Z" fill="#F0F3FF"/>
<path d="M278.478 154.34C278.381 154.437 280.53 158.142 280.53 158.142L272.91 167.94L278.478 154.34Z" fill="#E1E9FF"/>
<path d="M263.14 174.423C263.14 174.423 262.944 177.251 263.775 177.251C264.654 177.251 265.973 178.323 266.168 177.251C266.413 176.178 265.973 171.596 263.14 174.423Z" fill="#FBE0D0"/>
<path d="M54.409 173.742C53.9694 174.376 52.3085 198.895 52.3085 198.895H50.1103L48.7914 180.713L54.409 173.742Z" fill="#FBE0D0"/>
<path d="M49.6218 200.6H55.8744C56.0698 200.6 56.1675 200.308 55.9721 200.21L52.3573 198.602H49.866L49.4264 200.356C49.4264 200.503 49.4752 200.6 49.6218 200.6Z" fill="#453E6B"/>
<path d="M61.9806 173.742C61.5409 174.376 59.8801 198.895 59.8801 198.895H57.633L56.3141 180.713L61.9806 173.742Z" fill="#FBE0D0"/>
<path d="M57.1935 200.6H63.4461C63.6415 200.6 63.7392 200.308 63.5438 200.21L59.929 198.602H57.4377L56.9981 200.356C56.9492 200.503 57.0469 200.6 57.1935 200.6Z" fill="#453E6B"/>
<path d="M61.4432 123.824C61.4432 123.824 67.2073 125.872 67.4516 137.961L63.446 138.253L60.7593 131.819L61.4432 123.824Z" fill="#F0F3FF"/>
<path d="M59.9778 119.731C59.9778 119.731 59.6359 123.29 60.8571 124.898C62.1271 126.507 56.2653 139.425 56.2653 139.425L51.8689 131.138L54.0671 123.143L55.728 121.925C55.728 121.925 57.9261 120.17 57.7308 116.855C57.5842 113.54 59.9778 119.731 59.9778 119.731Z" fill="#FBE0D0"/>
<path opacity="0.7" d="M61.4921 123.291C61.4921 123.291 59.3427 125.972 54.751 120.853C50.1103 115.735 48.4495 125.533 48.4495 125.533L53.0901 135.77L56.9003 138.597L59.245 136.598L61.4921 123.291Z" fill="#E2581D"/>
<path opacity="0.31" d="M60.6616 120.414C60.6616 120.414 58.3169 120.852 56.656 116.611C54.9952 112.37 62.3714 116.904 60.6616 120.414Z" fill="#FBE0D0"/>
<path d="M55.6302 122.021L59.1961 135.719L59.9777 122.655C59.9777 122.655 64.7161 124.508 63.8368 145.712C62.9575 167.161 66.3281 182.028 66.3281 182.028C66.3281 182.028 60.8082 180.907 54.1159 181.59C47.4236 182.272 42.5387 181.346 42.5387 181.346L49.5241 146.395L49.2798 132.112C49.2798 132.112 47.1793 123.581 55.6302 122.021Z" fill="#F0F3FF"/>
<path opacity="0.3" d="M54.9463 123.045C54.9463 123.045 50.6476 122.118 45.5673 129.82C40.4871 137.522 39.5589 140.301 40.5848 140.934C41.6106 141.568 46.3978 146.687 56.8026 145.322L56.0698 141.422C56.0698 141.422 54.6044 142.787 48.7914 140.593C48.7914 140.593 48.8402 131.868 52.3573 129.479C55.8744 127.091 54.9463 123.045 54.9463 123.045Z" fill="#E1E9FF"/>
<path opacity="0.3" d="M60.3197 149.467C60.3197 149.467 57.3887 182.419 57.6818 188.171C57.9261 193.631 56.4117 187.976 56.4117 187.976L60.3197 149.467Z" fill="#E1E9FF"/>
<path d="M58.7565 112.222C56.9003 114.806 56.9003 117.974 58.7077 119.241C60.5151 120.509 63.4948 119.436 65.3511 116.853C67.2074 114.269 67.2074 111.101 65.3999 109.833C63.5437 108.566 60.6128 109.638 58.7565 112.222Z" fill="#FBE0D0"/>
<path d="M59.9777 122.41L62.3713 124.75L59.245 135.474L59.9777 122.41Z" fill="#E1E9FF"/>
<path d="M62.4201 113.832C61.9317 114.515 61.8828 115.344 62.3713 115.685C62.8109 116.026 63.5925 115.685 64.081 115.002C64.5695 114.32 64.6183 113.491 64.1298 113.15C63.6414 112.858 62.9086 113.15 62.4201 113.832Z" stroke="#453E6B" stroke-width="0.4029" stroke-miterlimit="10"/>
<path d="M64.4718 115.344C63.9833 116.026 63.9344 116.855 64.4229 117.196C64.8626 117.537 65.6442 117.196 66.1326 116.514C66.6211 115.831 66.67 115.002 66.1815 114.661C65.693 114.32 65.0091 114.661 64.4718 115.344Z" stroke="#453E6B" stroke-width="0.4029" stroke-miterlimit="10"/>
<path d="M62.2737 113.833L59.3428 112.273" stroke="#453E6B" stroke-width="0.4029" stroke-miterlimit="10"/>
<path d="M64.6673 115.148C64.6673 115.148 64.4719 114.758 64.1788 114.855" stroke="#453E6B" stroke-width="0.4029" stroke-miterlimit="10"/>
<path d="M57.3399 113.101C57.3888 113.784 57.8284 114.32 58.3658 114.32C58.9031 114.271 59.2939 113.686 59.245 113.004C59.1962 112.321 58.7566 111.785 58.2192 111.785C57.6819 111.785 57.2911 112.37 57.3399 113.101Z" fill="#FBE0D0"/>
<path d="M70.0405 136.791L59.6846 134.158L55.972 149.075L64.0321 151.317L70.0405 136.791Z" fill="#F3B36A"/>
<path d="M61.7363 142.298C61.4921 142.103 61.4432 141.665 61.6386 141.031C61.834 140.446 62.176 139.764 62.7133 139.13C63.2018 138.496 63.788 137.96 64.3253 137.668C64.8627 137.375 65.3023 137.278 65.5465 137.473C65.7908 137.668 65.8396 138.106 65.6442 138.74C65.4488 139.325 65.1069 140.007 64.5696 140.641C64.0811 141.275 63.4949 141.811 62.9576 142.103C62.5179 142.347 62.176 142.445 61.8829 142.347C61.834 142.396 61.7852 142.347 61.7363 142.298ZM64.3253 137.814C63.788 138.106 63.2507 138.642 62.7622 139.227C62.2737 139.861 61.8829 140.495 61.7363 141.08C61.5409 141.665 61.5898 142.055 61.834 142.25C62.0783 142.445 62.4691 142.347 62.9576 142.055C63.4949 141.762 64.0322 141.226 64.5207 140.641C65.0092 140.007 65.4 139.374 65.5465 138.789C65.7419 138.204 65.6931 137.814 65.4489 137.619C65.4 137.57 65.3512 137.57 65.3023 137.521C65.0581 137.473 64.7161 137.57 64.3253 137.814Z" fill="#F0F3FF"/>
<path d="M61.4432 140.691C60.8571 140.447 60.564 140.106 60.564 139.765C60.564 139.423 60.9059 139.131 61.4921 138.936C62.0783 138.741 62.8599 138.643 63.6414 138.692C64.4719 138.741 65.2046 138.887 65.7419 139.131C66.3281 139.375 66.6212 139.716 66.6212 140.057C66.6212 140.398 66.2793 140.691 65.6931 140.886C65.1069 141.081 64.3253 141.178 63.5437 141.129C63.0064 141.081 62.4691 141.032 62.0294 140.886C61.834 140.837 61.6386 140.788 61.4432 140.691ZM63.6903 138.79C62.9087 138.741 62.1271 138.838 61.5898 139.033C61.0525 139.228 60.7105 139.472 60.7105 139.765C60.7105 140.057 61.0036 140.349 61.5409 140.593C62.0783 140.837 62.811 140.983 63.6414 141.032C64.423 141.081 65.2046 140.983 65.7419 140.788C66.2793 140.593 66.6212 140.349 66.6212 140.057C66.6212 139.765 66.3281 139.472 65.7908 139.228C65.5954 139.131 65.4 139.082 65.2046 139.033C64.7161 138.936 64.2276 138.838 63.6903 138.79Z" fill="#F0F3FF"/>
<path d="M63.446 142.201C63.0552 141.714 62.7132 141.031 62.469 140.251C62.2248 139.471 62.1271 138.74 62.1759 138.106C62.2248 137.473 62.4201 137.083 62.7132 136.985C63.0063 136.888 63.3971 137.083 63.7879 137.57C64.1787 138.058 64.5206 138.74 64.7649 139.52H64.716H64.7649C65.0091 140.3 65.1068 141.031 65.058 141.665C65.0091 142.299 64.8137 142.689 64.5206 142.786C64.423 142.835 64.3252 142.835 64.1787 142.786C63.9345 142.786 63.6902 142.542 63.446 142.201ZM62.7621 137.132C62.469 137.229 62.3225 137.57 62.2736 138.155C62.2248 138.74 62.3225 139.52 62.5667 140.251C62.8109 141.031 63.1529 141.665 63.4948 142.152C63.8856 142.591 64.2276 142.835 64.5206 142.737C64.8137 142.64 64.9603 142.299 65.0091 141.714C65.058 141.129 64.9603 140.349 64.716 139.618C64.4718 138.838 64.1299 138.204 63.7879 137.717C63.5437 137.375 63.2994 137.18 63.0552 137.132C62.9086 137.083 62.8109 137.083 62.7621 137.132Z" fill="#F0F3FF"/>
<path d="M63.2506 139.764C63.104 139.91 63.1529 140.154 63.2994 140.3C63.446 140.446 63.6902 140.398 63.8368 140.251C63.9833 140.105 63.9345 139.861 63.7879 139.715C63.6414 139.569 63.3971 139.618 63.2506 139.764Z" fill="#F0F3FF"/>
<path d="M55.337 141.326L56.9491 140.692C56.9491 140.692 58.6588 140.936 59.5869 140.643C60.3196 140.399 59.538 145.615 57.0468 143.86L54.4578 142.739L55.337 141.326Z" fill="#FBE0D0"/>
<path d="M55.6302 122.022C55.6302 122.022 51.3804 120.852 45.9093 128.31C40.4383 135.768 39.4124 138.449 40.3894 139.181C41.4152 139.863 45.9093 145.225 56.363 144.348L55.8256 140.448C55.8256 140.448 51.3804 139.96 45.6651 137.523C45.6651 137.523 48.596 132.551 52.2108 130.309C55.8745 128.115 55.6302 122.022 55.6302 122.022Z" fill="#F0F3FF"/>
<path d="M55.6301 121.486C55.7278 121.584 53.0411 124.947 53.0411 124.947L59.1961 135.72L55.6301 121.486Z" fill="#E1E9FF"/>
<path d="M67.989 143.567C67.989 143.567 67.7936 146.395 66.9632 146.297C66.0839 146.151 64.6673 147.077 64.5696 145.956C64.5207 144.786 65.5954 140.35 67.989 143.567Z" fill="#FBE0D0"/>
<path d="M221.471 149.365L221.178 127.965L223.62 127.917C225.33 127.917 226.698 126.503 226.649 124.797C226.649 123.091 225.232 121.726 223.522 121.775L202.762 122.067C201.052 122.067 199.684 123.481 199.733 125.187C199.733 126.893 201.15 128.258 202.859 128.209L205.302 128.16L205.595 149.56C193.627 153.167 185.03 164.33 185.225 177.394C185.42 193.237 198.463 205.862 214.339 205.667C230.215 205.472 242.867 192.457 242.671 176.614C242.427 163.55 233.488 152.68 221.471 149.365Z" fill="#E9F3FF"/>
<path d="M213.851 205.864C206.28 205.864 199.148 202.988 193.677 197.674C188.157 192.312 185.031 185.098 184.933 177.396C184.835 171.01 186.789 164.917 190.599 159.798C194.263 154.875 199.49 151.219 205.303 149.415L205.01 128.357L202.763 128.406H202.714C200.906 128.406 199.441 126.943 199.441 125.188C199.392 123.385 200.858 121.874 202.665 121.874L223.426 121.581C225.233 121.533 226.748 122.995 226.748 124.799C226.748 125.676 226.406 126.505 225.819 127.138C225.184 127.772 224.403 128.113 223.524 128.113L221.276 128.162L221.57 149.22C227.431 150.829 232.756 154.388 236.566 159.213C240.523 164.234 242.623 170.23 242.721 176.616C242.916 192.507 230.167 205.669 214.193 205.864C214.145 205.864 213.998 205.864 213.851 205.864ZM205.449 128.016L205.743 149.757L205.596 149.805C199.783 151.56 194.605 155.216 190.941 160.091C187.18 165.161 185.226 171.156 185.324 177.445C185.421 185.049 188.499 192.166 193.97 197.479C199.441 202.793 206.671 205.62 214.242 205.523C229.972 205.328 242.623 192.361 242.379 176.665C242.281 170.376 240.181 164.429 236.273 159.457C232.512 154.68 227.187 151.17 221.374 149.562L221.228 149.513V149.367L220.935 127.772L223.572 127.723C224.354 127.723 225.087 127.382 225.624 126.846C226.161 126.31 226.454 125.578 226.454 124.799C226.454 123.19 225.136 121.922 223.572 121.922H223.524L202.763 122.215C201.151 122.215 199.881 123.531 199.881 125.14C199.881 125.92 200.223 126.651 200.76 127.187C201.297 127.723 202.079 128.016 202.812 128.016H205.449Z" fill="#F0F8FF"/>
<path d="M205.254 177.638C197.976 175.055 192.114 175.298 188.255 176.029C188.206 176.858 188.157 177.687 188.157 178.564C188.352 192.701 200.027 204.059 214.193 203.864C228.359 203.669 239.741 192.018 239.546 177.882C239.546 177.784 239.546 177.638 239.546 177.541C230.558 181.879 215.317 181.197 205.254 177.638Z" fill="#F3B36A"/>
<path d="M200.076 184.902C200.076 185.535 199.588 186.023 198.953 186.023C198.318 186.023 197.829 185.535 197.829 184.902C197.829 184.268 198.318 183.78 198.953 183.78C199.588 183.732 200.076 184.268 200.076 184.902Z" fill="#FBE0D0"/>
<path d="M218.394 196.015C218.394 197.283 217.368 198.258 216.147 198.258C214.877 198.258 213.9 197.234 213.9 196.015C213.9 194.797 214.926 193.773 216.147 193.773C217.417 193.724 218.394 194.748 218.394 196.015Z" fill="#FBE0D0"/>
<path d="M203.3 189.678C203.3 190.263 202.812 190.702 202.274 190.702C201.688 190.702 201.249 190.214 201.249 189.678C201.249 189.093 201.737 188.654 202.274 188.654C202.812 188.654 203.3 189.093 203.3 189.678Z" fill="#FBE0D0"/>
<path d="M229.727 184.121C229.727 185.486 228.604 186.558 227.285 186.558C225.917 186.558 224.842 185.437 224.842 184.121C224.842 182.756 225.966 181.684 227.285 181.684C228.652 181.684 229.727 182.756 229.727 184.121Z" fill="#FBE0D0"/>
<path d="M213.314 186.754C213.934 186.754 214.437 186.252 214.437 185.633C214.437 185.014 213.934 184.512 213.314 184.512C212.693 184.512 212.19 185.014 212.19 185.633C212.19 186.252 212.693 186.754 213.314 186.754Z" fill="#FBE0D0"/>
<path d="M200.076 178.468C200.076 178.76 199.832 179.053 199.49 179.053C199.148 179.053 198.904 178.809 198.904 178.468C198.904 178.127 199.148 177.883 199.49 177.883C199.832 177.883 200.076 178.175 200.076 178.468Z" fill="#FBE0D0"/>
<path d="M202.714 200.159C203.55 200.159 204.228 199.482 204.228 198.648C204.228 197.813 203.55 197.137 202.714 197.137C201.878 197.137 201.2 197.813 201.2 198.648C201.2 199.482 201.878 200.159 202.714 200.159Z" fill="#FBE0D0"/>
<path d="M226.552 192.993C226.552 193.919 225.77 194.699 224.842 194.699C223.914 194.699 223.133 193.919 223.133 192.993C223.133 192.067 223.914 191.287 224.842 191.287C225.77 191.287 226.552 192.067 226.552 192.993Z" fill="#FBE0D0"/>
<path d="M207.257 183.39C207.257 184.316 206.475 185.096 205.547 185.096C204.619 185.096 203.837 184.316 203.837 183.39C203.837 182.464 204.619 181.684 205.547 181.684C206.524 181.684 207.257 182.415 207.257 183.39Z" fill="#FBE0D0"/>
<path d="M236.859 184.511C237.642 184.511 238.276 183.878 238.276 183.097C238.276 182.317 237.642 181.684 236.859 181.684C236.077 181.684 235.443 182.317 235.443 183.097C235.443 183.878 236.077 184.511 236.859 184.511Z" fill="#FBE0D0"/>
<path d="M192.358 181.585C192.358 182.463 191.625 183.194 190.746 183.194C189.867 183.194 189.134 182.463 189.134 181.585C189.134 180.708 189.867 179.977 190.746 179.977C191.625 179.977 192.358 180.708 192.358 181.585Z" fill="#FBE0D0"/>
<path d="M209.748 175.007C209.748 175.982 208.967 176.81 207.941 176.81C206.915 176.81 206.133 176.03 206.133 175.007C206.133 174.032 206.915 173.203 207.941 173.203C208.967 173.203 209.748 173.983 209.748 175.007Z" fill="#F3B36A"/>
<path d="M225.038 178.272C225.038 180.124 223.523 181.684 221.618 181.684C219.713 181.684 218.199 180.173 218.199 178.272C218.199 176.419 219.713 174.859 221.618 174.859C223.523 174.859 225.038 176.419 225.038 178.272Z" fill="#F3B36A"/>
<path d="M227.089 165.257C227.089 166.086 226.406 166.768 225.575 166.768C224.745 166.768 224.061 166.086 224.061 165.257C224.061 164.429 224.745 163.746 225.575 163.746C226.406 163.746 227.089 164.429 227.089 165.257Z" fill="#F3B36A"/>
<path d="M211.604 161.601C211.604 162.381 210.969 163.015 210.188 163.015C209.406 163.015 208.771 162.381 208.771 161.601C208.771 160.821 209.406 160.188 210.188 160.188C210.969 160.188 211.604 160.821 211.604 161.601Z" fill="#F3B36A"/>
<path d="M203.167 176.681C203.783 174.088 202.176 171.487 199.577 170.873C196.979 170.258 194.372 171.861 193.756 174.455C193.14 177.048 194.747 179.649 197.346 180.264C199.945 180.879 202.551 179.275 203.167 176.681Z" fill="#F3B36A"/>
<path d="M228.799 174.52C229.42 174.52 229.923 174.018 229.923 173.399C229.923 172.779 229.42 172.277 228.799 172.277C228.179 172.277 227.676 172.779 227.676 173.399C227.676 174.018 228.179 174.52 228.799 174.52Z" fill="#F3B36A"/>
<path d="M219.713 155.021C219.713 156.338 218.639 157.361 217.369 157.361C216.099 157.361 215.024 156.289 215.024 155.021C215.024 153.754 216.099 152.682 217.369 152.682C218.639 152.682 219.713 153.705 219.713 155.021Z" fill="#F3B36A"/>
<path d="M217.466 168.571C217.466 169.546 216.685 170.375 215.659 170.375C214.682 170.375 213.851 169.595 213.851 168.571C213.851 167.596 214.633 166.768 215.659 166.768C216.685 166.768 217.466 167.596 217.466 168.571Z" fill="#F3B36A"/>
<path d="M201.688 161.504C202.066 161.504 202.372 161.198 202.372 160.821C202.372 160.444 202.066 160.139 201.688 160.139C201.31 160.139 201.004 160.444 201.004 160.821C201.004 161.198 201.31 161.504 201.688 161.504Z" fill="#F3B36A"/>
<g opacity="0.31">
<path opacity="0.31" d="M210.725 150.975C201.542 153.802 194.117 160.773 190.795 169.791C189.818 172.375 189.281 175.056 189.036 177.786C188.939 178.809 189.964 179.687 190.941 179.687C192.016 179.687 192.749 178.809 192.846 177.786C193.775 167.013 201.444 157.751 211.751 154.582C214.047 153.9 213.07 150.244 210.725 150.975Z" fill="#F0F8FF"/>
</g>
<g opacity="0.31">
<path opacity="0.31" d="M221.276 200.599C227.383 198.747 232.267 194.116 234.466 188.169C235.101 186.463 235.443 184.659 235.589 182.855C235.638 182.173 234.954 181.588 234.319 181.588C233.586 181.588 233.147 182.173 233.049 182.855C232.414 189.972 227.383 196.114 220.544 198.21C219.078 198.649 219.713 201.086 221.276 200.599Z" fill="#F0F8FF"/>
</g>
<path d="M240.718 194.749H185.861C184.786 194.749 183.907 193.872 183.907 192.799C183.907 191.727 184.786 190.85 185.861 190.85H240.669C241.744 190.85 242.623 191.727 242.623 192.799C242.672 193.872 241.793 194.749 240.718 194.749Z" fill="#213782"/>
<path d="M189.249 192.689L177.347 233.299L178.893 233.753L190.795 193.144L189.249 192.689Z" fill="#213782"/>
<path d="M238.625 192.684L237.079 193.139L248.995 233.747L250.541 233.292L238.625 192.684Z" fill="#213782"/>
<path d="M96.8586 122.947H81.1781V156.339H96.8586V122.947Z" fill="#E9F3FF"/>
<path d="M79.3708 125.873C79.0289 126.994 87.1866 141.569 87.1866 141.569L85.3792 141.959L77.1238 127.628L79.3708 125.873Z" fill="#E9F3FF"/>
<path d="M74.2904 132.697L91.6806 122.265L78.7356 120.754C78.7356 120.754 72.9715 126.067 74.2904 132.697Z" fill="#E9F3FF"/>
<path d="M116.056 157.361H100.376V190.753H116.056V157.361Z" fill="#E9F3FF"/>
<path d="M105.505 190.898L125.728 180.369L113.907 176.713L105.505 190.898Z" fill="#E9F3FF"/>
<path d="M114.298 136.205H90.4105V187.974H114.298V136.205Z" fill="#E9F3FF"/>
<path d="M87.1864 141.568C87.0399 143.713 110.048 187.341 110.048 187.341L108.631 188.072L85.0859 142.836L87.1864 141.568Z" fill="#E9F3FF"/>
<path d="M91.2409 178.224C97.7158 178.224 102.965 172.987 102.965 166.525C102.965 160.064 97.7158 154.826 91.2409 154.826C84.7661 154.826 79.5172 160.064 79.5172 166.525C79.5172 172.987 84.7661 178.224 91.2409 178.224Z" fill="#E9F3FF"/>
<path d="M101.548 135.961L80.6895 147.123C79.7126 147.66 78.5402 147.27 78.0029 146.295C77.4655 145.32 77.8563 144.15 78.8333 143.614L99.6917 132.451C100.669 131.915 101.841 132.305 102.378 133.28C102.867 134.254 102.476 135.424 101.548 135.961Z" fill="#213782"/>
<path d="M89.7266 122.459L74.2904 130.698C73.5577 131.087 72.6784 130.795 72.2876 130.113C71.8968 129.381 72.1899 128.504 72.8738 128.114L88.31 119.876C89.0427 119.486 89.922 119.778 90.3128 120.461C90.7036 121.192 90.4593 122.069 89.7266 122.459Z" fill="#213782"/>
<path d="M120.55 205.475H105.993V212.104H120.55V205.475Z" fill="#E9F3FF"/>
<path d="M104.039 221.804C87.0887 221.804 73.2645 208.009 73.2645 191.094C73.2645 183.294 76.1955 175.885 81.52 170.182L84.6951 173.106C80.1522 177.981 77.6121 184.367 77.6121 191.094C77.6121 205.669 89.4823 217.466 104.039 217.466V221.804Z" fill="#213782"/>
<path d="M124.409 212.055H101.695V233.259H124.409V212.055Z" fill="#E9F3FF"/>
<path d="M132.86 207.131H93.3414C92.1202 207.131 91.1432 206.156 91.1432 204.938C91.1432 203.719 92.1202 202.744 93.3414 202.744H132.86C134.081 202.744 135.058 203.719 135.058 204.938C135.107 206.108 134.13 207.131 132.86 207.131Z" fill="#213782"/>
<path d="M126.754 235.403H99.4964C98.2752 235.403 97.2982 234.428 97.2982 233.209C97.2982 231.991 98.2752 231.016 99.4964 231.016H126.754C127.975 231.016 128.952 231.991 128.952 233.209C128.952 234.379 127.975 235.403 126.754 235.403Z" fill="#213782"/>
<path d="M89.4824 177.055C96.1731 177.055 101.597 171.643 101.597 164.966C101.597 158.289 96.1731 152.877 89.4824 152.877C82.7918 152.877 77.3679 158.289 77.3679 164.966C77.3679 171.643 82.7918 177.055 89.4824 177.055Z" fill="#213782"/>
<path d="M89.4824 171.743C93.2324 171.743 96.2724 168.709 96.2724 164.967C96.2724 161.225 93.2324 158.191 89.4824 158.191C85.7324 158.191 82.6924 161.225 82.6924 164.967C82.6924 168.709 85.7324 171.743 89.4824 171.743Z" fill="#E9F3FF"/>
<path d="M58.7565 112.953C58.7565 112.953 60.3685 110.955 61.5409 110.857C61.5409 110.857 65.0092 113.148 67.4516 111.93C69.894 110.711 63.2506 108.42 63.2506 108.42L59.8312 108.81C59.8312 108.859 57.633 111.686 58.7565 112.953Z" fill="#453E6B"/>
<path d="M69.2102 200.648H40.0963V202.647H69.2102V200.648Z" fill="#33628F"/>
<path d="M44.1514 201.071L43.136 201.551L59.1402 235.248L60.1557 234.768L44.1514 201.071Z" fill="#33628F"/>
<path d="M66.8169 201.073L65.8015 201.553L81.8058 235.25L82.8212 234.77L66.8169 201.073Z" fill="#33628F"/>
<path d="M71.3107 211.52H48.6449V212.641H71.3107V211.52Z" fill="#33628F"/>
<path d="M76.733 221.951H54.0671V223.072H76.733V221.951Z" fill="#33628F"/>
</svg>
