<svg width="1920" height="854" viewBox="0 0 1920 854" fill="none" xmlns="http://www.w3.org/2000/svg">
<g clip-path="url(#clip0)">
<path opacity="0.1" d="M1479.5 695C1482.53 692.23 1488.86 656.576 1491.3 653.281C1500.29 641.246 1505.87 624.879 1509.52 608.094C1524.88 537.471 1506.8 456.732 1469.68 405.047C1420.05 335.974 1356.05 338.595 1292.78 320.986C1229.51 303.376 1167.03 279.773 1104.44 257.709C981.08 214.22 849.96 162.523 721.708 176.736C651.188 184.612 584.951 219.499 526.629 276.217C471.618 329.711 415.943 388.742 406.317 489.97C403.769 517.4 404.655 546.073 412.139 571.62C421.913 604.907 441.682 629.789 460.762 653.454C464.59 658.204 468.566 663.065 473.366 665.403C477.564 667.458 490.569 684.037 495 684C712.5 662.4 893.954 662.4 1104.44 662.4L1372.5 676.5C1406.47 676.5 1446.5 684 1479.5 695Z" fill="#2D4CB3"/>
<path d="M1474.45 690.912C1391.81 671.678 1192.78 658 960.19 658C726.436 658 526.436 671.678 444.573 691.339C419.161 697.323 405 704.162 405 711C405 740.065 653.497 764 959.996 764C1266.5 764 1514.99 740.065 1514.99 711C1515.38 703.734 1500.83 696.896 1474.45 690.912Z" fill="#B3CBE8"/>
<path d="M1336.55 475.326C1336.55 475.326 1316.29 542.393 1318.27 565.159C1320.25 587.925 1330.93 657.305 1340.83 657.921C1350.74 658.536 1361.76 654.389 1363.32 647.424C1365.99 635.327 1358.28 565.307 1359.98 560.471C1361.67 555.634 1379.3 488.407 1374.46 475.351C1369.63 462.294 1336.55 475.326 1336.55 475.326Z" fill="#E2581D"/>
<path d="M1374.46 475.326C1373.23 472.163 1370.46 470.539 1366.87 469.887C1359.22 478.772 1349.54 492.566 1350.23 504.86C1351.36 524.968 1348.45 530.875 1343.2 536.375C1337.94 541.876 1332.41 603.344 1335.91 612.672C1337.94 618.062 1333.52 626.479 1329.45 632.62C1332.98 646.944 1336.97 657.662 1340.83 657.896C1350.68 658.523 1361.76 654.364 1363.32 647.399C1365.99 635.302 1358.28 565.282 1359.98 560.446C1361.67 555.609 1379.3 488.382 1374.46 475.326Z" fill="#C63F20"/>
<path d="M1336.82 389.087C1322.41 392.495 1328.32 436.932 1313.56 435.566C1295.95 433.941 1261.86 399.116 1252.88 408.407C1238.9 422.842 1276 463.783 1310.39 466.06C1344.79 468.336 1355.52 421.5 1355.52 404.334C1355.48 392.643 1341.49 387.979 1336.82 389.087Z" fill="#E2581D"/>
<path d="M1369.43 473.677C1369.43 473.677 1365.74 548.263 1367.71 571.004C1369.68 593.745 1381.04 657.281 1390.98 657.896C1400.93 658.511 1411.91 654.364 1413.47 647.399C1416.13 635.302 1409.51 568.469 1409.66 563.35C1409.91 554.613 1410.42 487.927 1405.57 474.858C1400.72 461.79 1369.43 473.677 1369.43 473.677Z" fill="#E2581D"/>
<path d="M1286.54 422.226C1272.26 412.849 1258.23 402.906 1252.85 408.407C1244.44 417.021 1254.48 435.283 1271.31 448.955C1278.65 445.349 1287.25 437.781 1286.54 422.226Z" fill="#404040"/>
<path d="M1413.44 647.399C1416.09 635.303 1409.47 568.469 1409.62 563.35C1409.88 554.613 1410.38 487.927 1405.53 474.859C1405.14 473.771 1404.5 472.787 1403.67 471.979C1393.83 481.442 1382.17 495.926 1381.78 512.17C1381.1 540.117 1400.9 553.235 1395.23 571.878C1391.46 584.184 1380.46 602.446 1375.76 620.105C1380.19 640.028 1385.75 657.576 1390.95 657.896C1400.83 658.524 1411.91 654.364 1413.44 647.399Z" fill="#C63F20"/>
<path d="M1407.85 488.309L1368.19 503.334C1368.06 506.595 1367.95 509.992 1367.84 513.462C1371.96 514.996 1376.27 515.92 1380.66 516.206C1389.73 516.957 1400.74 516.058 1409.34 514.975C1409.05 505.315 1408.59 495.84 1407.85 488.309Z" fill="#192C69"/>
<path d="M1386.38 667.593C1387.26 667.166 1387.93 666.408 1388.25 665.485C1388.57 664.563 1388.51 663.551 1388.09 662.671C1385.35 656.998 1380.06 645.898 1380.7 639.388C1381.46 631.229 1404.81 640.619 1408.71 646.538C1410.67 649.516 1409.18 656.961 1407.96 662.351C1407.3 665.33 1407.26 668.411 1407.82 671.408C1408.19 673.402 1408.24 675.617 1406.92 676.33C1402 679.136 1372.17 679.296 1372.52 676.417C1372.64 675.124 1381.37 670.104 1386.38 667.593Z" fill="#192C69"/>
<path d="M1328.99 502.497C1336.98 472.188 1333.67 442.088 1331.87 431.972C1330.2 422.546 1323.75 396.126 1338.22 386.109C1363.5 368.622 1402.78 376.608 1411.91 398.82C1414.9 406.13 1411.08 431.086 1410.01 443.934C1409.36 451.711 1408.28 480.273 1409.82 498.867C1409.93 500.315 1409.6 501.764 1408.86 503.012C1408.11 504.261 1407 505.246 1405.67 505.832C1392.08 511.948 1360.14 519.48 1328.99 502.497Z" fill="#FF9D3B"/>
<path d="M1099.9 297C1098.43 297.004 1097.01 297.591 1095.97 298.631C1094.93 299.672 1094.35 301.082 1094.34 302.553V342.073C1094.34 343.546 1094.93 344.958 1095.97 346C1097.01 347.041 1098.42 347.626 1099.9 347.626C1101.37 347.626 1102.78 347.041 1103.82 346C1104.87 344.958 1105.45 343.546 1105.45 342.073V302.553C1105.45 301.082 1104.86 299.672 1103.82 298.631C1102.78 297.591 1101.37 297.004 1099.9 297V297Z" fill="#A485FF"/>
<path d="M1101.52 297C1100.04 297.004 1098.63 297.591 1097.59 298.631C1096.55 299.672 1095.97 301.082 1095.96 302.553V342.073C1095.96 343.546 1096.55 344.958 1097.59 346C1098.63 347.041 1100.04 347.626 1101.52 347.626C1102.99 347.626 1104.4 347.041 1105.44 346C1106.49 344.958 1107.07 343.546 1107.07 342.073V302.553C1107.07 301.082 1106.48 299.672 1105.44 298.631C1104.4 297.591 1102.99 297.004 1101.52 297V297Z" fill="#2D4CB3"/>
<rect x="885" y="297" width="360" height="8" rx="4" fill="#FBE0D0"/>
<rect x="885" y="297" width="8" height="58" rx="4" fill="#FBE0D0"/>
<path d="M1147.57 359.46L1136.78 334.021C1135.55 331.137 1133.22 328.859 1130.31 327.688C1127.4 326.517 1124.14 326.549 1121.25 327.776L1070.37 349.352C1067.48 350.584 1065.2 352.911 1064.03 355.822C1062.86 358.733 1062.89 361.989 1064.12 364.876L1074.91 390.315C1079 399.951 1086.75 407.569 1096.46 411.493C1106.16 415.417 1117.03 415.325 1126.67 411.238C1131.45 409.211 1135.77 406.264 1139.41 402.565C1143.04 398.865 1145.91 394.486 1147.85 389.678C1149.79 384.869 1150.77 379.726 1150.72 374.541C1150.67 369.356 1149.6 364.231 1147.57 359.46Z" fill="#192C69"/>
<path d="M1147.57 359.46L1132.19 323.12L1103.54 335.271C1110.23 346.627 1119.44 362.032 1122.68 366.501C1128.02 373.882 1118.99 375.205 1117.65 382.507C1116.3 389.809 1110.04 400.172 1099.9 399.207C1092.09 398.469 1082.66 394.21 1076.61 393.784C1081.31 402.374 1089.03 408.912 1098.28 412.128C1107.53 415.344 1117.65 415.009 1126.67 411.188C1136.3 407.095 1143.91 399.348 1147.83 389.649C1151.75 379.95 1151.66 369.092 1147.57 359.46Z" fill="#19285C"/>
<path d="M1057.29 369.027L1072.17 383.881L1066.22 361.663L1057.29 369.027Z" fill="#192C69"/>
<path d="M1132.19 323.119C1134.5 328.576 1120.11 339.898 1100.03 348.41C1091.24 352.14 1082.82 354.707 1075.94 355.962C1072.92 356.53 1058.97 373.257 1056.45 368.21C1055.1 365.518 1064.4 356.717 1063.1 356.393C1061.25 355.939 1060 355.127 1059.49 353.946C1057.18 348.489 1071.57 337.167 1091.65 328.65C1111.73 320.133 1129.84 317.646 1132.19 323.119Z" fill="#A485FF"/>
<path d="M1122.65 335.975C1111.3 335.611 1094.13 338.768 1083.34 344.038C1072.94 349.148 1055.05 365.501 1056.4 368.192C1058.92 373.24 1072.87 356.495 1075.89 355.945C1082.77 354.69 1091.19 352.123 1099.98 348.393C1109.04 344.56 1116.93 340.154 1122.65 335.975Z" fill="#E2581D"/>
<path d="M1124.17 320.206V322.511C1128.3 322.511 1129.8 323.448 1130.03 324.005C1130.32 324.692 1129.64 327.605 1123.05 332.789C1117.14 337.445 1108.63 342.232 1099.1 346.274C1090.83 349.783 1082.44 352.412 1075.5 353.656C1073.86 353.951 1071.92 355.666 1068.05 359.198C1065.78 361.287 1061.37 365.29 1059.01 366.472C1060.12 364.685 1061.35 362.978 1062.7 361.361C1064.97 358.522 1065.91 357.307 1065.37 355.734C1065.23 355.345 1065 354.995 1064.7 354.718C1064.4 354.44 1064.03 354.243 1063.63 354.144C1062.53 353.877 1061.77 353.463 1061.59 353.009C1061.3 352.322 1061.98 349.403 1068.57 344.219C1074.49 339.569 1082.99 334.782 1092.52 330.739C1104.7 325.578 1116.53 322.494 1124.17 322.494V320.206ZM1124.17 320.206C1116.55 320.206 1104.48 323.181 1091.62 328.632C1071.54 337.15 1057.15 348.472 1059.46 353.929C1059.97 355.11 1061.22 355.922 1063.08 356.376C1064.38 356.699 1055.07 365.501 1056.42 368.192C1056.55 368.485 1056.76 368.733 1057.04 368.902C1057.31 369.071 1057.63 369.154 1057.95 369.14C1062.41 369.14 1073.28 356.421 1075.91 355.944C1082.8 354.689 1091.21 352.123 1100.01 348.392C1120.08 339.881 1134.46 328.559 1132.19 323.119C1131.35 321.16 1128.48 320.223 1124.2 320.223L1124.17 320.206Z" fill="#2D4CB3"/>
<path d="M1066.4 356.195C1066.4 356.195 1056.26 364.928 1053.95 371.384C1051.65 377.84 1048.55 393.137 1048.62 399.332C1048.69 405.526 1055.72 403.579 1055.95 394.863C1056.19 386.147 1057.79 369.726 1064.73 362.162C1071.67 354.599 1066.4 356.195 1066.4 356.195Z" fill="#E2581D"/>
<path d="M1129.55 333.954C1127.39 333.96 1125.33 334.816 1123.81 336.337C1122.29 337.857 1121.44 339.918 1121.43 342.068V351.312C1121.4 352.395 1121.59 353.473 1121.98 354.482C1122.38 355.491 1122.97 356.411 1123.73 357.187C1124.48 357.964 1125.39 358.581 1126.39 359.002C1127.39 359.423 1128.46 359.64 1129.54 359.64C1130.63 359.64 1131.7 359.423 1132.7 359.002C1133.7 358.581 1134.6 357.964 1135.36 357.187C1136.11 356.411 1136.71 355.491 1137.1 354.482C1137.5 353.473 1137.68 352.395 1137.66 351.312V342.068C1137.65 339.919 1136.79 337.859 1135.27 336.339C1133.75 334.819 1131.7 333.961 1129.55 333.954Z" fill="#A485FF"/>
<path d="M1131.86 333.954C1129.71 333.96 1127.65 334.816 1126.13 336.337C1124.61 337.857 1123.75 339.918 1123.75 342.068V351.312C1123.75 353.464 1124.6 355.528 1126.12 357.049C1127.65 358.571 1129.71 359.426 1131.86 359.426C1134.02 359.426 1136.08 358.571 1137.6 357.049C1139.12 355.528 1139.98 353.464 1139.98 351.312V342.068C1139.97 339.918 1139.12 337.857 1137.6 336.337C1136.07 334.816 1134.01 333.96 1131.86 333.954Z" fill="#2D4CB3"/>
<path d="M1131.62 297C1130.15 297.004 1128.74 297.591 1127.7 298.631C1126.65 299.672 1126.07 301.082 1126.06 302.553V342.073C1126.06 343.546 1126.65 344.958 1127.69 346C1128.73 347.041 1130.15 347.626 1131.62 347.626C1133.09 347.626 1134.5 347.041 1135.55 346C1136.59 344.958 1137.17 343.546 1137.17 342.073V302.553C1137.17 301.082 1136.58 299.672 1135.54 298.631C1134.5 297.591 1133.09 297.004 1131.62 297V297Z" fill="#A485FF"/>
<path d="M1133.19 297C1131.72 297.006 1130.31 297.593 1129.27 298.633C1128.23 299.674 1127.65 301.083 1127.64 302.553V342.073C1127.69 343.516 1128.29 344.884 1129.33 345.888C1130.37 346.893 1131.76 347.454 1133.2 347.454C1134.64 347.454 1136.03 346.893 1137.07 345.888C1138.11 344.884 1138.71 343.516 1138.76 342.073V302.553C1138.75 301.08 1138.16 299.67 1137.12 298.629C1136.08 297.589 1134.67 297.003 1133.19 297V297Z" fill="#2D4CB3"/>
<path d="M1094.08 340.631C1094.08 340.631 1091.39 341.687 1089.09 342.743C1086.78 343.799 1085.24 344.276 1084.28 345.241C1083.32 346.207 1087.8 347.354 1089.5 345.809C1091.21 344.265 1090.12 343.788 1093.02 342.93C1095.93 342.073 1097.73 340.722 1097.25 340.625C1096.77 340.528 1094.08 340.631 1094.08 340.631Z" fill="#FFB03B"/>
<path d="M1074.25 351.817C1072.67 352.545 1071.17 353.447 1069.78 354.508C1068.15 355.899 1060.61 362.622 1059.8 364.014C1058.99 365.405 1054.8 369.692 1054.75 371.6C1054.71 373.507 1050.11 384.875 1050.12 396.686C1050.12 398.525 1053.21 398.06 1053.24 397.253C1054.1 374.359 1058.92 369.266 1059.22 368.13C1059.84 365.779 1065.03 360.067 1067.39 358.142C1069.74 356.217 1074.25 351.817 1074.25 351.817Z" fill="#FFB03B"/>
<path d="M1352.63 401.06C1352.63 401.06 1382.29 381.506 1378.67 378.836C1373.75 375.144 1355.59 378.466 1353.67 381.235C1351.49 384.373 1352.63 401.06 1352.63 401.06Z" fill="white"/>
<path d="M1336.28 667.593C1337.16 667.164 1337.83 666.405 1338.15 665.482C1338.46 664.56 1338.4 663.549 1337.98 662.671C1335.23 656.998 1329.95 645.898 1330.59 639.388C1331.34 631.229 1354.71 640.619 1358.6 646.538C1360.55 649.516 1359.06 656.961 1357.86 662.351C1357.2 665.329 1357.15 668.411 1357.72 671.408C1358.08 673.402 1358.13 675.617 1356.81 676.33C1351.89 679.136 1322.06 679.296 1322.42 676.417C1322.54 675.124 1331.26 670.104 1336.28 667.593Z" fill="#192C69"/>
<path d="M1377.44 377.039C1384.55 384.164 1391.55 398.624 1389.96 405.933C1387.67 416.492 1381.97 420.626 1383.73 436.698C1385.49 452.769 1392.92 473.32 1390.63 485.774C1388.96 494.794 1383.6 504.614 1381.8 512.17C1390.02 511.201 1398.06 509.054 1405.67 505.795C1407 505.209 1408.11 504.224 1408.86 502.975C1409.6 501.727 1409.93 500.278 1409.82 498.83C1408.28 480.236 1409.36 451.674 1410.01 443.897C1411.08 431.05 1414.94 406.093 1411.91 398.784C1406.99 386.761 1393.09 378.897 1377.44 377.039Z" fill="#E2581D"/>
<path d="M1478.54 375.978C1464.75 363.736 1458.67 385.401 1454.75 403.737C1461.29 409.047 1471.98 404.106 1477.75 410.236C1487.33 400.706 1498.37 396.57 1478.54 375.978Z" fill="#192C69"/>
<path d="M660.765 676.589V526.777H639.186V676.589H625.351V689.645H674.6V676.589H660.765Z" fill="#192C69"/>
<path d="M990.373 347.628H784.794V581.316H990.373V347.628Z" fill="#2D4CB3"/>
<path d="M790.419 347.628V581.304H995.986V347.628H790.419ZM985.548 569.712H800.907V359.282H985.548V569.712Z" fill="#A485FF"/>
<path d="M985.548 359.22L800.87 466.417V359.22H985.548Z" fill="#192C69"/>
<path d="M791.577 347.628H585.997V581.316H791.577V347.628Z" fill="#D1CCFF"/>
<path d="M721.696 501.132H740.616V432.957L721.696 501.132Z" fill="#192C69"/>
<path d="M635.567 501.341H719.936C722.091 501.239 724.154 500.433 725.806 499.046C727.459 497.658 728.61 495.767 729.082 493.662L740.468 435.271C740.703 434.347 740.72 433.381 740.518 432.45C740.316 431.518 739.9 430.646 739.303 429.903C738.706 429.159 737.945 428.565 737.079 428.166C736.213 427.767 735.266 427.575 734.313 427.604H649.957C647.8 427.692 645.732 428.493 644.077 429.88C642.423 431.266 641.274 433.162 640.811 435.271L629.413 493.662C629.175 494.587 629.157 495.554 629.358 496.487C629.559 497.42 629.974 498.293 630.571 499.038C631.168 499.783 631.931 500.379 632.798 500.779C633.665 501.178 634.613 501.371 635.567 501.341Z" fill="#A485FF"/>
<path d="M631.702 501.341H716.059C718.218 501.252 720.286 500.45 721.941 499.06C723.596 497.671 724.744 495.773 725.204 493.662L736.603 435.271C736.838 434.347 736.855 433.381 736.653 432.45C736.451 431.518 736.035 430.646 735.438 429.903C734.841 429.159 734.08 428.565 733.214 428.166C732.348 427.767 731.401 427.575 730.448 427.604H646.043C643.885 427.692 641.818 428.493 640.163 429.88C638.509 431.266 637.36 433.162 636.897 435.271L625.498 493.662C625.26 494.591 625.241 495.562 625.445 496.499C625.649 497.436 626.069 498.313 626.671 499.059C627.274 499.805 628.043 500.4 628.916 500.796C629.79 501.192 630.744 501.379 631.702 501.341Z" fill="#2D4CB3"/>
<path d="M642.571 433.449C642.603 433.316 642.676 433.197 642.78 433.108C642.884 433.02 643.014 432.967 643.15 432.957H731.199C731.259 432.957 731.319 432.971 731.373 432.998C731.428 433.024 731.475 433.062 731.513 433.109C731.551 433.157 731.578 433.212 731.591 433.27C731.605 433.329 731.606 433.39 731.593 433.449L728.589 449.742C728.558 449.875 728.485 449.995 728.381 450.083C728.277 450.172 728.147 450.225 728.011 450.234H639.999C639.938 450.234 639.879 450.22 639.824 450.194C639.77 450.167 639.722 450.129 639.685 450.082C639.647 450.035 639.62 449.98 639.606 449.921C639.593 449.862 639.592 449.801 639.605 449.742L642.571 433.449Z" fill="#5BD595"/>
<path d="M641.648 465.814L643.901 454.738L647.261 455.44C649.305 455.87 650.449 458.652 649.797 461.74C649.145 464.829 646.99 466.909 644.947 466.478L641.648 465.814Z" fill="#387670"/>
<path d="M641.611 465.801C643.655 466.232 645.833 464.115 646.535 461.064C647.237 458.012 646.03 455.194 643.987 454.763C641.944 454.332 639.765 456.461 639.063 459.501C638.362 462.54 639.568 465.371 641.611 465.801Z" fill="#4AA29A"/>
<path d="M656.296 465.838L658.549 454.763L661.909 455.464C663.953 455.895 665.098 458.676 664.445 461.765C663.793 464.854 661.639 466.933 659.595 466.503L656.296 465.838Z" fill="#387670"/>
<path d="M656.259 465.826C658.303 466.257 660.482 464.14 661.122 461.088C661.762 458.037 660.629 455.219 658.586 454.788C656.543 454.357 654.364 456.486 653.724 459.526C653.084 462.565 654.216 465.395 656.259 465.826Z" fill="#4AA29A"/>
<path d="M670.945 465.863L673.197 454.788L676.545 455.489C678.601 455.92 679.733 458.701 679.093 461.79C678.453 464.878 676.287 466.958 674.243 466.527L670.945 465.863Z" fill="#387670"/>
<path d="M670.883 465.851C672.926 466.281 675.105 464.165 675.745 461.113C676.385 458.061 675.253 455.243 673.209 454.812C671.166 454.382 668.987 456.51 668.286 459.55C667.584 462.59 668.864 465.42 670.883 465.851Z" fill="#4AA29A"/>
<path d="M685.654 465.887L687.907 454.812L691.255 455.513C693.298 455.944 694.443 458.725 693.791 461.814C693.138 464.903 690.997 466.983 688.941 466.552L685.654 465.887Z" fill="#387670"/>
<path d="M685.556 465.875C687.599 466.306 689.778 464.189 690.48 461.137C691.181 458.085 689.987 455.267 687.944 454.837C685.9 454.406 683.709 456.535 683.02 459.574C682.331 462.614 683.512 465.444 685.556 465.875Z" fill="#4AA29A"/>
<path d="M700.229 465.912L702.493 454.837L705.842 455.551C707.885 455.981 709.03 458.762 708.377 461.851C707.725 464.94 705.571 467.02 703.527 466.589L700.229 465.912Z" fill="#387670"/>
<path d="M700.204 465.9C702.247 466.33 704.426 464.214 705.128 461.162C705.829 458.11 704.635 455.292 702.58 454.861C700.524 454.431 698.358 456.547 697.717 459.599C697.077 462.651 698.148 465.469 700.204 465.9Z" fill="#4AA29A"/>
<path d="M714.877 465.937L717.142 454.861L720.49 455.575C722.533 456.006 723.678 458.787 723.025 461.876C722.373 464.964 720.219 467.044 718.176 466.613L714.877 465.937Z" fill="#387670"/>
<path d="M714.84 465.925C716.896 466.355 719.074 464.239 719.764 461.187C720.453 458.135 719.259 455.317 717.216 454.886C715.172 454.455 712.993 456.572 712.353 459.624C711.713 462.676 712.796 465.494 714.84 465.925Z" fill="#4AA29A"/>
<path d="M637.488 485.491L639.74 474.416L643.088 475.117C645.144 475.548 646.277 478.329 645.636 481.418C644.996 484.506 642.83 486.586 640.787 486.155L637.488 485.491Z" fill="#387670"/>
<path d="M637.451 485.478C639.494 485.909 641.673 483.793 642.313 480.741C642.953 477.689 641.82 474.871 639.777 474.44C637.734 474.009 635.555 476.138 634.853 479.19C634.152 482.242 635.407 485.048 637.451 485.478Z" fill="#4AA29A"/>
<path d="M652.123 485.515L654.388 474.44L657.737 475.141C659.78 475.572 660.925 478.353 660.272 481.442C659.62 484.531 657.478 486.611 655.422 486.18L652.123 485.515Z" fill="#387670"/>
<path d="M652.099 485.503C654.142 485.934 656.321 483.817 656.961 480.765C657.601 477.713 656.469 474.895 654.425 474.465C652.382 474.034 650.191 476.163 649.502 479.215C648.812 482.266 650.055 485.072 652.099 485.503Z" fill="#4AA29A"/>
<path d="M666.772 485.54L669.037 474.465L672.385 475.166C674.428 475.597 675.573 478.378 674.92 481.467C674.268 484.556 672.114 486.635 670.071 486.205L666.772 485.54Z" fill="#387670"/>
<path d="M666.747 485.528C668.79 485.959 670.969 483.842 671.671 480.79C672.372 477.738 671.178 474.92 669.123 474.489C667.067 474.059 664.901 476.188 664.199 479.227C663.497 482.267 664.728 485.097 666.747 485.528Z" fill="#4AA29A"/>
<path d="M681.42 485.565L683.685 474.489L687.033 475.191C689.076 475.621 690.221 478.403 689.569 481.491C688.916 484.58 686.762 486.66 684.719 486.229L681.42 485.565Z" fill="#387670"/>
<path d="M681.383 485.552C683.439 485.983 685.617 483.866 686.307 480.814C686.996 477.763 685.802 474.945 683.759 474.514C681.715 474.083 679.536 476.212 678.896 479.252C678.256 482.291 679.34 485.121 681.383 485.552Z" fill="#4AA29A"/>
<path d="M696.068 485.589L698.321 474.514L701.681 475.215C703.724 475.646 704.869 478.427 704.217 481.516C703.564 484.604 701.41 486.684 699.367 486.253L696.068 485.589Z" fill="#387670"/>
<path d="M696.031 485.577C698.074 486.008 700.253 483.891 700.955 480.839C701.656 477.788 700.45 474.969 698.407 474.539C696.363 474.108 694.185 476.237 693.545 479.277C692.905 482.316 693.988 485.146 696.031 485.577Z" fill="#4AA29A"/>
<path d="M710.716 485.614L712.969 474.539L716.317 475.24C718.373 475.671 719.517 478.452 718.865 481.541C718.213 484.629 716.058 486.709 714.015 486.278L710.716 485.614Z" fill="#387670"/>
<path d="M710.679 485.602C712.723 486.032 714.901 483.916 715.541 480.864C716.182 477.812 715.049 474.994 713.006 474.563C710.962 474.132 708.784 476.261 708.144 479.301C707.503 482.341 708.636 485.171 710.679 485.602Z" fill="#4AA29A"/>
<path d="M849.64 676.589V526.777H828.062V676.589H814.226V689.645H863.476V676.589H849.64Z" fill="#192C69"/>
<path d="M1026.48 676.589V526.777H1004.9V676.589H991.063V689.645H1040.31V676.589H1026.48Z" fill="#192C69"/>
<path d="M1203.33 676.589V526.777H1181.75V676.589H1167.9V689.645H1217.16V676.589H1203.33Z" fill="#192C69"/>
<path d="M1364.23 492.714C1364.22 485.364 1361.29 478.32 1356.09 473.122C1350.89 467.925 1343.84 464.996 1336.49 464.977H800.698V520.439H1258.72L1259.79 536.437L1338.57 522.457C1351.8 520.119 1362.45 509.622 1364.05 496.27C1364.18 495.09 1364.24 493.902 1364.23 492.714Z" fill="#A485FF"/>
<path d="M1251.58 482.156H800.698V537.618H1251.58C1258.83 537.466 1265.74 534.477 1270.82 529.293C1275.9 524.109 1278.74 517.142 1278.74 509.887C1278.74 502.632 1275.9 495.665 1270.82 490.481C1265.74 485.297 1258.83 482.309 1251.58 482.156Z" fill="#192C69"/>
<path d="M822.645 509.893C822.645 514.371 820.866 518.666 817.699 521.832C814.532 524.998 810.236 526.777 805.757 526.777C796.426 526.777 793.94 519.209 793.94 509.893C793.94 500.578 796.402 493.01 805.757 493.01C807.975 493.01 810.171 493.446 812.22 494.295C814.269 495.143 816.131 496.387 817.699 497.955C819.267 499.523 820.511 501.384 821.36 503.432C822.209 505.481 822.645 507.676 822.645 509.893Z" fill="#A485FF"/>
<path d="M812.084 509.893C812.084 511.147 811.712 512.373 811.015 513.415C810.318 514.458 809.327 515.27 808.168 515.749C807.009 516.229 805.734 516.354 804.503 516.108C803.273 515.863 802.144 515.258 801.258 514.37C800.372 513.483 799.769 512.352 799.526 511.122C799.282 509.892 799.41 508.617 799.891 507.459C800.373 506.302 801.188 505.313 802.232 504.618C803.276 503.923 804.503 503.553 805.757 503.556C806.589 503.556 807.413 503.72 808.181 504.038C808.95 504.357 809.648 504.824 810.235 505.413C810.823 506.001 811.289 506.7 811.606 507.469C811.923 508.238 812.086 509.062 812.084 509.893Z" fill="#192C69"/>
<path d="M877.523 513.779C879.678 504.707 874.069 495.606 864.994 493.451C855.919 491.296 846.815 496.904 844.66 505.977C842.505 515.049 848.114 524.15 857.189 526.305C866.264 528.459 875.368 522.851 877.523 513.779Z" fill="#A485FF"/>
<path d="M867.439 509.893C867.439 511.147 867.068 512.372 866.371 513.414C865.674 514.456 864.684 515.269 863.526 515.748C862.368 516.228 861.093 516.354 859.863 516.109C858.634 515.864 857.504 515.261 856.617 514.375C855.731 513.488 855.127 512.359 854.883 511.13C854.638 509.9 854.764 508.626 855.243 507.468C855.723 506.31 856.536 505.32 857.578 504.624C858.621 503.927 859.846 503.556 861.1 503.556C861.933 503.554 862.758 503.717 863.528 504.035C864.298 504.353 864.997 504.819 865.586 505.408C866.175 505.997 866.642 506.696 866.96 507.466C867.278 508.236 867.441 509.06 867.439 509.893Z" fill="#192C69"/>
<path d="M932.88 513.775C935.035 504.703 929.426 495.602 920.351 493.447C911.276 491.293 902.172 496.9 900.017 505.973C897.862 515.045 903.471 524.146 912.546 526.301C921.621 528.455 930.725 522.847 932.88 513.775Z" fill="#A485FF"/>
<path d="M922.795 509.893C922.795 511.147 922.423 512.372 921.726 513.414C921.03 514.456 920.04 515.269 918.881 515.748C917.723 516.228 916.448 516.354 915.219 516.109C913.989 515.864 912.859 515.261 911.973 514.375C911.086 513.488 910.482 512.359 910.238 511.13C909.993 509.9 910.119 508.626 910.599 507.468C911.078 506.31 911.891 505.32 912.934 504.624C913.976 503.927 915.202 503.556 916.455 503.556C918.137 503.556 919.749 504.223 920.938 505.412C922.127 506.6 922.795 508.212 922.795 509.893Z" fill="#192C69"/>
<path d="M988.224 513.771C990.38 504.699 984.77 495.598 975.695 493.443C966.621 491.289 957.517 496.897 955.362 505.969C953.206 515.041 958.816 524.142 967.891 526.297C976.965 528.451 986.069 522.844 988.224 513.771Z" fill="#A485FF"/>
<path d="M978.138 509.893C978.138 511.147 977.766 512.373 977.069 513.415C976.372 514.458 975.381 515.27 974.222 515.749C973.063 516.229 971.787 516.354 970.557 516.108C969.327 515.863 968.198 515.258 967.312 514.37C966.426 513.483 965.823 512.352 965.58 511.122C965.336 509.892 965.464 508.617 965.945 507.459C966.427 506.302 967.241 505.313 968.286 504.618C969.33 503.923 970.557 503.553 971.811 503.556C972.643 503.556 973.467 503.72 974.235 504.038C975.003 504.357 975.701 504.824 976.289 505.413C976.877 506.001 977.343 506.7 977.66 507.469C977.977 508.238 978.139 509.062 978.138 509.893Z" fill="#192C69"/>
<path d="M1043.57 513.78C1045.72 504.708 1040.11 495.607 1031.04 493.452C1021.96 491.297 1012.86 496.905 1010.7 505.978C1008.55 515.05 1014.16 524.151 1023.23 526.306C1032.31 528.46 1041.41 522.852 1043.57 513.78Z" fill="#A485FF"/>
<path d="M1033.49 509.893C1033.49 511.147 1033.12 512.372 1032.42 513.414C1031.73 514.456 1030.74 515.269 1029.58 515.748C1028.42 516.228 1027.15 516.354 1025.92 516.109C1024.69 515.864 1023.56 515.261 1022.67 514.375C1021.78 513.488 1021.18 512.359 1020.94 511.13C1020.69 509.9 1020.82 508.626 1021.3 507.468C1021.78 506.31 1022.59 505.32 1023.63 504.624C1024.67 503.927 1025.9 503.556 1027.15 503.556C1028.84 503.556 1030.45 504.223 1031.64 505.412C1032.83 506.6 1033.49 508.212 1033.49 509.893Z" fill="#192C69"/>
<path d="M1099.04 513.341C1100.95 504.214 1095.1 495.268 1085.97 493.36C1076.84 491.451 1067.89 497.303 1065.98 506.43C1064.07 515.557 1069.92 524.504 1079.05 526.412C1088.18 528.321 1097.13 522.468 1099.04 513.341Z" fill="#A485FF"/>
<path d="M1088.84 509.893C1088.83 511.144 1088.46 512.365 1087.76 513.404C1087.07 514.443 1086.08 515.251 1084.92 515.728C1083.77 516.205 1082.49 516.329 1081.27 516.083C1080.04 515.838 1078.91 515.234 1078.03 514.349C1077.15 513.464 1076.55 512.337 1076.3 511.11C1076.06 509.884 1076.19 508.613 1076.67 507.458C1077.14 506.302 1077.96 505.315 1079 504.621C1080.04 503.926 1081.26 503.556 1082.51 503.556C1083.34 503.556 1084.17 503.72 1084.93 504.038C1085.7 504.357 1086.4 504.824 1086.99 505.413C1087.58 506.001 1088.04 506.7 1088.36 507.469C1088.68 508.238 1088.84 509.062 1088.84 509.893Z" fill="#192C69"/>
<path d="M1149.81 521.821C1156.4 515.228 1156.4 504.538 1149.81 497.944C1143.21 491.351 1132.52 491.351 1125.92 497.944C1119.33 504.538 1119.33 515.228 1125.92 521.821C1132.52 528.415 1143.21 528.415 1149.81 521.821Z" fill="#A485FF"/>
<path d="M1144.19 509.893C1144.19 511.147 1143.82 512.373 1143.12 513.415C1142.43 514.458 1141.43 515.27 1140.28 515.749C1139.12 516.229 1137.84 516.354 1136.61 516.108C1135.38 515.863 1134.25 515.258 1133.37 514.37C1132.48 513.483 1131.88 512.352 1131.63 511.122C1131.39 509.892 1131.52 508.617 1132 507.459C1132.48 506.302 1133.3 505.313 1134.34 504.618C1135.38 503.923 1136.61 503.553 1137.86 503.556C1138.7 503.556 1139.52 503.72 1140.29 504.038C1141.06 504.357 1141.76 504.824 1142.34 505.413C1142.93 506.001 1143.4 506.7 1143.71 507.469C1144.03 508.238 1144.19 509.062 1144.19 509.893Z" fill="#192C69"/>
<path d="M1201.96 524.353C1209.94 519.521 1212.49 509.139 1207.65 501.164C1202.82 493.189 1192.43 490.641 1184.46 495.473C1176.48 500.305 1173.93 510.687 1178.76 518.662C1183.6 526.637 1193.98 529.185 1201.96 524.353Z" fill="#A485FF"/>
<path d="M1199.55 509.893C1199.55 511.147 1199.18 512.372 1198.48 513.414C1197.78 514.456 1196.79 515.269 1195.63 515.748C1194.48 516.228 1193.2 516.354 1191.97 516.109C1190.74 515.864 1189.61 515.261 1188.73 514.375C1187.84 513.488 1187.23 512.359 1186.99 511.13C1186.75 509.9 1186.87 508.626 1187.35 507.468C1187.83 506.31 1188.64 505.32 1189.69 504.624C1190.73 503.927 1191.95 503.556 1193.21 503.556C1194.89 503.556 1196.5 504.223 1197.69 505.412C1198.88 506.6 1199.55 508.212 1199.55 509.893Z" fill="#192C69"/>
<path d="M1260.51 521.834C1267.1 515.24 1267.1 504.55 1260.51 497.956C1253.91 491.363 1243.22 491.363 1236.62 497.956C1230.03 504.55 1230.03 515.24 1236.62 521.834C1243.22 528.427 1253.91 528.427 1260.51 521.834Z" fill="#A485FF"/>
<path d="M1254.89 509.893C1254.89 511.147 1254.52 512.373 1253.82 513.415C1253.12 514.458 1252.13 515.27 1250.97 515.749C1249.81 516.229 1248.54 516.354 1247.31 516.108C1246.08 515.863 1244.95 515.258 1244.06 514.37C1243.18 513.483 1242.58 512.352 1242.33 511.122C1242.09 509.892 1242.22 508.617 1242.7 507.459C1243.18 506.302 1243.99 505.313 1245.04 504.618C1246.08 503.923 1247.31 503.553 1248.56 503.556C1249.4 503.556 1250.22 503.72 1250.99 504.038C1251.76 504.357 1252.45 504.824 1253.04 505.413C1253.63 506.001 1254.09 506.7 1254.41 507.469C1254.73 508.238 1254.89 509.062 1254.89 509.893Z" fill="#192C69"/>
<path d="M904.331 437.916V469.751C904.331 474.354 915.163 478.095 928.531 478.095C941.899 478.095 952.719 474.403 952.719 469.751V437.916H904.331Z" fill="#404040"/>
<path d="M952.768 437.916C952.768 442.519 941.936 446.26 928.58 446.26C915.224 446.26 904.38 442.568 904.38 437.916C904.38 433.265 915.212 429.561 928.58 429.561C941.948 429.561 952.768 433.302 952.768 437.916Z" fill="#314358"/>
<path d="M952.768 437.916C952.768 442.519 941.936 446.26 928.58 446.26C915.224 446.26 904.38 442.568 904.38 437.916C904.38 433.265 915.212 429.561 928.58 429.561C941.948 429.561 952.768 433.302 952.768 437.916Z" fill="#404040"/>
<path d="M928.531 431.96C941.407 431.96 949.629 435.517 949.629 437.978C949.629 440.439 941.407 443.995 928.531 443.995C915.655 443.995 907.42 440.427 907.42 437.978C907.42 435.529 915.643 431.96 928.531 431.96ZM928.531 429.622C915.163 429.622 904.331 433.314 904.331 437.978C904.331 442.642 915.163 446.321 928.531 446.321C941.899 446.321 952.719 442.629 952.719 437.978C952.719 433.326 941.887 429.622 928.531 429.622Z" fill="#2D4CB3"/>
<path d="M1016.11 437.916V469.751C1016.11 474.354 1026.96 478.095 1040.31 478.095C1053.67 478.095 1064.51 474.403 1064.51 469.751V437.916H1016.11Z" fill="#404040"/>
<path d="M1064.51 437.916C1064.51 442.519 1053.68 446.26 1040.31 446.26C1026.94 446.26 1016.11 442.568 1016.11 437.916C1016.11 433.265 1026.96 429.561 1040.31 429.561C1053.67 429.561 1064.51 433.302 1064.51 437.916Z" fill="#314358"/>
<path d="M1064.51 437.916C1064.51 442.519 1053.68 446.26 1040.31 446.26C1026.94 446.26 1016.11 442.568 1016.11 437.916C1016.11 433.265 1026.96 429.561 1040.31 429.561C1053.67 429.561 1064.51 433.302 1064.51 437.916Z" fill="#404040"/>
<path d="M1040.31 431.96C1053.2 431.96 1061.42 435.517 1061.42 437.978C1061.42 440.439 1053.2 443.995 1040.31 443.995C1027.42 443.995 1019.24 440.365 1019.24 437.916C1019.24 435.467 1027.47 431.899 1040.35 431.899L1040.31 431.96ZM1040.35 429.561C1026.99 429.561 1016.15 433.252 1016.15 437.916C1016.15 442.58 1026.99 446.26 1040.35 446.26C1053.71 446.26 1064.55 442.568 1064.55 437.916C1064.55 433.265 1053.72 429.561 1040.35 429.561Z" fill="#2D4CB3"/>
<path d="M1020.94 440.045C1023.99 442.026 1030.91 443.934 1040.31 443.934C1049.72 443.934 1056.65 442.026 1059.7 440.045C1055.28 438.014 1048.25 436.698 1040.31 436.698C1032.37 436.698 1025.39 438.014 1020.94 440.045Z" fill="#E2581D"/>
<path d="M1127.91 437.916V469.751C1127.91 474.354 1138.75 478.095 1152.11 478.095C1165.46 478.095 1176.31 474.403 1176.31 469.751V437.916H1127.91Z" fill="#404040"/>
<path d="M1176.31 437.916C1176.31 442.519 1165.47 446.26 1152.11 446.26C1138.74 446.26 1127.91 442.568 1127.91 437.916C1127.91 433.265 1138.75 429.561 1152.11 429.561C1165.46 429.561 1176.31 433.302 1176.31 437.916Z" fill="#314358"/>
<path d="M1176.31 437.916C1176.31 442.519 1165.47 446.26 1152.11 446.26C1138.74 446.26 1127.91 442.568 1127.91 437.916C1127.91 433.265 1138.75 429.561 1152.11 429.561C1165.46 429.561 1176.31 433.302 1176.31 437.916Z" fill="#404040"/>
<path d="M1152.11 431.96C1164.99 431.96 1173.22 435.517 1173.22 437.978C1173.22 440.439 1164.99 443.995 1152.11 443.995C1139.22 443.995 1131 440.427 1131 437.978C1131 435.529 1139.22 431.96 1152.11 431.96ZM1152.11 429.622C1138.75 429.622 1127.91 433.314 1127.91 437.978C1127.91 442.642 1138.75 446.321 1152.11 446.321C1165.46 446.321 1176.31 442.629 1176.31 437.978C1176.31 433.326 1165.47 429.622 1152.11 429.622Z" fill="#2D4CB3"/>
<path d="M1132.73 440.045C1135.78 442.026 1142.7 443.934 1152.11 443.934C1161.51 443.934 1168.44 442.026 1171.49 440.045C1167.07 438.014 1160.03 436.698 1152.11 436.698C1144.18 436.698 1137.14 438.014 1132.73 440.045Z" fill="#E2581D"/>
<path d="M1239.7 437.916V469.751C1239.7 474.354 1250.53 478.095 1263.9 478.095C1277.27 478.095 1288.1 474.403 1288.1 469.751V437.916H1239.7Z" fill="#404040"/>
<path d="M1288.1 437.916C1288.1 442.519 1277.27 446.26 1263.9 446.26C1250.53 446.26 1239.7 442.568 1239.7 437.916C1239.7 433.265 1250.53 429.561 1263.9 429.561C1277.27 429.561 1288.1 433.302 1288.1 437.916Z" fill="#314358"/>
<path d="M1288.1 437.916C1288.1 442.519 1277.27 446.26 1263.9 446.26C1250.53 446.26 1239.7 442.568 1239.7 437.916C1239.7 433.265 1250.53 429.561 1263.9 429.561C1277.27 429.561 1288.1 433.302 1288.1 437.916Z" fill="#404040"/>
<path d="M1263.9 431.96C1276.79 431.96 1285.01 435.517 1285.01 437.978C1285.01 440.439 1276.79 443.995 1263.9 443.995C1251.01 443.995 1242.79 440.427 1242.79 437.978C1242.79 435.529 1251.01 431.96 1263.9 431.96ZM1263.9 429.622C1250.53 429.622 1239.7 433.314 1239.7 437.978C1239.7 442.642 1250.53 446.321 1263.9 446.321C1277.27 446.321 1288.1 442.629 1288.1 437.978C1288.1 433.326 1277.27 429.622 1263.9 429.622Z" fill="#2D4CB3"/>
<path d="M1244.5 440.045C1247.54 442.026 1254.47 443.934 1263.88 443.934C1273.28 443.934 1280.21 442.026 1283.26 440.045C1278.84 438.014 1271.8 436.698 1263.88 436.698C1255.95 436.698 1248.93 438.014 1244.5 440.045Z" fill="#E2581D"/>
<path d="M1393.7 402.68C1403.5 427 1455 402.68 1457.5 395C1452.9 416.238 1471.14 403.898 1482 411C1491.5 405.5 1494.38 383.5 1482 373C1469.62 362.5 1428.5 377.4 1420.5 381C1412.5 384.6 1389.6 392.49 1393.7 402.68Z" fill="#FF9D3B"/>
<path d="M1447.5 372.2C1447.5 372.2 1475.5 370.046 1483.5 386C1487.5 394.5 1484 403 1482 411C1491.5 405.5 1494.5 383 1482 373C1472 365 1447.5 372.2 1447.5 372.2Z" fill="#E2581D"/>
<path d="M1101.29 387.156C1101.73 386.619 1102.36 386.276 1103.05 386.201C1103.74 386.125 1104.43 386.323 1104.98 386.753C1104.98 386.753 1110.65 391.106 1127.38 393.548C1141.18 395.569 1153.18 394.985 1155.49 392.007C1155.74 391.67 1155.47 391.047 1155.22 390.423C1154.62 388.845 1154.84 386.266 1149.5 384L1150.5 379C1156.13 381.372 1158.75 384.928 1160.14 388.622C1160.53 389.662 1160.73 390.763 1160.73 391.874L1420.15 428.904C1420.82 428.984 1421.43 429.315 1421.85 429.828C1422.28 430.342 1422.5 431 1422.46 431.668C1422.42 432.336 1422.12 432.962 1421.63 433.419C1421.14 433.876 1420.5 434.13 1419.83 434.127C1419.69 434.141 1419.55 434.143 1419.41 434.134L1157.95 396.743C1147.77 399.712 1137.06 400.394 1126.59 398.742C1108.42 396.076 1102.27 391.349 1101.63 390.818C1101.1 390.376 1100.77 389.743 1100.71 389.057C1100.64 388.371 1100.85 387.687 1101.29 387.156Z" fill="#FBE0D0"/>
<path d="M1444.67 423.824C1444.67 423.824 1433.58 422.956 1430.3 425.587C1427.28 428.005 1428.13 429.521 1428.13 429.521C1428.77 429.608 1429.36 429.901 1429.81 430.356C1430.26 430.81 1430.56 431.401 1430.64 432.038C1431.1 433.843 1428.38 436.015 1426.87 437.054C1426.6 437.247 1426.41 437.539 1426.34 437.869C1426.28 438.199 1426.34 438.542 1426.52 438.826C1426.9 439.477 1427.47 439.996 1428.15 440.313C1428.84 440.631 1429.6 440.732 1430.34 440.603C1431.76 440.333 1436.15 439.497 1436.15 439.497C1437.85 440.325 1439.69 440.861 1441.57 441.081C1443.53 441.034 1448 433.288 1448.67 430.467C1449.33 427.646 1446.81 424.092 1444.67 423.824Z" fill="#404040"/>
<path d="M1373.5 349.412C1373.5 349.412 1377.2 359.7 1370.09 366.801C1366.28 370.591 1355.41 355.824 1357.71 350.212C1360.01 344.601 1373.5 349.412 1373.5 349.412Z" fill="#404040"/>
<path d="M1368.47 357.522L1377.59 379.673C1377.84 382.946 1360.78 393.209 1355.31 389.456C1353.71 388.336 1353.92 385.161 1355.11 381.654L1362.36 362.506L1368.47 357.522Z" fill="#FF6161"/>
<path d="M1360.9 366.321C1364.48 365.434 1369.37 364.167 1369.37 364.167C1369.18 368.121 1367.51 371.859 1364.68 374.627C1362.37 376.911 1359.39 378.387 1356.17 378.836L1360.9 366.321Z" fill="#192C69"/>
<path d="M1362.88 349.51L1368.83 361.816C1369.61 363.849 1369.58 366.109 1368.73 368.115C1367.87 370.122 1366.27 371.716 1364.26 372.559C1360.92 373.95 1358.68 374.258 1354.18 374.307C1350.42 374.307 1348.02 371.058 1347.42 366.21C1346.83 361.035 1347.14 355.799 1348.33 350.729C1349.98 343.456 1358.41 341.684 1362.88 349.51Z" fill="#FF6161"/>
<path d="M1364.22 354.827C1362.51 354.729 1363.72 355.873 1362.5 357.805C1361.28 359.737 1360.14 359.7 1354.45 358.371C1352.05 357.741 1349.51 357.874 1347.19 358.753C1347.05 361.079 1345.3 364.463 1345.65 367.059C1346.29 371.895 1349.98 376.645 1353.73 376.609C1358.24 376.609 1361.12 375.181 1364.52 373.79C1368.69 372.043 1370.46 366.05 1368.83 361.817L1365.61 355.147C1365.17 354.975 1364.7 354.867 1364.22 354.827Z" fill="#192C69"/>
<path d="M1368.83 361.817L1368.16 360.438C1366.63 361.468 1365.35 362.821 1364.41 364.401C1363.18 367.342 1356.8 372.178 1354.89 372.252C1352.98 372.326 1352.21 371.243 1350.14 371.846C1349.01 372.178 1347.56 371.145 1346.45 370.16C1347.88 373.741 1350.77 376.633 1353.7 376.608C1358.2 376.608 1361.08 375.181 1364.48 373.79C1368.69 372.043 1370.46 366.05 1368.83 361.817Z" fill="#404040"/>
<path d="M1355.99 360.857C1353.51 361.06 1351.01 360.852 1348.6 360.242C1348.6 360.242 1348.16 363.047 1349.76 364.229C1351.36 365.41 1354.58 364.106 1355.99 360.857Z" fill="white"/>
<path d="M1359.21 345.29C1359.21 345.29 1363.02 349.671 1363.05 352.292C1363.09 354.913 1362.91 356.057 1363.84 356.636C1364.78 357.214 1367.02 354.925 1366.61 352.243C1366.2 349.56 1364.21 343.026 1359.21 345.29Z" fill="#404040"/>
<path d="M1364.89 355.738C1365.12 354.934 1365.27 354.11 1365.34 353.276C1365.48 351.664 1366.07 349.314 1368.35 350.692C1371.67 352.71 1370.44 361.238 1366.4 361.534C1363.4 361.718 1364.25 357.78 1364.89 355.738Z" fill="#FF6161"/>
<path d="M1367.35 349.88L1373.9 355.848C1374.16 356.07 1374.36 356.346 1374.5 356.657C1374.64 356.967 1374.71 357.304 1374.71 357.645L1373.89 360.241L1364.27 350.507L1367.35 349.88Z" fill="#E8E8E8"/>
<path opacity="0.7" d="M1345.02 346.373C1345.02 346.373 1342.26 360.106 1341.89 366.283C1341.52 372.461 1345.01 375.944 1347.43 376.719C1349.86 377.494 1360.74 379.032 1364.26 376.116C1367.78 373.199 1365.69 350.507 1365.69 350.507C1365.69 350.507 1347.38 349.08 1345.02 346.373Z" fill="#E8E8E8"/>
<path d="M1346.73 341.955C1346.96 341.34 1347.2 340.724 1347.4 340.084C1348.05 337.943 1350.4 332.935 1358.13 331.913C1359.16 331.778 1360.2 330.203 1361.39 330.08C1366.54 329.563 1367.4 332.701 1369.05 333.267C1373.76 334.879 1374.64 336.959 1374.85 343.185C1375.04 349.154 1373.61 350.052 1373.61 350.052C1373.61 350.052 1362.25 351.8 1355.03 350.237C1348.34 348.809 1345.44 345.487 1346.73 341.955Z" fill="#FF9D3B"/>
<path d="M1374.85 343.186C1374.64 337.033 1373.76 334.879 1369.05 333.267C1368.81 333.171 1368.59 333.042 1368.4 332.886C1366.38 333.389 1364.53 334.416 1363.04 335.864C1360.64 338.719 1358.04 345.548 1357.75 347.148C1357.62 347.862 1359.15 349.388 1360.89 350.84C1365.14 350.906 1369.39 350.635 1373.6 350.028C1373.6 350.028 1375.04 349.154 1374.85 343.186Z" fill="#E2581D"/>
<path d="M1346.94 344.232C1346.32 343.099 1338.15 348.711 1343.96 350.471C1351.47 352.698 1359.45 352.792 1367 350.741C1367 350.741 1350 349.868 1346.94 344.232Z" fill="#FFCC80"/>
<path d="M1251.25 417.476C1257.47 420.208 1262.51 415.421 1264.11 412.381C1265.71 409.342 1267.58 408.419 1265.64 407.459C1263.69 406.499 1262.14 410.942 1260.63 410.376C1259.11 409.81 1254.87 407.841 1252.51 408.887C1250.16 409.933 1249.04 416.516 1251.25 417.476Z" fill="#404040"/>
<path d="M1264.61 403.386C1264.61 403.386 1267.29 407.152 1264.45 407.201C1262.14 407.134 1259.84 406.829 1257.59 406.29C1255.96 406.996 1254.15 407.147 1252.43 406.721C1250.16 405.884 1251.46 402.549 1256.38 402.488C1261.3 402.426 1263.93 402.205 1264.61 403.386Z" fill="#404040"/>
<path d="M1457.51 394.96C1447.62 411.482 1436.75 427.929 1443.02 432.058C1451.9 437.884 1468.76 427.3 1482.08 410.975C1479.91 404.561 1473.66 392.595 1457.51 394.96Z" fill="#404040"/>
<path d="M813.672 453.902C813.672 453.902 816.343 491.09 827.705 499.618C839.066 508.146 855.93 510.152 851.314 474.17C846.698 438.187 830.388 413.132 825.981 411.04C821.575 408.948 810.324 432.047 813.672 453.902Z" fill="#E2581D"/>
<path d="M731.482 512.318C731.261 504.934 734.756 494.868 737.637 493.859C747.706 494.794 774.491 501.489 799.947 496.751C803.074 504.331 818.817 556.607 819.642 570.377C822.658 622.431 810.348 660.702 806.729 686.827C806.188 690.753 787.379 698.013 779.193 685.818C773.839 677.856 784.351 593.524 784.351 593.524L775.008 536.659C773.273 557.702 773.876 578.573 771.574 595.727C768.127 621.348 763.487 662.819 756.47 687.369C755.449 690.925 737.834 693.128 735.2 685.634C725.598 658.401 732.048 583.667 732.048 583.667C732.048 583.667 732.171 535.97 731.482 512.318Z" fill="#E2581D"/>
<path d="M736.517 494.72C734.375 496.997 732.221 503.125 731.593 508.774C738.105 513.597 765.148 527.749 780.215 522.101C796.845 515.862 746.82 498.24 736.517 494.72Z" fill="#192C69"/>
<path d="M800.009 496.738C796.833 497.329 793.632 497.747 790.456 497.969C789.198 505.386 789.555 512.988 791.503 520.255C796.426 537.298 801.449 528.77 802.864 547.586C804.28 566.402 815.297 615.761 809.967 626.762C804.637 637.764 802.15 629.223 799.307 645.221C796.463 661.219 788.302 662.252 785.767 678.595C785.116 682.746 785.07 686.97 785.631 691.134C794.605 694.974 806.299 689.83 806.717 686.753C810.336 660.628 822.646 622.357 819.63 570.303C818.879 556.594 803.135 504.319 800.009 496.738Z" fill="#C63F20"/>
<path d="M748.641 419.113C755.941 406.081 761.603 400.654 785.988 400.1C810.164 399.522 830.019 409.059 832.222 419.617C835.915 437.485 818.682 448.438 814.226 464.558C806.656 491.705 807.96 519.738 807.96 519.738C807.96 519.738 780.88 531.761 736.307 505.882C735.264 505.283 734.453 504.35 734.006 503.233C733.56 502.116 733.503 500.882 733.846 499.729C733.846 499.729 741.12 432.563 748.641 419.113Z" fill="#FF9D3B"/>
<path d="M734.769 491.324C739.409 496.061 747.484 501.095 760.618 500.184C780.597 498.793 747.927 482.217 736.652 476.803C735.877 482.414 735.236 487.423 734.769 491.324Z" fill="#192C69"/>
<path d="M786.284 401.392C788.905 397.097 806.668 400.162 809.671 403.853C812.675 407.545 809.671 427.235 809.671 427.235C809.671 427.235 782.024 408.394 786.284 401.392Z" fill="white"/>
<path d="M816.503 473.8C817.869 472.787 819.109 471.614 820.196 470.306C827.766 461.125 824.283 431.111 824.283 431.111L813.807 454.726C814.368 461.128 815.268 467.494 816.503 473.8Z" fill="#192C69"/>
<path d="M836.863 504.294C845.135 507.297 866.172 509.573 868.03 496.258C869.889 482.943 838.845 472.373 838.845 472.373C838.845 472.373 825.181 500.048 836.863 504.294Z" fill="#E2581D"/>
<path d="M836.863 504.294C845.135 507.297 866.171 509.573 868.03 496.258C869.889 482.943 846.489 474.305 846.489 474.305C846.489 474.305 825.181 500.049 836.863 504.294Z" fill="#404040"/>
<path d="M832.222 419.654C830.881 413.218 822.99 407.176 811.567 403.558C813.018 406.815 813.53 410.412 813.044 413.944C812.096 423.654 805.659 421.328 800.501 435.959C795.343 450.591 788.893 469.333 788.659 484.715C788.45 498.584 786.111 513.991 786 522.445C800.156 523.245 807.96 519.775 807.96 519.775C807.96 519.775 806.656 491.742 814.226 464.595C818.731 448.438 835.94 437.485 832.222 419.654Z" fill="#E2581D"/>
<path d="M775.045 536.659C775.045 536.659 754.328 554.035 759.511 572.493C764.693 590.952 768.509 593.081 762.588 604.489C756.667 615.896 752.888 621.286 750.512 642.354C748.137 663.422 750.992 670.756 747.435 681.88C746.389 685.166 745.244 688.033 744.407 690.581C749.922 690.987 755.904 689.35 756.482 687.369C763.499 662.819 768.139 621.348 771.586 595.727C773.913 578.573 773.309 557.702 775.045 536.659Z" fill="#C63F20"/>
<path d="M801.042 368.486C801.042 368.486 787.502 385.444 795.405 390.846C803.307 396.248 817.734 377.31 814.644 373.347C811.555 369.385 801.042 368.486 801.042 368.486Z" fill="#192C69"/>
<path d="M799.935 381.162L786.702 402.672C785.877 406.056 801.916 419.667 808.256 416.627C810.115 415.741 810.435 412.394 809.782 408.542L805.462 387.351L799.935 381.162Z" fill="#FF6161"/>
<path d="M806.286 391.609C802.717 390.083 797.842 387.917 797.842 387.917C797.363 392.072 798.476 396.253 800.956 399.62C802.976 402.383 805.834 404.421 809.105 405.429L806.286 391.609Z" fill="#192C69"/>
<path d="M808.49 374.516L798.556 385.038C797.097 386.83 796.399 389.124 796.613 391.425C796.827 393.726 797.936 395.851 799.701 397.344C802.618 399.805 804.772 400.839 809.29 402.34C813.044 403.571 816.479 401.023 818.682 396.359C820.922 391.34 822.287 385.976 822.719 380.497C823.384 372.597 815.469 368.13 808.49 374.516Z" fill="#FF6161"/>
<path d="M811.666 388.594C811.666 388.594 818.977 390.428 818.67 392.151C818.67 392.151 818.436 393.123 816.392 392.643C815.344 392.382 814.37 391.881 813.55 391.178C812.729 390.475 812.084 389.59 811.666 388.594Z" fill="white"/>
<path d="M812.576 398.181C808.97 395.51 803.098 400.113 798.716 391.068C797.891 389.382 798.408 386.502 798.716 384.804L798.507 385.038C797.047 386.83 796.35 389.124 796.564 391.425C796.778 393.726 797.887 395.851 799.652 397.344C802.569 399.805 804.723 400.839 809.241 402.34C810.335 402.69 811.505 402.726 812.618 402.446C813.732 402.165 814.745 401.579 815.543 400.753C814.829 400.482 813.672 398.993 812.576 398.181Z" fill="#AD263D"/>
<path d="M806.459 372.855L795.725 373.36L794.691 377.445L808.613 375.538L806.459 372.855Z" fill="#E8E8E8"/>
<path d="M810.238 373.926C810.238 373.926 809.081 379.303 807.776 380.866C806.471 382.429 804.243 380.399 804.735 377.347C805.228 374.295 807.936 372.498 810.238 373.926Z" fill="#192C69"/>
<path d="M805.154 379.882C805.082 378.992 805.103 378.097 805.215 377.211C805.412 375.513 805.314 372.953 802.655 373.889C798.79 375.267 798.236 384.349 802.347 385.518C805.4 386.428 805.363 382.134 805.154 379.882Z" fill="#FF6161"/>
<path d="M829.182 373.987C829.182 373.236 829.293 372.486 829.403 371.735C829.748 369.274 829.723 362.973 822.289 358.198C821.291 357.571 820.996 355.454 819.827 354.753C814.792 351.763 812.441 354.568 810.447 354.359C804.846 353.768 802.926 355.59 799.762 361.743C796.697 367.772 797.744 369.385 797.744 369.385C797.744 369.385 808.564 376.608 816.725 378.466C824.246 380.275 828.825 378.232 829.182 373.987Z" fill="#FFB03B"/>
<path d="M799.762 361.817C802.926 355.59 804.846 353.818 810.447 354.433C810.732 354.45 811.018 354.426 811.296 354.359C813.127 355.837 814.533 357.773 815.371 359.971C816.466 364.044 815.863 372.277 815.371 374.073C815.161 374.873 812.909 375.71 810.373 376.399C805.981 374.427 801.75 372.115 797.719 369.483C797.719 369.483 796.697 367.834 799.762 361.817Z" fill="#FF9147"/>
<path d="M827.877 376.215C829.108 375.353 829.034 384.127 822.227 383.155C807.8 381.112 804.194 373.311 804.194 373.311C804.194 373.311 822.042 380.534 827.877 376.215Z" fill="#FFCC80"/>
<path d="M756.852 699.896C755.975 699.466 755.305 698.708 754.986 697.785C754.668 696.863 754.728 695.852 755.153 694.974C757.898 689.301 763.179 678.201 762.539 671.691C761.788 663.532 738.425 672.921 734.535 678.841C732.565 681.819 734.055 689.264 735.273 694.654C735.934 697.632 735.98 700.714 735.409 703.711C735.04 705.704 734.99 707.919 736.32 708.633C741.243 711.439 771.069 711.599 770.712 708.719C770.589 707.427 761.874 702.406 756.852 699.896Z" fill="#192C69"/>
<path d="M805.548 699.896C804.669 699.469 803.996 698.711 803.675 697.788C803.355 696.866 803.413 695.853 803.837 694.974C806.582 689.301 811.863 678.201 811.222 671.691C810.472 663.532 787.121 672.921 783.219 678.841C781.261 681.819 782.751 689.264 783.969 694.654C784.623 697.633 784.669 700.713 784.105 703.711C783.736 705.704 783.686 707.919 785.003 708.633C789.927 711.439 819.753 711.599 819.408 708.719C819.285 707.427 810.558 702.406 805.548 699.896Z" fill="#192C69"/>
<path d="M1063.43 460.498C1062.98 459.968 1062.34 459.635 1061.65 459.571C1060.96 459.506 1060.27 459.715 1059.74 460.153C1059.74 460.153 1054.14 464.596 1037.44 467.303C1023.68 469.543 1011.67 469.149 1009.32 466.208C1009.06 465.875 1009.32 465.248 1009.56 464.62C1010.13 463.033 1010.79 461.15 1016.1 458.799V452.88C1010.51 455.342 1005.94 459.181 1004.62 462.897C1004.24 463.943 1004.06 465.048 1004.07 466.158L745.269 507.297C744.606 507.387 744.003 507.728 743.583 508.249C743.163 508.769 742.957 509.431 743.009 510.097C743.061 510.764 743.366 511.386 743.862 511.835C744.357 512.285 745.006 512.528 745.675 512.515C745.814 512.527 745.954 512.527 746.093 512.515L1006.93 470.982C1017.15 473.789 1027.87 474.302 1038.32 472.484C1056.44 469.53 1062.52 464.706 1063.15 464.165C1063.67 463.715 1063.99 463.077 1064.04 462.39C1064.1 461.703 1063.88 461.022 1063.43 460.498Z" fill="#FBE0D0"/>
<path d="M865.298 495.606C865.298 495.606 865.864 491.594 867.439 491.742C869.015 491.89 869.557 492.911 870.861 492.345C872.166 491.779 877.989 490.253 877.989 490.253C877.989 490.253 876.068 484.1 879.478 485.946C882.888 487.792 882.235 491.767 881.472 493.846C880.709 495.926 868.904 500.873 865.298 495.606Z" fill="#404040"/>
<path d="M863.931 488.419C863.931 488.419 865.642 484.605 868.116 483.805C870.591 483.005 875.022 487.3 875.97 487.595C876.918 487.89 877.422 489.047 875.674 489.638C873.926 490.228 872.474 488.542 870.061 488.542C867.649 488.542 863.931 488.419 863.931 488.419Z" fill="#404040"/>
<path d="M769.58 436.882L782.258 440.377C782.258 440.377 781.532 454.074 773.95 453.914C766.367 453.754 765.665 448.622 769.58 436.882Z" fill="#E2581D"/>
<path d="M764.619 406.241C753.996 404.764 735.766 425.18 732.368 450.234C731.31 458.11 731.322 465.654 732.873 471.807C738.203 492.936 804.021 521.325 821.833 500.036C834.142 485.269 772.399 474.612 763.77 458.849C756.876 446.247 787.391 409.404 764.619 406.241Z" fill="#FF9D3B"/>
<path d="M821.833 500.036C822.46 499.319 822.933 498.482 823.224 497.575C820.43 499.261 816.922 501.636 812.539 501.513C804.255 501.279 798.814 496.775 788.635 492.751C778.455 488.727 755.953 487.546 751.226 482.574C746.5 477.602 744.124 467.905 738.437 465.53C735.544 464.3 733.267 460.547 731.728 457.125C731.39 462.049 731.775 466.995 732.873 471.806C738.203 492.936 804.021 521.325 821.833 500.036Z" fill="#E2581D"/>
<path d="M815.937 497.354C817.759 500.061 823.052 502.017 826.375 501.759C832.284 501.291 835.743 499.052 834.524 498.313C832.924 497.341 826.966 497.427 826.449 495.594C826.129 494.499 828.911 494.72 831.25 493.846C832.308 493.453 832.776 491.385 831.324 491.754C826.671 492.985 822.436 485.355 816.097 490.758C814.669 491.976 814.903 495.791 815.937 497.354Z" fill="#404040"/>
<path d="M765.259 460.953C764.688 460.307 764.189 459.602 763.77 458.849C756.876 446.248 787.391 409.404 764.619 406.241C764.058 406.185 763.493 406.185 762.933 406.241C763.839 409.185 764.36 412.233 764.484 415.311C764.914 424.774 764.828 425.524 759.732 436.735C754.636 447.946 758.797 452.462 758.944 456.105C758.994 457.36 761.739 459.181 765.259 460.953Z" fill="#E2581D"/>
<path d="M792.229 474.883C787.588 479.301 777.741 491.656 780.904 505.365C795.072 508.158 813.069 511.346 821.833 500.037C828.172 491.853 808.748 481.898 792.229 474.883Z" fill="#404040"/>
<path d="M554.793 432.501C554.793 432.501 521.459 469.321 530.174 496.714C538.889 524.106 558.055 553.321 558.055 553.321L554.793 432.501Z" fill="#E2581D"/>
<path d="M569.946 403.374C569.946 403.374 567.853 398.304 568.85 395.805C569.847 393.307 574.316 396.79 574.316 396.79C574.316 396.79 573.836 407.865 573.885 408.001C573.934 408.136 570.5 405.096 569.946 403.374Z" fill="#CECECE"/>
<path d="M600.818 391.892C600.818 391.892 602.049 398.906 603.895 405.773C605.742 412.64 606.037 419.15 599.501 421.66C594.922 423.407 582.526 417.857 582.994 408.48C583.462 399.103 600.818 391.892 600.818 391.892Z" fill="#FF6161"/>
<path d="M593.063 416.652C597.41 416.81 601.666 415.384 605.04 412.64C605.126 416.676 603.809 420.024 599.501 421.66C596.091 422.965 588.422 420.221 584.816 414.868C587.452 415.898 590.236 416.501 593.063 416.652Z" fill="#AD263D"/>
<path d="M569.774 431.246C571.118 425.402 572.937 419.677 575.214 414.129C578.009 407.89 581.369 404.53 586.096 402.635C596.116 398.574 599.895 437.645 595.266 439.762C590.638 441.879 569.774 431.246 569.774 431.246Z" fill="#FF6161"/>
<path d="M580.249 416.467L575.214 414.129C575.214 414.129 566.672 387.278 577.196 382.22C587.721 377.162 600.092 385.912 600.301 390.932C600.51 395.953 601.015 405.133 599.181 404.629C597.347 404.124 594.663 404.358 593.026 408.321C591.389 412.283 580.249 416.467 580.249 416.467Z" fill="#192C69"/>
<path d="M599.562 405.859C599.693 404.863 599.53 403.849 599.093 402.944C598.655 402.039 597.963 401.281 597.1 400.765C594.158 399.189 592.534 402.943 594.959 408.05C597.384 413.157 599.747 411.446 599.562 405.859Z" fill="#FF6161"/>
<path d="M596.583 394.784C596.583 394.784 609.668 390.317 609.004 384.62C608.339 378.922 597.679 375.427 594.959 376.153C592.238 376.879 588.188 393.172 596.583 394.784Z" fill="#FFCC80"/>
<path d="M593.137 396.162C593.137 396.162 589.85 405.822 582.994 408.468C576.138 411.114 569.946 403.373 569.946 403.373L571.694 407.274C572.241 408.518 573.063 409.621 574.1 410.499C575.136 411.378 576.359 412.009 577.676 412.344C580.258 413.072 583.016 412.845 585.443 411.704C591.204 408.763 596.522 397.479 596.263 394.378C596.005 391.277 593.137 396.162 593.137 396.162Z" fill="white"/>
<path d="M597.396 394.07C592.632 398.328 585.087 404.198 576.741 402.094C575.483 401.71 574.25 401.25 573.048 400.716C571.643 400.138 570.391 399.243 569.389 398.101C568.387 396.958 567.664 395.6 567.275 394.132C565.872 388.939 564.751 380.743 569.737 376.104C577.467 368.929 583.585 367.084 592.484 372.683C595.058 374.287 597.295 376.377 599.07 378.836C600.733 381.13 601.483 383.96 601.173 386.776C600.864 389.592 599.517 392.192 597.396 394.07Z" fill="#FFB03B"/>
<path d="M573.639 390.625C577.245 390.256 580.347 386.293 583.265 381.519C583.863 380.437 584.723 379.523 585.767 378.86C586.81 378.197 588.004 377.807 589.237 377.725C590.471 377.643 591.706 377.872 592.828 378.39C593.95 378.909 594.924 379.701 595.66 380.694C598.356 384.017 598.701 390.071 598.713 392.692C598.341 393.184 597.929 393.645 597.482 394.071C592.718 398.328 585.173 404.198 576.827 402.094C575.569 401.71 574.336 401.25 573.134 400.716C571.729 400.138 570.477 399.243 569.475 398.101C568.474 396.959 567.75 395.6 567.361 394.132C566.949 392.641 566.637 391.124 566.425 389.591C569.54 391.585 571.374 390.859 573.639 390.625Z" fill="#FF9147"/>
<path d="M582.157 731.547C581.151 731.054 580.382 730.182 580.018 729.124C579.653 728.065 579.723 726.905 580.212 725.898C583.339 719.438 589.358 706.775 588.669 699.354C587.819 690.051 561.194 700.794 556.75 707.513C554.51 710.91 556.209 719.388 557.6 725.541C558.343 728.938 558.393 732.45 557.747 735.866C557.329 738.13 557.28 740.653 558.781 741.514C564.419 744.702 598.393 744.898 597.999 741.613C597.814 740.124 587.868 734.402 582.157 731.547Z" fill="#192C69"/>
<path d="M554.707 457.052C554.707 457.052 544.786 488.038 545.856 491.754C546.927 495.471 558.609 503.494 558.609 503.494L554.707 457.052Z" fill="#192C69"/>
<path d="M642.928 731.547C641.928 731.049 641.163 730.177 640.799 729.121C640.435 728.064 640.501 726.906 640.983 725.898C644.11 719.438 650.129 706.775 649.452 699.354C648.591 690.051 621.965 700.794 617.522 707.513C615.294 710.91 616.992 719.388 618.371 725.541C619.119 728.937 619.173 732.449 618.531 735.866C618.113 738.13 618.051 740.653 619.553 741.514C625.19 744.702 659.177 744.898 658.771 741.613C658.574 740.124 648.652 734.402 642.928 731.547Z" fill="#192C69"/>
<path d="M603.428 540.141C603.428 540.141 603.144 606.015 602.332 623.501C601.544 640.73 592.484 716.165 585.222 720.299C577.959 724.434 561.834 721.628 556.27 718.207C550.706 714.786 559.655 632.989 560.345 623.969C561.034 614.949 549.869 555.647 554.621 538.763C559.372 521.879 603.428 540.141 603.428 540.141Z" fill="#E2581D"/>
<path d="M603.427 540.141C597.133 537.624 590.676 535.531 584.102 533.877C576.482 535.17 568.801 537.089 568.801 537.089C568.801 537.089 556.566 558.883 564.407 579.963C572.248 601.043 586.662 597.597 586.982 619.231C587.302 640.865 564.284 710.479 568.715 721.911C574.759 722.736 581.283 722.539 585.197 720.299C592.435 716.164 601.519 640.729 602.307 623.501C603.181 606.015 603.427 540.141 603.427 540.141Z" fill="#C63F20"/>
<path d="M553.501 547.906C553.384 554.421 553.63 560.936 554.239 567.423C563.262 570.648 583.117 575.816 592.263 563.313C602.11 549.851 566.745 548.103 553.501 547.906Z" fill="#192C69"/>
<path d="M651.286 610.395C647.594 573.847 632.638 535.686 629.856 528.943C619.882 530.636 609.777 531.435 599.661 531.33C593.223 540.806 589.604 549.986 601.347 591.518C605.04 604.649 616.882 626.295 617.928 636.262C620.931 664.8 613.595 707.636 617.411 718.183C619.873 724.865 637.106 728.852 644.492 718.183C649.415 711.131 660.174 697.89 651.286 610.395Z" fill="#E2581D"/>
<path d="M651.286 610.395C648.258 580.603 637.746 549.752 632.502 535.699H597.027C595.716 538.198 594.795 540.883 594.294 543.661C597.236 552.09 602.911 565.368 611.441 574.302C624.87 588.269 613.903 588.688 624.218 605.412C634.533 622.135 633.302 627.144 632.428 657.244C631.591 686.101 630.422 715.512 633.45 724.619C635.649 724.397 637.775 723.709 639.686 722.599C641.597 721.489 643.248 719.983 644.529 718.183C649.415 711.131 660.174 697.89 651.286 610.395Z" fill="#C63F20"/>
<path d="M638.14 551.893C640.22 547.328 629.019 522.495 628.982 506.042C628.92 478.403 637.377 453.668 625.461 436.957C609.853 415.077 551.494 416.234 551.236 442.408C551.137 452.671 554.719 467.623 553.439 485.479C552.848 493.724 545.98 551.844 552.208 557.357C554.892 559.757 562.302 564.064 567.57 564.852C569.06 565.073 576.876 565.59 579.326 565.578C600.436 565.455 633.204 556.84 638.14 551.893Z" fill="#FF9D3B"/>
<path d="M629.031 506.042C628.97 478.403 637.426 453.668 625.511 436.956C621.818 431.8 615.798 427.936 608.708 425.364C610.616 436.28 608.881 457.778 609.496 475.289C610.136 493.219 605.803 537.015 611.958 561.233C624.71 558.329 635.567 554.576 638.238 551.893C640.22 547.328 629.031 522.495 629.031 506.042Z" fill="#E2581D"/>
<path d="M629.646 491.029C630.213 483.78 631.037 476.828 631.493 470.256L615.491 452.819C615.491 452.819 621.141 478.058 629.646 491.029Z" fill="#192C69"/>
<path d="M637.894 544.202C636.887 544.139 635.885 544.372 635.009 544.873C634.134 545.374 633.425 546.121 632.97 547.02C631.087 550.256 634.115 557.16 636.318 559.56C638.522 561.959 642.571 566.476 643.519 570.081C644.467 573.687 650.117 564.261 647.286 556.631C645.299 551.736 642.06 547.45 637.894 544.202Z" fill="#FF6161"/>
<path d="M615.343 428.367C615.343 428.367 654.733 447.736 668.273 486.61C681.814 525.485 655.89 566.439 640.134 557.985C624.378 549.53 649.145 512.145 644.122 496.357C638.263 478.193 605.914 463.598 615.343 428.367Z" fill="#FF9D3B"/>
<path d="M668.212 486.611C662.525 470.219 652.21 457.31 642.239 447.847C642.945 458.06 646.511 467.868 652.53 476.151C664.445 492.321 663.731 498.154 660.592 509.044C657.453 519.935 651.791 523.811 648.086 533.742C645.686 540.227 638.842 548.743 637.611 556.225C638.32 556.986 639.153 557.622 640.073 558.108C655.829 566.439 681.691 525.485 668.212 486.611Z" fill="#E2581D"/>
</g>
<defs>
<clipPath id="clip0">
<rect width="1110" height="604" fill="white" transform="translate(405 160)"/>
</clipPath>
</defs>
</svg>
