<svg width="1920" height="854" viewBox="0 0 1920 854" fill="none" xmlns="http://www.w3.org/2000/svg">
<path opacity="0.73" d="M1920 0H0V854H1920V0Z" fill="#C6DAF7"/>
<path d="M1471.57 671.044C1620.74 519.745 1357.63 189.907 1107.21 204.086C860.884 218.078 915.892 402.772 721.22 468.627C526.548 534.483 461.657 397.361 417.278 511.722C384.273 596.607 447.299 649.59 481.795 671.044C560.485 662.463 752.733 656.493 977.426 656.493C1200.81 656.493 1392.13 662.463 1471.57 671.044Z" fill="#C6DAF7"/>
<path d="M1001.11 791.747C1003.16 796.038 1001.48 801.075 997.192 803.127C992.904 805.179 987.869 803.5 985.818 799.209C983.767 794.918 985.445 789.881 989.734 787.829C994.022 785.777 999.057 787.456 1001.11 791.747Z" fill="white"/>
<mask id="mask0" mask-type="alpha" maskUnits="userSpaceOnUse" x="408" y="203" width="1107" height="469">
<path d="M1471.57 671.044C1620.74 519.745 1357.63 189.907 1107.21 204.086C860.884 218.078 915.892 402.772 721.22 468.627C526.548 534.483 461.657 397.361 417.278 511.722C384.273 596.607 447.299 649.59 481.795 671.044C560.485 662.463 752.733 656.493 977.426 656.493C1200.81 656.493 1392.13 662.463 1471.57 671.044Z" fill="#C6DAF7"/>
</mask>
<g mask="url(#mask0)">
<path opacity="0.25" d="M1316.98 259.495L1305.61 244.943C1296.1 252.219 1284.35 257.816 1272.05 262.107L1141.89 223.862C1134.99 213.415 1129.4 202.221 1126.41 191.027L1108.51 195.878C1117.46 229.645 1146.74 262.293 1164.27 279.643C1129.77 286.173 1082.22 302.963 1062.83 346.618C1039.89 398.668 1083.53 448.853 1111.31 474.038C1054.44 478.889 1013.41 505.38 998.497 547.17C985.258 584.109 996.26 626.271 1026.65 654.628C1030.94 658.546 1034.86 662.65 1038.96 666.568C993.836 677.762 964.374 692.127 962.696 693.06L970.9 709.663C971.087 709.477 978.732 705.746 991.971 700.709L1089.31 727.946C1103.67 749.028 1110.94 763.579 1111.12 763.952L1127.72 755.744C1127.16 754.624 1121.38 743.058 1110.19 725.708L1110.56 724.402L1108.89 724.029C1100.31 710.969 1088.93 695.112 1074.58 678.135C1084.09 676.456 1093.97 674.963 1104.22 674.03C1117.46 672.725 1129.96 668.993 1141.15 663.397C1165.2 651.457 1183.66 630.935 1191.68 605.563C1203.98 567.132 1191.3 525.716 1157.18 489.709C1194.85 484.299 1246.13 467.882 1257.87 419.563C1262.72 399.228 1260.11 379.639 1253.77 361.916L1254.52 359.304L1252.47 358.745C1241.65 331.134 1222.07 308.373 1207.53 294.008C1221.51 292.702 1281.74 286.546 1316.98 259.495ZM1103.67 324.418L1233.82 362.662C1239.23 375.535 1242.4 389.154 1241.46 403.332L1079.42 355.013C1079.61 354.64 1079.61 354.454 1079.8 354.081C1085.2 341.954 1093.6 332.253 1103.67 324.418ZM1080.54 716.006L1006.7 695.298C1019.57 691.007 1035.23 686.157 1053.32 682.239C1063.95 693.992 1072.9 705.559 1080.54 716.006ZM1102.17 655.561C1087.26 657.054 1073.08 659.292 1060.03 661.904C1053.69 655.001 1046.79 648.099 1039.33 641.196C1026.28 628.883 1017.7 613.585 1013.79 597.541L1148.04 637.092C1135.36 647.166 1119.51 653.695 1102.17 655.561ZM1173.96 599.966C1170.42 611.346 1164.27 621.421 1156.06 629.816L1011.92 587.467C1010.8 576.087 1011.92 564.52 1015.84 553.513C1020.13 541.573 1027.03 531.312 1036.35 522.544L1176.57 563.774C1178.44 575.9 1177.69 588.213 1173.96 599.966ZM1174.34 553.326L1044.93 515.268C1062.83 502.022 1087.26 494 1116.34 492.135C1118.21 492.135 1124.36 492.321 1132.94 491.948C1154.38 511.164 1168.37 532.245 1174.34 553.326ZM1138.72 472.919C1128.28 464.897 1096.21 438.406 1081.85 406.504L1218.53 447.36C1195.97 465.27 1161.28 471.053 1138.72 472.919ZM1226.55 439.898L1077.93 395.497C1074.95 385.236 1074.02 374.602 1076.63 363.782L1240.16 412.66C1239.97 413.407 1239.97 414.339 1239.79 415.086C1237.36 424.973 1232.7 433.182 1226.55 439.898ZM1113.36 317.701C1135.92 303.896 1163.15 298.113 1181.98 295.687C1191.49 303.709 1213.87 324.604 1228.41 351.469L1113.36 317.701ZM1187.58 276.472C1182.73 272.181 1165.57 256.323 1150.28 236.175L1255.82 266.957C1228.6 274.046 1203.8 275.539 1203.8 275.725C1202.87 275.539 1196.71 275.539 1187.58 276.472Z" fill="white"/>
<path opacity="0.25" d="M1018.06 548.179L1015.43 557.129L1172.16 603.167L1174.79 594.217L1018.06 548.179Z" fill="white"/>
<path opacity="0.25" d="M611.017 355.946H597.219C597.219 364.901 595.168 374.416 592.184 383.557L511.071 443.629C501.747 442.883 492.61 441.204 484.592 438.033L479.371 450.719C503.425 460.606 535.871 457.994 553.958 455.383C542.211 478.703 530.836 514.522 547.991 545.491C568.316 582.616 617.917 579.258 645.141 574.221C622.392 610.041 619.595 646.233 637.496 674.031C653.345 698.47 683.367 710.969 713.761 705.746C718.05 704.999 722.152 704.44 726.441 703.88C712.829 735.595 707.98 759.661 707.608 760.967L721.033 763.579C721.033 763.393 722.338 757.236 725.322 747.162L785.365 701.828C804.198 702.761 816.132 704.999 816.505 704.999L819.115 691.567C818.183 691.381 808.673 689.515 793.383 688.396L792.823 687.463L791.891 688.209C780.33 687.463 765.785 687.09 749.19 687.836C752.546 681.493 756.089 674.963 760.191 668.434C765.413 660.039 768.769 650.897 770.634 641.756C774.363 622.167 770.634 602.019 759.259 585.788C742.104 561.162 711.896 549.968 675.162 554.073C688.961 529.26 702.386 491.575 679.078 462.845C669.195 450.719 656.515 443.443 643.09 439.338L641.784 437.659L640.479 438.592C619.408 432.622 597.032 433.928 581.928 436.167C587.709 427.399 611.204 388.967 611.017 355.946ZM553.212 511.537L634.512 451.651C644.581 454.263 654.091 458.554 662.109 465.457L560.485 539.708C560.298 539.521 560.298 539.334 560.112 539.148C555.263 530.38 553.399 520.865 553.212 511.537ZM774.549 701.455L729.051 735.782C732.221 726.267 736.51 714.701 742.291 702.201C754.038 701.455 764.853 701.268 774.549 701.455ZM748.444 661.531C742.663 671.046 737.629 680.374 733.154 689.328C726.254 690.075 718.982 691.008 711.523 692.313C698.471 694.552 685.418 692.687 674.23 687.649L758.14 625.898C758.513 638.025 755.343 650.524 748.444 661.531ZM747.885 593.996C752.919 601.272 756.089 609.481 757.581 618.063L667.517 684.291C660.245 679.814 653.905 673.844 649.243 666.568C644.209 658.733 641.225 649.964 640.106 640.636L727.56 576.087C735.764 580.564 742.663 586.534 747.885 593.996ZM720.474 572.915L639.733 632.241C640.106 615.637 646.26 597.541 658.194 579.445C659.126 578.325 661.923 574.781 665.466 569.557C686.537 565.639 705.37 566.759 720.474 572.915ZM656.888 557.617C647.378 560.229 617.357 567.318 591.998 561.349L677.773 498.851C678.146 520.305 666.025 543.439 656.888 557.617ZM676.84 490.829L583.607 558.737C576.148 555.938 569.435 551.647 564.214 545.304L666.771 470.494C667.144 470.867 667.703 471.24 668.076 471.8C672.925 477.583 675.722 484.113 676.84 490.829ZM553.585 502.769C555.636 483.18 564.4 464.524 571.486 452.211C580.437 450.159 602.999 446.241 625.375 449.786L553.585 502.769ZM562.722 440.085C557.874 441.018 540.905 444.002 522.072 444.002L587.895 395.31C579.877 414.713 569.621 430.01 569.621 430.01C569.062 430.757 566.265 434.301 562.722 440.085Z" fill="white"/>
<path opacity="0.25" d="M744.998 590.972L647.093 663.091L651.183 668.65L749.089 596.531L744.998 590.972Z" fill="white"/>
</g>
<path opacity="0.25" d="M955.61 288.97C957.101 292.141 955.796 295.873 952.813 297.552C949.643 299.044 945.913 297.738 944.235 294.753C942.743 291.582 944.049 287.85 947.032 286.171C950.202 284.679 953.932 285.985 955.61 288.97Z" fill="white"/>
<path opacity="0.25" d="M914.96 635.04C918.503 642.316 915.519 651.27 908.247 655.002C900.975 658.546 892.024 655.561 888.295 648.285C884.565 641.01 887.735 632.055 895.008 628.323C902.28 624.592 911.417 627.764 914.96 635.04Z" fill="white"/>
<path opacity="0.25" d="M1309.15 535.23C1312.88 542.505 1309.71 551.46 1302.44 555.192C1295.17 558.736 1286.22 555.751 1282.49 548.475C1278.94 541.199 1281.93 532.245 1289.2 528.513C1296.66 524.969 1305.61 527.954 1309.15 535.23Z" fill="white"/>
<path opacity="0.25" d="M927.639 414.153C930.809 420.496 928.199 428.145 921.859 431.13C915.519 434.301 907.874 431.689 904.89 425.346C901.721 419.003 904.331 411.354 910.671 408.369C916.824 405.198 924.47 407.81 927.639 414.153Z" fill="white"/>
<path opacity="0.25" d="M1199.51 715.071C1201.56 719.362 1199.88 724.399 1195.59 726.451C1191.3 728.504 1186.27 726.825 1184.22 722.534C1182.17 718.243 1183.85 713.206 1188.13 711.154C1192.24 709.101 1197.27 710.78 1199.51 715.071Z" fill="white"/>
<path opacity="0.25" d="M1379.45 266.026C1383.55 274.421 1380.2 284.682 1371.81 288.786C1363.41 292.891 1353.16 289.533 1349.06 281.137C1344.95 272.742 1348.31 262.481 1356.7 258.377C1365.09 254.273 1375.35 257.631 1379.45 266.026Z" fill="white"/>
<path opacity="0.25" d="M988.241 431.503C990.293 435.794 988.614 440.831 984.326 442.884C980.037 444.936 975.002 443.257 972.951 438.966C970.9 434.675 972.578 429.638 976.867 427.586C980.969 425.534 986.004 427.213 988.241 431.503Z" fill="white"/>
<path opacity="0.25" d="M968.849 617.131C970.341 620.303 969.035 624.034 966.052 625.713C962.882 627.206 959.153 625.9 957.474 622.915C955.983 619.743 957.288 616.012 960.271 614.333C963.441 612.841 967.357 613.96 968.849 617.131Z" fill="white"/>
<path opacity="0.25" d="M1299.27 419.564C1301.32 423.855 1299.64 428.892 1295.35 430.944C1291.06 432.996 1286.03 431.317 1283.98 427.026C1281.93 422.736 1283.61 417.698 1287.89 415.646C1292 413.594 1297.22 415.273 1299.27 419.564Z" fill="white"/>
<path opacity="0.25" d="M1243.33 622.353C1246.5 628.696 1243.89 636.345 1237.55 639.33C1231.21 642.502 1223.56 639.89 1220.58 633.547C1217.41 627.204 1220.02 619.555 1226.36 616.57C1232.7 613.398 1240.35 616.01 1243.33 622.353Z" fill="white"/>
<path opacity="0.25" d="M1389.33 639.89C1391.38 644.181 1389.71 649.218 1385.42 651.27C1381.13 653.322 1376.09 651.643 1374.04 647.352C1371.99 643.061 1373.67 638.024 1377.96 635.972C1382.25 634.106 1387.28 635.786 1389.33 639.89Z" fill="white"/>
<path opacity="0.25" d="M465.572 583.176C468.183 583.736 469.861 586.161 469.302 588.773C468.742 591.385 466.318 593.064 463.708 592.504C461.097 591.945 459.419 589.519 459.978 586.908C460.538 584.482 463.148 582.803 465.572 583.176Z" fill="white"/>
<path d="M652.04 763.205C658.007 764.324 661.923 770.107 660.804 776.077C659.686 782.047 653.905 785.965 647.938 784.846C641.971 783.726 638.055 777.943 639.174 771.973C640.293 765.816 646.073 761.899 652.04 763.205Z" fill="white"/>
<path opacity="0.25" d="M770.634 484.675C776.601 485.795 780.516 491.578 779.398 497.548C778.279 503.518 772.498 507.436 766.531 506.316C760.564 505.197 756.649 499.413 757.767 493.444C758.886 487.474 764.667 483.556 770.634 484.675Z" fill="white"/>
<path opacity="0.25" d="M527.107 656.121C532.328 657.054 535.684 662.091 534.566 667.128C533.633 672.352 528.599 675.71 523.564 674.59C518.343 673.658 514.987 668.62 516.105 663.583C516.851 658.546 521.886 655.188 527.107 656.121Z" fill="white"/>
<path opacity="0.25" d="M827.506 630.746C830.863 631.493 833.1 634.664 832.541 638.209C831.795 641.567 828.625 643.806 825.082 643.246C821.726 642.5 819.488 639.328 820.048 635.783C820.793 632.239 824.15 630 827.506 630.746Z" fill="white"/>
<path opacity="0.25" d="M643.09 321.804C649.989 323.11 654.464 329.826 653.159 336.542C651.854 343.445 645.141 347.922 638.428 346.616C631.529 345.31 627.054 338.594 628.359 331.878C629.664 324.975 636.191 320.498 643.09 321.804Z" fill="white"/>
<path opacity="0.25" d="M564.587 628.136C567.943 628.882 570.181 632.054 569.622 635.598C568.876 638.957 565.706 641.195 562.163 640.636C558.806 639.889 556.569 636.718 557.128 633.173C557.874 629.629 561.23 627.39 564.587 628.136Z" fill="white"/>
<path d="M783.5 782.61C786.856 783.356 789.094 786.527 788.534 790.072C787.789 793.43 784.619 795.669 781.076 795.109C777.719 794.363 775.482 791.191 776.041 787.647C776.787 784.289 780.144 782.05 783.5 782.61Z" fill="white"/>
<path opacity="0.25" d="M665.652 723.282C668.263 723.842 669.941 726.267 669.382 728.879C668.822 731.491 666.398 733.17 663.788 732.61C661.177 732.05 659.499 729.625 660.058 727.013C660.618 724.401 663.228 722.722 665.652 723.282Z" fill="white"/>
<path opacity="0.25" d="M697.538 438.405C700.895 439.151 703.132 442.322 702.573 445.867C701.827 449.225 698.657 451.464 695.114 450.904C691.758 450.158 689.52 446.986 690.08 443.442C690.825 440.084 694.182 437.845 697.538 438.405Z" fill="white"/>
<path opacity="0.25" d="M792.451 562.839C797.672 563.772 801.028 568.809 799.909 573.846C798.977 579.069 793.942 582.427 788.908 581.308C783.687 580.375 780.33 575.338 781.449 570.301C782.381 565.264 787.23 561.906 792.451 562.839Z" fill="white"/>
<path opacity="0.25" d="M868.716 484.487C872.072 485.233 874.31 488.404 873.75 491.949C873.004 495.307 869.834 497.546 866.292 496.986C862.935 496.24 860.698 493.068 861.257 489.524C862.003 485.979 865.173 483.74 868.716 484.487Z" fill="white"/>
<path opacity="0.73" d="M1471.57 671.044C1392.13 662.649 1200.81 656.679 977.24 656.679C752.547 656.679 560.298 662.649 481.609 671.23C457.182 673.842 443.57 676.827 443.57 679.812C443.57 692.498 682.435 702.946 977.053 702.946C1271.67 702.946 1510.54 692.498 1510.54 679.812C1510.91 676.641 1496.93 673.656 1471.57 671.044Z" fill="#A6C1E2"/>
<path d="M601.818 547.959L540.751 676.934L544.626 678.771L605.694 549.796L601.818 547.959Z" fill="#254E70"/>
<path d="M515.289 547.943L454.221 676.917L458.097 678.754L519.164 549.779L515.289 547.943Z" fill="#254E70"/>
<path d="M584.726 587.84H498.205V592.131H584.726V587.84Z" fill="#254E70"/>
<path d="M564.028 627.766H477.507V632.056H564.028V627.766Z" fill="#254E70"/>
<path d="M600.948 216.026C600.948 216.026 613.814 210.056 615.493 205.578C616.984 201.101 618.663 190.094 594.235 190.281C594.235 190.281 589.574 180.393 575.962 185.43C566.079 189.161 550.975 206.884 551.348 230.391C551.721 253.897 520.954 243.077 522.818 276.844C523.751 293.261 581.369 353.707 596.286 287.292C604.678 249.98 589.201 232.257 600.948 216.026Z" fill="#453E6B"/>
<path d="M852.305 624.214L905.821 532.054L937.148 478.138C943.115 467.69 946.285 455.937 946.471 443.997L946.658 382.992H939.572C933.792 382.992 928.757 378.515 928.571 372.732C928.384 366.762 933.232 361.911 939.199 361.911L1009.87 362.098C1015.65 362.098 1020.69 366.575 1020.87 372.358C1021.06 378.328 1016.21 383.179 1010.24 383.179H1001.11L1000.92 444.184C1000.92 456.124 1004.09 468.064 1010.06 478.511L1041.01 532.427L1094.15 624.96C1100.49 635.967 1092.48 649.586 1079.98 649.586L973.323 649.4L866.663 649.213C853.797 648.84 845.965 635.221 852.305 624.214Z" fill="#E9F3FF"/>
<path d="M1079.61 649.963L866.478 649.59C860.325 649.59 854.731 646.418 851.747 641.008C848.577 635.598 848.764 629.255 851.747 623.845L852.307 624.218L851.747 623.845L936.404 477.768C942.371 467.508 945.54 455.754 945.54 444.001L945.727 383.556H939.387C933.047 383.556 927.826 378.705 927.64 372.549C927.64 369.377 928.758 366.579 930.81 364.34C932.861 362.101 935.844 360.982 938.828 360.982L1009.5 361.169C1015.84 361.169 1021.06 366.019 1021.25 372.176C1021.25 375.347 1020.13 378.145 1018.08 380.384C1016.03 382.623 1013.04 383.742 1010.06 383.742H1001.67L1001.48 444.188C1001.48 456.127 1004.65 467.694 1010.43 478.141L1094.53 624.591C1097.7 630.001 1097.51 636.344 1094.53 641.754C1091.36 646.791 1085.76 649.963 1079.61 649.963ZM938.828 362.288C936.217 362.288 933.607 363.407 931.742 365.273C929.877 367.138 928.945 369.75 928.945 372.549C929.131 377.772 933.793 382.063 939.201 382.25H947.032L946.846 444.001C946.846 456.127 943.676 468.067 937.522 478.515L852.866 624.591C850.069 629.441 850.069 635.411 852.866 640.262C855.663 645.112 860.698 648.097 866.478 648.097L1079.61 648.47C1085.2 648.47 1090.43 645.485 1093.22 640.635C1096.02 635.784 1096.02 629.814 1093.22 624.964L1009.13 478.515C1003.16 468.067 999.989 456.127 999.989 444.001L1000.18 382.25H1009.87C1012.48 382.25 1015.09 381.13 1016.96 379.265C1018.82 377.399 1019.75 374.787 1019.75 371.989C1019.57 366.765 1014.91 362.474 1009.5 362.288H938.828Z" fill="#F0F8FF"/>
<path opacity="0.7" d="M981.715 563.585C947.219 570.86 917.011 568.808 894.821 564.517L859.765 622.724C853.798 632.612 861.257 644.925 873.004 644.925L972.765 645.111L1072.52 645.298C1084.27 645.298 1091.73 632.985 1085.95 623.097L1048.47 560.227C1030.57 558.174 1008.19 557.988 981.715 563.585Z" fill="#E2581D"/>
<path d="M896.313 585.783C897.858 585.783 899.11 584.53 899.11 582.985C899.11 581.439 897.858 580.187 896.313 580.187C894.768 580.187 893.516 581.439 893.516 582.985C893.516 584.53 894.768 585.783 896.313 585.783Z" fill="#E2581D"/>
<path d="M977.426 592.127C979.898 592.127 981.902 590.123 981.902 587.65C981.902 585.177 979.898 583.172 977.426 583.172C974.955 583.172 972.951 585.177 972.951 587.65C972.951 590.123 974.955 592.127 977.426 592.127Z" fill="#E2581D"/>
<path d="M922.045 629.063C925.135 629.063 927.639 626.557 927.639 623.466C927.639 620.375 925.135 617.869 922.045 617.869C918.956 617.869 916.451 620.375 916.451 623.466C916.451 626.557 918.956 629.063 922.045 629.063Z" fill="#E2581D"/>
<path d="M941.625 579.999C941.625 582.051 939.946 583.917 937.709 583.917C935.658 583.917 933.793 582.238 933.793 579.999C933.793 577.947 935.471 576.081 937.709 576.081C939.946 576.081 941.625 577.76 941.625 579.999Z" fill="#E2581D"/>
<path d="M1036.16 615.63C1039.97 615.63 1043.06 612.539 1043.06 608.727C1043.06 604.915 1039.97 601.824 1036.16 601.824C1032.35 601.824 1029.26 604.915 1029.26 608.727C1029.26 612.539 1032.35 615.63 1036.16 615.63Z" fill="#E2581D"/>
<path d="M967.357 633.172C970.447 633.172 972.951 630.666 972.951 627.575C972.951 624.484 970.447 621.979 967.357 621.979C964.268 621.979 961.763 624.484 961.763 627.575C961.763 630.666 964.268 633.172 967.357 633.172Z" fill="#E2581D"/>
<path d="M1020.87 572.537C1020.87 575.149 1018.64 577.388 1016.03 577.388C1013.41 577.388 1011.18 575.149 1011.18 572.537C1011.18 569.925 1013.41 567.687 1016.03 567.687C1018.64 567.687 1020.87 569.925 1020.87 572.537Z" fill="#E2581D"/>
<path d="M1016.03 645.108C1019.11 645.108 1021.62 642.602 1021.62 639.511C1021.62 636.42 1019.11 633.914 1016.03 633.914C1012.94 633.914 1010.43 636.42 1010.43 639.511C1010.43 642.602 1012.94 645.108 1016.03 645.108Z" fill="#E2581D"/>
<path d="M1005.02 600.519C1005.02 602.758 1003.16 604.623 1000.92 604.623C998.684 604.623 996.819 602.758 996.819 600.519C996.819 598.28 998.684 596.415 1000.92 596.415C1003.16 596.228 1005.02 598.094 1005.02 600.519Z" fill="#E2581D"/>
<path d="M889.414 634.288C889.414 636.713 887.363 638.765 884.939 638.765C882.514 638.765 880.463 636.713 880.463 634.288C880.463 631.863 882.514 629.811 884.939 629.811C887.363 629.624 889.414 631.676 889.414 634.288Z" fill="#E2581D"/>
<path d="M941.252 606.675C944.547 606.675 947.219 604.002 947.219 600.705C947.219 597.408 944.547 594.735 941.252 594.735C937.956 594.735 935.285 597.408 935.285 600.705C935.285 604.002 937.956 606.675 941.252 606.675Z" fill="#E2581D"/>
<path d="M1054.25 624.773C1054.25 622.908 1055.74 621.229 1057.79 621.229C1059.66 621.229 1061.34 622.721 1061.34 624.773C1061.34 626.825 1059.84 628.318 1057.79 628.318C1055.93 628.318 1054.25 626.825 1054.25 624.773Z" fill="#E2581D"/>
<g opacity="0.33">
<path opacity="0.33" d="M895.567 607.801C908.993 580.936 922.232 554.072 935.657 527.207C940.879 516.573 946.286 505.939 951.507 495.305C958.034 482.246 961.39 468.068 961.39 453.516C961.39 448.479 961.39 443.628 961.39 438.591C961.39 421.614 961.39 404.451 961.39 387.474C961.39 382.996 954.491 382.996 954.491 387.474C954.491 402.025 954.491 416.577 954.491 431.129C954.491 438.218 954.491 445.307 954.491 452.21C954.491 465.829 951.694 479.261 945.727 491.574C932.674 518.066 919.435 544.557 906.195 571.049C900.601 582.242 895.194 593.249 889.6 604.443C887.549 608.174 893.516 611.719 895.567 607.801Z" fill="#F0F8FF"/>
</g>
<path d="M1400.15 574.774C1401.83 577.2 1406.86 668.8 1406.86 668.8H1419.35L1421.78 601.452L1400.15 574.774Z" fill="#4C5E9E"/>
<path d="M1420.47 678.877H1388.96C1387.84 678.877 1387.66 677.385 1388.59 677.012L1406.86 668.803H1419.35L1421.59 677.572C1421.59 678.318 1421.03 678.877 1420.47 678.877Z" fill="#453E6B"/>
<path d="M1375.16 574.774C1376.84 577.2 1368.45 668.8 1368.45 668.8H1380.94L1396.79 578.132L1375.16 574.774Z" fill="#4C5E9E"/>
<path d="M1382.25 678.877H1350.73C1349.62 678.877 1349.43 677.385 1350.36 677.012L1368.64 668.803H1381.13L1383.37 677.572C1383.37 678.318 1382.81 678.877 1382.25 678.877Z" fill="#453E6B"/>
<path d="M1390.64 374.785C1390.64 374.785 1367.7 379.449 1360.24 425.156L1375.16 428.514L1388.77 405.567L1390.64 374.785Z" fill="#F0F3FF"/>
<path d="M1402.57 357.622C1402.57 357.622 1399.22 370.868 1392.5 375.159C1385.79 379.263 1390.08 433.365 1390.08 433.365L1416.74 409.299L1419.17 377.77L1414.69 371.054C1414.69 371.054 1409.1 361.913 1414.13 350.159C1419.17 338.593 1402.57 357.622 1402.57 357.622Z" fill="#FBE0D0"/>
<path opacity="0.7" d="M1392.69 368.442C1392.69 368.442 1396.79 380.941 1420.1 368.442C1443.41 355.942 1436.7 393.441 1436.7 393.441L1406.67 424.223L1389.15 429.447L1383.37 419.186L1392.69 368.442Z" fill="#E2581D"/>
<path opacity="0.31" d="M1399.22 359.299C1399.22 359.299 1407.05 363.963 1418.42 350.718C1429.98 337.658 1397.54 344.375 1399.22 359.299Z" fill="#FBE0D0"/>
<path d="M1413.39 371.051L1392.69 421.049L1396.79 371.051C1396.79 371.051 1369.75 375.155 1369.75 456.309C1369.75 537.462 1353.53 604.81 1353.53 604.81C1353.53 604.81 1376.47 594.363 1401.27 600.706C1426.25 606.862 1442.85 600.706 1442.85 600.706L1423.27 466.756L1432.03 412.654C1432.03 412.654 1444.53 381.498 1413.39 371.051Z" fill="#F0F3FF"/>
<path opacity="0.3" d="M1415.63 375.152C1415.63 375.152 1432.41 373.846 1447.33 405.935C1462.43 437.836 1464.29 448.844 1460.19 450.709C1455.9 452.575 1435.02 469.365 1396.61 458.545L1401.45 444.18C1401.45 444.18 1406.12 450.149 1429.42 444.926C1429.42 444.926 1433.9 411.905 1421.97 400.898C1409.85 389.891 1415.63 375.152 1415.63 375.152Z" fill="#E1E9FF"/>
<path opacity="0.3" d="M1380.94 472.539C1380.94 472.539 1374.23 599.027 1370.13 620.667C1366.21 641.189 1375.16 620.667 1375.16 620.667L1380.94 472.539Z" fill="#E1E9FF"/>
<path d="M1421.22 340.456C1418.05 352.209 1408.73 359.858 1400.52 357.619C1392.32 355.381 1388.21 344.001 1391.57 332.247C1394.74 320.494 1404.06 312.845 1412.27 315.084C1420.29 317.509 1424.39 328.703 1421.22 340.456Z" fill="#FBE0D0"/>
<path d="M1396.79 370.123L1386.54 377.772L1392.69 420.121L1396.79 370.123Z" fill="#E1E9FF"/>
<path d="M1407.61 333.739C1406.67 336.911 1404.44 338.963 1402.39 338.403C1400.33 337.843 1399.4 334.859 1400.15 331.687C1401.08 328.515 1403.32 326.463 1405.37 327.023C1407.42 327.583 1408.54 330.568 1407.61 333.739Z" stroke="#453E6B" stroke-width="0.4029" stroke-miterlimit="10"/>
<path d="M1398.1 331.127C1397.17 334.298 1394.93 336.351 1392.88 335.791C1390.83 335.231 1389.89 332.246 1390.64 329.075C1391.57 325.903 1393.81 323.851 1395.86 324.411C1397.91 324.97 1399.03 327.955 1398.1 331.127Z" stroke="#453E6B" stroke-width="0.4029" stroke-miterlimit="10"/>
<path d="M1407.98 333.929L1419.73 338.966" stroke="#453E6B" stroke-width="0.4029" stroke-miterlimit="10"/>
<path d="M1398.28 330.198C1398.28 330.198 1399.96 329.825 1400.34 330.944" stroke="#453E6B" stroke-width="0.4029" stroke-miterlimit="10"/>
<path d="M1417.12 340.645C1417.12 340.645 1415.44 338.219 1417.12 333.928C1418.8 329.824 1413.39 321.056 1401.64 320.123C1390.08 319.377 1391.57 310.049 1393.25 306.877C1394.93 303.519 1402.01 299.042 1407.79 303.146C1413.57 307.25 1416.93 316.392 1426.44 319.377C1437.26 322.735 1434.83 350.159 1415.81 350.719C1416.18 350.905 1420.47 343.07 1417.12 340.645Z" fill="#453E6B"/>
<path d="M1421.97 342.509C1421.22 344.188 1419.54 345.121 1418.42 344.561C1417.12 344.001 1416.74 342.136 1417.49 340.457C1418.24 338.778 1419.91 337.845 1421.03 338.404C1422.15 338.964 1422.71 340.83 1421.97 342.509Z" fill="#FBE0D0"/>
<path d="M1351.11 419.186L1391.57 414.709L1397.54 473.289L1366.02 477.58L1351.11 419.186Z" fill="#F3B36A"/>
<path d="M1378.7 444.744C1377.59 444.931 1376.28 444.371 1374.79 443.252C1372.92 441.759 1371.06 439.52 1369.57 436.909C1368.08 434.297 1366.96 431.498 1366.58 429.26C1366.21 426.834 1366.58 425.155 1367.7 424.596C1368.82 424.036 1370.5 424.409 1372.36 425.902C1374.23 427.394 1376.09 429.633 1377.59 432.245C1379.08 434.856 1380.2 437.655 1380.57 439.894C1380.94 442.319 1380.57 443.998 1379.45 444.558C1379.26 444.744 1379.08 444.744 1378.7 444.744ZM1368.64 424.596C1368.45 424.596 1368.26 424.782 1368.08 424.782C1367.14 425.342 1366.77 426.834 1367.14 429.073C1367.52 431.312 1368.64 434.11 1370.13 436.722C1371.62 439.334 1373.48 441.573 1375.35 443.065C1377.03 444.558 1378.7 444.931 1379.64 444.371C1380.57 443.811 1380.94 442.319 1380.57 440.08C1380.2 437.841 1379.08 435.043 1377.59 432.431C1376.09 429.819 1374.23 427.581 1372.36 426.088C1370.69 424.969 1369.57 424.409 1368.64 424.596Z" fill="#F0F3FF"/>
<path d="M1379.08 439.148C1377.21 439.335 1375.35 439.335 1373.3 439.148C1370.31 438.775 1367.33 438.215 1365.28 437.096C1363.23 435.977 1362.11 434.671 1362.11 433.551C1362.3 432.245 1363.6 431.313 1365.84 430.566C1368.08 430.007 1371.06 429.634 1374.04 430.007C1377.03 430.38 1380.01 430.939 1382.06 432.059C1384.11 433.178 1385.23 434.484 1385.23 435.603C1385.04 436.909 1383.74 437.842 1381.5 438.588C1380.76 438.775 1380.01 438.962 1379.08 439.148ZM1368.26 430.38C1367.52 430.566 1366.58 430.566 1365.84 430.939C1363.6 431.499 1362.48 432.432 1362.3 433.551C1362.11 434.671 1363.23 435.79 1365.28 436.909C1367.33 438.029 1370.13 438.588 1373.11 438.962C1376.09 439.335 1379.08 438.962 1381.32 438.402C1383.55 437.842 1384.67 436.909 1384.86 435.79C1385.04 434.671 1383.93 433.551 1381.87 432.432C1379.82 431.313 1377.03 430.753 1374.04 430.38C1371.99 430.007 1369.94 430.007 1368.26 430.38Z" fill="#F0F3FF"/>
<path d="M1369.94 445.301C1369.57 445.301 1369.01 445.301 1368.64 445.114C1367.52 444.555 1366.96 442.876 1367.14 440.637C1367.33 438.212 1368.08 435.413 1369.38 432.615H1369.57H1369.38C1370.69 429.816 1372.37 427.391 1374.04 425.712C1375.72 424.033 1377.4 423.473 1378.52 424.033C1379.64 424.593 1380.2 426.272 1380.01 428.511C1379.82 430.936 1379.08 433.734 1377.77 436.533C1376.47 439.331 1374.79 441.756 1373.11 443.435C1371.99 444.368 1370.87 445.114 1369.94 445.301ZM1377.4 424.22C1376.47 424.406 1375.54 424.966 1374.42 426.085C1372.74 427.578 1371.06 430.003 1369.75 432.801C1368.45 435.6 1367.7 438.398 1367.52 440.637C1367.33 442.876 1367.89 444.368 1368.82 444.928C1369.75 445.488 1371.25 444.741 1372.92 443.249C1374.6 441.756 1376.28 439.331 1377.59 436.533C1378.89 433.734 1379.64 430.936 1379.82 428.697C1380.01 426.458 1379.45 424.966 1378.52 424.406C1378.15 424.22 1377.77 424.033 1377.4 424.22Z" fill="#F0F3FF"/>
<path d="M1374.98 434.105C1375.35 434.852 1375.16 435.598 1374.42 435.971C1373.67 436.344 1372.92 436.158 1372.55 435.411C1372.18 434.665 1372.36 433.919 1373.11 433.546C1373.86 433.173 1374.6 433.546 1374.98 434.105Z" fill="#F0F3FF"/>
<path d="M1404.25 444.182L1398.47 440.824C1398.47 440.824 1391.76 440.824 1388.4 439.145C1385.79 437.839 1385.98 458.174 1396.23 452.764L1406.67 449.965L1404.25 444.182Z" fill="#FBE0D0"/>
<path d="M1413.39 371.053C1413.39 371.053 1429.98 369.001 1446.58 400.157C1463.17 431.312 1465.79 442.132 1461.5 444.185C1457.39 446.237 1437.44 464.146 1398.28 455.192L1402.39 440.64C1402.39 440.64 1419.35 441.2 1442.29 435.043C1442.29 435.043 1433.9 414.708 1421.41 404.261C1409.29 394 1413.39 371.053 1413.39 371.053Z" fill="#F0F3FF"/>
<path d="M1413.76 369.001C1413.39 369.374 1421.59 383.553 1421.59 383.553L1392.5 421.051L1413.76 369.001Z" fill="#E1E9FF"/>
<path d="M1355.21 445.863C1355.21 445.863 1354.46 456.683 1357.63 456.683C1360.99 456.683 1366.02 460.788 1366.77 456.683C1367.7 452.579 1366.02 435.043 1355.21 445.863Z" fill="#FBE0D0"/>
<path d="M558.434 443.257C556.755 445.682 550.415 539.522 550.415 539.522H542.024L536.99 469.935L558.434 443.257Z" fill="#FBE0D0"/>
<path d="M540.16 546.05H564.028C564.773 546.05 565.146 544.931 564.4 544.558L550.602 538.401H541.092L539.414 545.118C539.414 545.677 539.6 546.05 540.16 546.05Z" fill="#453E6B"/>
<path d="M587.336 443.257C585.658 445.682 579.318 539.522 579.318 539.522H570.74L565.706 469.935L587.336 443.257Z" fill="#FBE0D0"/>
<path d="M569.062 546.05H592.93C593.676 546.05 594.049 544.931 593.303 544.558L579.505 538.401H569.995L568.317 545.118C568.13 545.677 568.503 546.05 569.062 546.05Z" fill="#453E6B"/>
<path d="M585.285 252.217C585.285 252.217 607.288 260.052 608.221 306.319L592.93 307.438L582.675 282.813L585.285 252.217Z" fill="#F0F3FF"/>
<path d="M579.691 236.546C579.691 236.546 578.386 250.165 583.047 256.322C587.896 262.478 565.52 311.917 565.52 311.917L548.737 280.201L557.128 249.606L563.468 244.942C563.468 244.942 571.859 238.225 571.114 225.539C570.554 212.853 579.691 236.546 579.691 236.546Z" fill="#FBE0D0"/>
<path opacity="0.7" d="M585.471 250.168C585.471 250.168 577.267 260.429 559.739 240.84C542.024 221.251 535.685 258.75 535.685 258.75L553.399 297.927L567.943 308.748L576.894 301.099L585.471 250.168Z" fill="#E2581D"/>
<path opacity="0.31" d="M582.301 239.161C582.301 239.161 573.351 240.84 567.011 224.609C560.671 208.378 588.828 225.728 582.301 239.161Z" fill="#FBE0D0"/>
<path d="M563.096 245.315L576.708 297.739L579.691 247.741C579.691 247.741 597.779 254.83 594.422 335.983C591.066 418.07 603.932 474.97 603.932 474.97C603.932 474.97 582.861 470.68 557.315 473.291C531.769 475.903 513.122 472.359 513.122 472.359L539.787 338.595L538.855 283.933C538.855 283.933 530.837 251.285 563.096 245.315Z" fill="#F0F3FF"/>
<path opacity="0.3" d="M560.485 249.233C560.485 249.233 544.076 245.688 524.683 275.165C505.29 304.641 501.748 315.275 505.663 317.7C509.579 320.126 527.853 339.714 567.571 334.491L564.774 319.566C564.774 319.566 559.18 324.79 536.99 316.394C536.99 316.394 537.176 283 550.602 273.859C564.028 264.717 560.485 249.233 560.485 249.233Z" fill="#E1E9FF"/>
<path opacity="0.3" d="M580.996 350.353C580.996 350.353 569.808 476.467 570.927 498.481C571.859 519.376 566.079 497.735 566.079 497.735L580.996 350.353Z" fill="#E1E9FF"/>
<path d="M575.029 207.815C567.944 217.702 567.943 229.829 574.843 234.679C581.742 239.53 593.117 235.426 600.202 225.538C607.288 215.65 607.288 203.524 600.389 198.673C593.303 193.823 582.115 197.927 575.029 207.815Z" fill="#FBE0D0"/>
<path d="M579.691 246.809L588.828 255.763L576.894 296.807L579.691 246.809Z" fill="#E1E9FF"/>
<path d="M589.014 213.974C587.15 216.586 586.963 219.757 588.828 221.063C590.506 222.369 593.489 221.063 595.354 218.451C597.219 215.839 597.405 212.668 595.541 211.362C593.676 210.243 590.879 211.362 589.014 213.974Z" stroke="#453E6B" stroke-width="0.4029" stroke-miterlimit="10"/>
<path d="M596.846 219.757C594.981 222.369 594.795 225.54 596.659 226.846C598.338 228.152 601.321 226.846 603.186 224.234C605.05 221.623 605.237 218.451 603.372 217.145C601.508 215.839 598.897 217.145 596.846 219.757Z" stroke="#453E6B" stroke-width="0.4029" stroke-miterlimit="10"/>
<path d="M588.455 213.976L577.267 208.006" stroke="#453E6B" stroke-width="0.4029" stroke-miterlimit="10"/>
<path d="M597.592 219.01C597.592 219.01 596.846 217.518 595.727 217.891" stroke="#453E6B" stroke-width="0.4029" stroke-miterlimit="10"/>
<path d="M569.622 211.177C569.808 213.789 571.486 215.841 573.538 215.841C575.589 215.654 577.08 213.415 576.894 210.804C576.707 208.192 575.029 206.14 572.978 206.14C570.927 206.14 569.435 208.378 569.622 211.177Z" fill="#FBE0D0"/>
<path d="M618.103 301.844L578.572 291.77L564.4 348.857L595.168 357.439L618.103 301.844Z" fill="#F3B36A"/>
<path d="M586.404 322.923C585.471 322.176 585.285 320.497 586.031 318.072C586.777 315.833 588.082 313.222 590.133 310.796C591.998 308.371 594.235 306.319 596.287 305.199C598.338 304.08 600.016 303.707 600.948 304.453C601.881 305.199 602.067 306.878 601.321 309.304C600.575 311.542 599.27 314.154 597.219 316.58C595.354 319.005 593.117 321.057 591.065 322.176C589.387 323.109 588.082 323.482 586.963 323.109C586.777 323.296 586.59 323.109 586.404 322.923ZM596.287 305.759C594.235 306.878 592.184 308.931 590.32 311.169C588.455 313.595 586.963 316.02 586.404 318.259C585.658 320.497 585.844 321.99 586.777 322.736C587.709 323.482 589.201 323.109 591.065 321.99C593.117 320.87 595.168 318.818 597.033 316.58C598.897 314.154 600.389 311.729 600.948 309.49C601.694 307.252 601.508 305.759 600.575 305.013C600.389 304.826 600.202 304.826 600.016 304.64C599.084 304.453 597.778 304.826 596.287 305.759Z" fill="#F0F3FF"/>
<path d="M585.285 316.768C583.048 315.835 581.929 314.53 581.929 313.224C581.929 311.918 583.234 310.798 585.472 310.052C587.709 309.306 590.693 308.933 593.676 309.119C596.846 309.306 599.643 309.866 601.694 310.798C603.932 311.731 605.051 313.037 605.051 314.343C605.051 315.649 603.745 316.768 601.508 317.515C599.27 318.261 596.287 318.634 593.303 318.447C591.252 318.261 589.201 318.074 587.523 317.515C586.777 317.328 586.031 317.141 585.285 316.768ZM593.863 309.492C590.879 309.306 587.896 309.679 585.845 310.425C583.793 311.171 582.488 312.104 582.488 313.224C582.488 314.343 583.607 315.462 585.658 316.395C587.709 317.328 590.506 317.888 593.676 318.074C596.66 318.261 599.643 317.888 601.694 317.141C603.745 316.395 605.051 315.462 605.051 314.343C605.051 313.224 603.932 312.104 601.881 311.171C601.135 310.798 600.389 310.612 599.643 310.425C597.778 310.052 595.914 309.679 593.863 309.492Z" fill="#F0F3FF"/>
<path d="M592.93 322.552C591.439 320.686 590.133 318.074 589.201 315.089C588.269 312.104 587.896 309.306 588.082 306.881C588.269 304.455 589.014 302.963 590.133 302.59C591.252 302.217 592.744 302.963 594.236 304.829C595.727 306.694 597.033 309.306 597.965 312.291H597.778H597.965C598.897 315.276 599.27 318.074 599.084 320.5C598.897 322.925 598.151 324.417 597.033 324.791C596.66 324.977 596.287 324.977 595.727 324.791C594.795 324.791 593.863 323.858 592.93 322.552ZM590.32 303.15C589.201 303.523 588.642 304.829 588.455 307.067C588.269 309.306 588.642 312.291 589.574 315.089C590.506 318.074 591.811 320.5 593.117 322.365C594.608 324.044 595.914 324.977 597.033 324.604C598.151 324.231 598.711 322.925 598.897 320.686C599.084 318.447 598.711 315.463 597.778 312.664C596.846 309.679 595.541 307.254 594.236 305.388C593.303 304.082 592.371 303.336 591.439 303.15C590.879 302.963 590.506 302.963 590.32 303.15Z" fill="#F0F3FF"/>
<path d="M592.184 313.223C591.625 313.783 591.811 314.716 592.371 315.275C592.93 315.835 593.862 315.648 594.422 315.089C594.981 314.529 594.795 313.596 594.235 313.037C593.676 312.477 592.744 312.664 592.184 313.223Z" fill="#F0F3FF"/>
<path d="M561.976 319.193L568.13 316.768C568.13 316.768 574.656 317.701 578.199 316.582C580.996 315.649 578.013 335.611 568.503 328.894L558.62 324.604L561.976 319.193Z" fill="#FBE0D0"/>
<path d="M563.095 245.317C563.095 245.317 546.873 240.839 525.988 269.383C505.104 297.927 501.188 308.187 504.917 310.986C508.833 313.598 525.988 334.119 565.892 330.761L563.841 315.836C563.841 315.836 546.873 313.971 525.056 304.643C525.056 304.643 536.244 285.614 550.043 277.032C564.028 268.637 563.095 245.317 563.095 245.317Z" fill="#F0F3FF"/>
<path d="M563.095 243.266C563.468 243.639 553.212 256.511 553.212 256.511L576.707 297.741L563.095 243.266Z" fill="#E1E9FF"/>
<path d="M610.272 327.774C610.272 327.774 609.526 338.595 606.356 338.222C602.999 337.662 597.592 341.207 597.219 336.916C597.032 332.438 601.135 315.462 610.272 327.774Z" fill="#FBE0D0"/>
<path d="M1196.15 349.971L1195.03 268.071L1204.36 267.884C1210.88 267.884 1216.1 262.474 1215.92 255.945C1215.92 249.415 1210.51 244.191 1203.98 244.378L1124.74 245.497C1118.21 245.497 1112.99 250.907 1113.17 257.437C1113.17 263.967 1118.58 269.19 1125.11 269.004L1134.43 268.817L1135.55 350.717C1089.87 364.522 1057.05 407.245 1057.79 457.243C1058.54 517.874 1108.33 566.193 1168.93 565.447C1229.53 564.701 1277.83 514.889 1277.08 454.258C1276.15 404.26 1242.02 362.657 1196.15 349.971Z" fill="#E9F3FF"/>
<path d="M1167.06 566.197C1138.16 566.197 1110.94 555.19 1090.05 534.855C1068.98 514.334 1057.05 486.723 1056.68 457.246C1056.3 432.807 1063.76 409.487 1078.31 389.898C1092.29 371.056 1112.24 357.064 1134.43 350.161L1133.31 269.567L1124.74 269.754H1124.55C1117.65 269.754 1112.06 264.157 1112.06 257.441C1111.87 250.538 1117.46 244.755 1124.36 244.755L1203.61 243.635C1210.51 243.449 1216.29 249.046 1216.29 255.948C1216.29 259.306 1214.99 262.478 1212.75 264.903C1210.32 267.328 1207.34 268.634 1203.98 268.634L1195.41 268.821L1196.53 349.415C1218.9 355.571 1239.23 369.19 1253.77 387.659C1268.88 406.875 1276.89 429.822 1277.27 454.261C1278.01 515.08 1229.34 565.451 1168.37 566.197C1168.18 566.197 1167.62 566.197 1167.06 566.197ZM1134.99 268.261L1136.11 351.467L1135.55 351.653C1113.36 358.37 1093.6 372.362 1079.61 391.018C1065.25 410.42 1057.79 433.367 1058.17 457.433C1058.54 486.536 1070.29 513.774 1091.17 534.109C1112.06 554.444 1139.65 565.264 1168.56 564.891C1228.6 564.145 1276.89 514.52 1275.96 454.448C1275.59 430.382 1267.57 407.621 1252.65 388.592C1238.29 370.309 1217.97 356.877 1195.78 350.721L1195.22 350.534V349.974L1194.1 267.328L1204.17 267.142C1207.15 267.142 1209.95 265.836 1212 263.784C1214.05 261.732 1215.17 258.933 1215.17 255.948C1215.17 249.792 1210.14 244.941 1204.17 244.941H1203.98L1124.74 246.061C1118.58 246.061 1113.73 251.098 1113.73 257.254C1113.73 260.239 1115.04 263.038 1117.09 265.09C1119.14 267.142 1122.13 268.261 1124.92 268.261H1134.99Z" fill="#F0F8FF"/>
<path d="M1134.25 458.176C1106.46 448.288 1084.09 449.221 1069.35 452.019C1069.17 455.191 1068.98 458.362 1068.98 461.72C1069.73 515.823 1114.29 559.291 1168.37 558.545C1222.44 557.799 1265.89 513.211 1265.15 459.108C1265.15 458.735 1265.15 458.176 1265.15 457.802C1230.84 474.406 1172.66 471.795 1134.25 458.176Z" fill="#F3B36A"/>
<path d="M1114.48 485.975C1114.48 488.401 1112.62 490.266 1110.19 490.266C1107.77 490.266 1105.9 488.401 1105.9 485.975C1105.9 483.55 1107.77 481.685 1110.19 481.685C1112.62 481.498 1114.48 483.55 1114.48 485.975Z" fill="#FBE0D0"/>
<path d="M1184.41 528.508C1184.41 533.359 1180.49 537.09 1175.83 537.09C1170.98 537.09 1167.25 533.172 1167.25 528.508C1167.25 523.844 1171.17 519.926 1175.83 519.926C1180.68 519.74 1184.41 523.657 1184.41 528.508Z" fill="#FBE0D0"/>
<path d="M1126.79 504.256C1126.79 506.495 1124.92 508.174 1122.87 508.174C1120.63 508.174 1118.96 506.308 1118.96 504.256C1118.96 502.017 1120.82 500.338 1122.87 500.338C1124.92 500.338 1126.79 502.017 1126.79 504.256Z" fill="#FBE0D0"/>
<path d="M1227.67 482.989C1227.67 488.213 1223.38 492.317 1218.34 492.317C1213.12 492.317 1209.02 488.026 1209.02 482.989C1209.02 477.765 1213.31 473.661 1218.34 473.661C1223.56 473.661 1227.67 477.765 1227.67 482.989Z" fill="#FBE0D0"/>
<path d="M1165.01 493.065C1167.38 493.065 1169.3 491.144 1169.3 488.774C1169.3 486.404 1167.38 484.483 1165.01 484.483C1162.64 484.483 1160.72 486.404 1160.72 488.774C1160.72 491.144 1162.64 493.065 1165.01 493.065Z" fill="#FBE0D0"/>
<path d="M1114.48 461.349C1114.48 462.469 1113.55 463.588 1112.24 463.588C1110.94 463.588 1110.01 462.655 1110.01 461.349C1110.01 460.044 1110.94 459.111 1112.24 459.111C1113.55 459.111 1114.48 460.23 1114.48 461.349Z" fill="#FBE0D0"/>
<path d="M1124.55 544.368C1127.74 544.368 1130.33 541.779 1130.33 538.585C1130.33 535.391 1127.74 532.801 1124.55 532.801C1121.36 532.801 1118.77 535.391 1118.77 538.585C1118.77 541.779 1121.36 544.368 1124.55 544.368Z" fill="#FBE0D0"/>
<path d="M1215.55 516.943C1215.55 520.488 1212.56 523.473 1209.02 523.473C1205.48 523.473 1202.49 520.488 1202.49 516.943C1202.49 513.399 1205.48 510.414 1209.02 510.414C1212.56 510.414 1215.55 513.399 1215.55 516.943Z" fill="#FBE0D0"/>
<path d="M1141.89 480.191C1141.89 483.735 1138.91 486.72 1135.36 486.72C1131.82 486.72 1128.84 483.735 1128.84 480.191C1128.84 476.646 1131.82 473.661 1135.36 473.661C1139.09 473.661 1141.89 476.46 1141.89 480.191Z" fill="#FBE0D0"/>
<path d="M1254.89 484.482C1257.88 484.482 1260.3 482.059 1260.3 479.071C1260.3 476.083 1257.88 473.661 1254.89 473.661C1251.9 473.661 1249.48 476.083 1249.48 479.071C1249.48 482.059 1251.9 484.482 1254.89 484.482Z" fill="#FBE0D0"/>
<path d="M1085.02 473.285C1085.02 476.643 1082.22 479.441 1078.86 479.441C1075.51 479.441 1072.71 476.643 1072.71 473.285C1072.71 469.927 1075.51 467.128 1078.86 467.128C1082.22 467.128 1085.02 469.927 1085.02 473.285Z" fill="#FBE0D0"/>
<path d="M1151.4 448.102C1151.4 451.833 1148.42 455.005 1144.5 455.005C1140.59 455.005 1137.6 452.02 1137.6 448.102C1137.6 444.371 1140.59 441.199 1144.5 441.199C1148.42 441.199 1151.4 444.184 1151.4 448.102Z" fill="#F3B36A"/>
<path d="M1209.76 460.601C1209.76 467.69 1203.98 473.66 1196.71 473.66C1189.44 473.66 1183.66 467.877 1183.66 460.601C1183.66 453.512 1189.44 447.542 1196.71 447.542C1203.98 447.542 1209.76 453.512 1209.76 460.601Z" fill="#F3B36A"/>
<path d="M1217.6 410.793C1217.6 413.964 1214.99 416.576 1211.82 416.576C1208.65 416.576 1206.04 413.964 1206.04 410.793C1206.04 407.621 1208.65 405.009 1211.82 405.009C1214.99 405.009 1217.6 407.621 1217.6 410.793Z" fill="#F3B36A"/>
<path d="M1158.49 396.8C1158.49 399.785 1156.06 402.21 1153.08 402.21C1150.1 402.21 1147.67 399.785 1147.67 396.8C1147.67 393.815 1150.1 391.39 1153.08 391.39C1156.06 391.39 1158.49 393.815 1158.49 396.8Z" fill="#F3B36A"/>
<path d="M1126.28 454.512C1128.63 444.587 1122.5 434.633 1112.58 432.28C1102.66 429.927 1092.71 436.065 1090.36 445.99C1088 455.915 1094.14 465.868 1104.06 468.221C1113.98 470.575 1123.93 464.436 1126.28 454.512Z" fill="#F3B36A"/>
<path d="M1224.12 446.24C1226.49 446.24 1228.41 444.319 1228.41 441.949C1228.41 439.579 1226.49 437.658 1224.12 437.658C1221.75 437.658 1219.83 439.579 1219.83 441.949C1219.83 444.319 1221.75 446.24 1224.12 446.24Z" fill="#F3B36A"/>
<path d="M1189.44 371.613C1189.44 376.65 1185.34 380.568 1180.49 380.568C1175.64 380.568 1171.54 376.464 1171.54 371.613C1171.54 366.763 1175.64 362.658 1180.49 362.658C1185.34 362.658 1189.44 366.576 1189.44 371.613Z" fill="#F3B36A"/>
<path d="M1180.86 423.476C1180.86 427.208 1177.88 430.379 1173.96 430.379C1170.23 430.379 1167.06 427.394 1167.06 423.476C1167.06 419.745 1170.05 416.574 1173.96 416.574C1177.88 416.574 1180.86 419.745 1180.86 423.476Z" fill="#F3B36A"/>
<path d="M1120.63 396.423C1122.08 396.423 1123.24 395.254 1123.24 393.812C1123.24 392.369 1122.08 391.2 1120.63 391.2C1119.19 391.2 1118.02 392.369 1118.02 393.812C1118.02 395.254 1119.19 396.423 1120.63 396.423Z" fill="#F3B36A"/>
<g opacity="0.31">
<path opacity="0.31" d="M1155.13 356.131C1120.07 366.951 1091.73 393.629 1079.05 428.143C1075.32 438.03 1073.27 448.291 1072.34 458.739C1071.97 462.656 1075.88 466.014 1079.61 466.014C1083.71 466.014 1086.51 462.656 1086.88 458.739C1090.43 417.509 1119.7 382.063 1159.05 369.936C1167.81 367.324 1164.08 353.332 1155.13 356.131Z" fill="#F0F8FF"/>
</g>
<g opacity="0.31">
<path opacity="0.31" d="M1195.41 546.046C1218.72 538.957 1237.36 521.234 1245.75 498.474C1248.18 491.944 1249.48 485.041 1250.04 478.139C1250.23 475.527 1247.62 473.288 1245.19 473.288C1242.4 473.288 1240.72 475.527 1240.35 478.139C1237.92 505.376 1218.72 528.883 1192.61 536.905C1187.02 538.584 1189.44 547.912 1195.41 546.046Z" fill="#F0F8FF"/>
</g>
<path d="M1269.62 523.663H1060.22C1056.12 523.663 1052.76 520.305 1052.76 516.201C1052.76 512.096 1056.12 508.738 1060.22 508.738H1269.43C1273.54 508.738 1276.89 512.096 1276.89 516.201C1277.08 520.305 1273.72 523.663 1269.62 523.663Z" fill="#213782"/>
<path d="M1073.3 515.817L1027.72 671.193L1033.62 672.927L1079.2 517.551L1073.3 515.817Z" fill="#213782"/>
<path d="M1261.63 515.759L1255.73 517.493L1301.36 672.863L1307.27 671.128L1261.63 515.759Z" fill="#213782"/>
<path d="M720.474 248.861H660.618V376.655H720.474V248.861Z" fill="#E9F3FF"/>
<path d="M653.719 260.054C652.413 264.345 683.553 320.126 683.553 320.126L676.654 321.618L645.141 266.77L653.719 260.054Z" fill="#E9F3FF"/>
<path d="M634.326 286.173L700.708 246.249L651.294 240.466C651.294 240.466 629.291 260.801 634.326 286.173Z" fill="#E9F3FF"/>
<path d="M793.756 380.572H733.9V508.365H793.756V380.572Z" fill="#E9F3FF"/>
<path d="M753.479 508.924L830.676 468.627L785.551 454.635L753.479 508.924Z" fill="#E9F3FF"/>
<path d="M787.043 299.604H695.86V497.73H787.043V299.604Z" fill="#E9F3FF"/>
<path d="M683.553 320.126C682.994 328.335 770.82 495.306 770.82 495.306L765.412 498.104L675.535 324.977L683.553 320.126Z" fill="#E9F3FF"/>
<path d="M699.03 460.419C723.746 460.419 743.782 440.373 743.782 415.644C743.782 390.916 723.746 370.87 699.03 370.87C674.314 370.87 654.278 390.916 654.278 415.644C654.278 440.373 674.314 460.419 699.03 460.419Z" fill="#E9F3FF"/>
<path d="M738.375 298.669L658.753 341.391C655.024 343.443 650.548 341.951 648.497 338.22C646.446 334.488 647.938 330.011 651.667 327.959L731.289 285.237C735.018 283.184 739.493 284.677 741.545 288.408C743.409 292.139 741.918 296.617 738.375 298.669Z" fill="#213782"/>
<path d="M693.25 246.996L634.326 278.524C631.529 280.017 628.172 278.897 626.681 276.285C625.189 273.487 626.308 270.129 628.918 268.636L687.842 237.108C690.639 235.615 693.995 236.735 695.487 239.347C696.979 242.145 696.047 245.503 693.25 246.996Z" fill="#213782"/>
<path d="M810.911 564.706H755.343V590.078H810.911V564.706Z" fill="#E9F3FF"/>
<path d="M747.885 627.201C683.18 627.201 630.41 574.405 630.41 509.669C630.41 479.819 641.598 451.462 661.923 429.635L674.044 440.828C656.702 459.484 647.006 483.924 647.006 509.669C647.006 565.45 692.317 610.598 747.885 610.598V627.201Z" fill="#213782"/>
<path d="M825.642 589.892H738.934V671.045H825.642V589.892Z" fill="#E9F3FF"/>
<path d="M857.901 571.049H707.048C702.387 571.049 698.657 567.318 698.657 562.654C698.657 557.99 702.387 554.259 707.048 554.259H857.901C862.562 554.259 866.292 557.99 866.292 562.654C866.478 567.131 862.749 571.049 857.901 571.049Z" fill="#213782"/>
<path d="M834.592 679.251H730.543C725.881 679.251 722.152 675.52 722.152 670.856C722.152 666.192 725.881 662.46 730.543 662.46H834.592C839.254 662.46 842.983 666.192 842.983 670.856C842.983 675.333 839.254 679.251 834.592 679.251Z" fill="#213782"/>
<path d="M692.317 455.942C717.857 455.942 738.561 435.228 738.561 409.676C738.561 384.123 717.857 363.409 692.317 363.409C666.778 363.409 646.073 384.123 646.073 409.676C646.073 435.228 666.778 455.942 692.317 455.942Z" fill="#213782"/>
<path d="M692.317 435.609C706.632 435.609 718.236 423.999 718.236 409.677C718.236 395.355 706.632 383.745 692.317 383.745C678.003 383.745 666.398 395.355 666.398 409.677C666.398 423.999 678.003 435.609 692.317 435.609Z" fill="#E9F3FF"/>
<path d="M575.029 210.617C575.029 210.617 581.183 202.968 585.658 202.595C585.658 202.595 598.897 211.363 608.22 206.699C617.544 202.035 592.184 193.267 592.184 193.267L579.131 194.759C579.131 194.946 570.74 205.766 575.029 210.617Z" fill="#453E6B"/>
<path d="M614.933 546.235H503.799V553.884H614.933V546.235Z" fill="#33628F"/>
<path d="M519.278 547.849L515.402 549.685L576.494 678.648L580.37 676.812L519.278 547.849Z" fill="#33628F"/>
<path d="M605.798 547.854L601.922 549.69L663.014 678.653L666.89 676.817L605.798 547.854Z" fill="#33628F"/>
<path d="M622.951 587.839H536.43V592.13H622.951V587.839Z" fill="#33628F"/>
<path d="M643.649 627.762H557.128V632.053H643.649V627.762Z" fill="#33628F"/>
</svg>
