<svg width="39" height="52" viewBox="0 0 39 52" fill="none" xmlns="http://www.w3.org/2000/svg">
<path d="M36.5227 18.8177C35.7205 17.7643 34.7768 16.7587 33.6915 15.8011C32.6062 14.8435 31.3557 13.9816 29.9401 13.2155C28.5717 12.4494 27.0853 11.8508 25.4809 11.4199C23.8766 10.9889 22.1543 10.7735 20.314 10.7735C16.9637 10.7735 14.6279 11.1565 13.3067 11.9227C11.9855 12.6409 11.3249 13.6464 11.3249 14.9392C11.3249 15.9926 11.726 16.8306 12.5281 17.453C13.3303 18.0755 14.3684 18.5783 15.6425 18.9613C16.9637 19.3444 18.4501 19.6796 20.1016 19.9669C21.7532 20.2541 23.4283 20.6133 25.127 21.0442C26.873 21.4273 28.5717 21.954 30.2232 22.6243C31.8748 23.2947 33.3376 24.2044 34.6116 25.3536C35.9328 26.5028 36.9946 27.9392 37.7967 29.663C38.5989 31.3867 39 33.5175 39 36.0553C39 38.1142 38.6225 40.1013 37.8675 42.0166C37.1597 43.9319 35.98 45.6317 34.3285 47.116C32.677 48.6004 30.5064 49.7974 27.8167 50.7072C25.1742 51.5691 21.9419 52 18.1198 52C16.0436 52 14.0617 51.8324 12.1742 51.4972C10.3339 51.1621 8.63521 50.7072 7.07804 50.1326C5.56806 49.558 4.22323 48.9116 3.04356 48.1934C1.91107 47.4751 1.01452 46.733 0.353902 45.9669V33.1823C1.95826 35.6243 4.27042 37.5875 7.29038 39.0718C10.3103 40.5083 13.873 41.2265 17.9782 41.2265C21.5644 41.2265 24.0653 40.7956 25.4809 39.9337C26.8966 39.0239 27.6044 37.8748 27.6044 36.4862C27.6044 35.337 27.2033 34.4512 26.4011 33.8287C25.5989 33.1584 24.5608 32.6317 23.2868 32.2486C22.0127 31.8656 20.5499 31.5543 18.8984 31.3149C17.2468 31.0755 15.5481 30.7643 13.8022 30.3812C12.0563 29.9982 10.3575 29.4954 8.70599 28.8729C7.05445 28.2505 5.59165 27.3646 4.3176 26.2155C3.04356 25.0663 2.00544 23.6059 1.20327 21.8343C0.401089 20.0147 0 17.7403 0 15.011C0 10.3186 1.65154 6.65562 4.95463 4.0221C8.3049 1.3407 13.4247 0 20.314 0C23.9946 0 27.1797 0.406995 29.8693 1.22099C32.6062 2.03499 34.824 2.94475 36.5227 3.95028V18.8177Z" fill="#E2581D"/>
</svg>
